{
.appVersion = "3151";
.formatVersion = 3;
axes = (
{
name = Weight;
tag = wght;
}
);
classes = (
{
automatic = 1;
code = "A Aacute Abreve Acaron Acircumflex Adieresis Adotbelow Agrave Amacron Aogonek Aring Aringacute Atilde AE AEacute B C Cacute Ccaron Ccedilla Ccircumflex Cdotaccent D Eth Dcaron Dcroat E Eacute Ebreve Ecaron Ecircumflex Edieresis Edotaccent Edotbelow Egrave Emacron Eogonek Etilde Schwa F G Gbreve Gcaron Gcircumflex Gcommaaccent Gdotaccent H Hbar Hcircumflex I IJ Iacute Ibreve Icircumflex Idieresis Idotaccent Idotbelow Igrave Imacron Iogonek Itilde J Jcircumflex K Kcommaaccent L Lacute Lcaron Lcommaaccent Ldot Lslash M N Nacute Ncaron Ncommaaccent Nhookleft Ntilde Eng O Oacute Obreve Ocircumflex Odieresis Odotbelow Ograve Ohungarumlaut Omacron Oogonek Oslash Oslashacute Otilde OE P Thorn Q R Racute Rcaron Rcommaaccent S Sacute Scaron Scedilla Scircumflex Scommaaccent Germandbls T Tbar Tcaron Tcedilla Tcommaaccent U Uacute Ubreve Ucircumflex Udieresis Udotbelow Ugrave Uhungarumlaut Umacron Uogonek Uring Utilde V W Wacute Wcircumflex Wdieresis Wgrave X Y Yacute Ycircumflex Ydieresis Ygrave Ymacron Ytilde Z Zacute Zcaron Zdotaccent Delta Pi Sigma Omega";
name = Uppercase;
}
);
customParameters = (
{
name = "Use Typo Metrics";
value = 1;
},
{
name = "Write DisplayStrings";
value = 0;
},
{
name = "Write lastChange";
value = 0;
},
{
name = fsType;
value = (
);
},
{
name = "Axis Mappings";
value = {
wght = {
400 = 400;
500 = 476;
600 = 572;
700 = 680;
800 = 793;
900 = 900;
};
};
},
{
name = "Variable Font Origin";
value = "F3C0A8D3-A3E8-4ECE-8090-B83518D65089";
}
);
date = "2022-04-27 15:27:08 +0000";
familyName = "Schibsted Grotesk";
featurePrefixes = (
{
automatic = 1;
code = "languagesystem DFLT dflt;

languagesystem latn dflt;
languagesystem latn AZE;
languagesystem latn CRT;
languagesystem latn KAZ;
languagesystem latn TAT;
languagesystem latn TRK;
languagesystem latn ROM;
languagesystem latn MOL;
languagesystem latn CAT;
";
name = Languagesystems;

glyphs = (
{
glyphname = A;
kernLeft = A;
kernRight = A;
layers = (
{
anchors = (
{
name = bottom;
pos = (604,0);
},
{
name = ogonek;
pos = (1258,0);
},
{
name = top;
pos = (890,1440);
}
);
guides = (
{
angle = 78;
pos = (745,698);
}
);
layerId = "F3C0A8D3-A3E8-4ECE-8090-B83518D65089";
shapes = (
{
closed = 1;
nodes = (
(102,0,l),
(859,1236,l),
(1079,0,l),
(1258,0,l),
(982,1440,l),
(825,1440,l),
(-106,0,l)
);
},
{
closed = 1;
nodes = (
(1074,469,l),
(1106,621,l),
(366,621,l),
(335,469,l)
);
}
);
width = 1382;
},
{
anchors = (
{
name = bottom;
pos = (687,0);
},
{
name = ogonek;
pos = (1429,0);
},
{
name = top;
pos = (958,1440);
}
);
background = {
shapes = (
{
closed = 1;
nodes = (
(356,39,l),
(932,1171,l),
(1014,-31,l),
(1437,-75,l),
(1255,1392,l),
(720,1448,l),
(-67,83,l)
);
},
{
closed = 1;
nodes = (
(1120,292,l),
(1189,613,l),
(453,690,l),
(385,369,l)
);
}
);
};
guides = (
{
angle = 78;
pos = (932,1177);
}
);
layerId = "F6FF57EF-12AD-4CA4-84B8-F83D8C5A96DF";
name = "800";
shapes = (
{
closed = 1;
nodes = (
(334,0,l),
(932,1177,l),
(1014,0,l),
(1429,0,l),
(1249,1440,l),
(717,1440,l),
(-115,0,l)
);
},
{
closed = 1;
nodes = (
(1120,332,l),
(1189,658,l),
(449,658,l),
(380,332,l)
);
}
);
width = 1544;
}
);
unicode = 65;
userData = {
KernOnName = A;
};
},
{
glyphname = AE;
kernLeft = AE;
kernRight = E;
layers = (
{
anchors = (
{
name = bottom;
pos = (818,0);
},
{
name = top;
pos = (1334,1440);
}
);
layerId = "F3C0A8D3-A3E8-4ECE-8090-B83518D65089";
shapes = (
{
closed = 1;
nodes = (
(131,0,l),
(443,469,l),
(953,469,l),
(936,0,l),
(1646,0,l),
(1678,152,l),
(1118,152,l),
(1129,690,l),
(1685,690,l),
(1717,842,l),
(1132,842,l),
(1141,1288,l),
(1903,1288,l),
(1935,1440,l),
(908,1440,l),
(-76,0,l)
);
},
{
closed = 1;
nodes = (
(1043,1372,l),
(987,1379,l),
(960,621,l),
(544,621,l)
);
}
);
width = 1825;
},
{
anchors = (
{
name = bottom;
pos = (863,0);
},
{
name = top;
pos = (1380,1440);
}
);
layerId = "F6FF57EF-12AD-4CA4-84B8-F83D8C5A96DF";
shapes = (
{
closed = 1;
nodes = (
(355,0,l),
(562,332,l),
(954,332,l),
(917,0,l),
(1789,0,l),
(1863,350,l),
(1360,350,l),
(1371,585,l),
(1787,585,l),
(1857,915,l),
(1387,915,l),
(1395,1090,l),
(2005,1090,l),
(2078,1440,l),
(882,1440,l),
(-108,0,l)
);
},
{
closed = 1;
nodes = (
(1160,1292,l),
(1059,1306,l),
(989,658,l),
(765,658,l)
);
}
);
width = 1969;
}
);
unicode = 198;
userData = {
KernOnName = AE;
};
},
{
glyphname = B;
kernLeft = H;
kernRight = B;
layers = (
{
layerId = "F3C0A8D3-A3E8-4ECE-8090-B83518D65089";
shapes = (
{
closed = 1;
nodes = (
(687,0,ls),
(1005,0,o),
(1164,215,o),
(1164,447,cs),
(1164,638,o),
(1056,732,o),
(891,768,c),
(887,764,l),
(1101,776,o),
(1263,943,o),
(1263,1138,cs),
(1263,1347,o),
(1076,1440,o),
(848,1440,cs),
(346,1440,l),
(41,0,l)
);
},
{
closed = 1;
nodes = (
(369,706,l),
(692,706,ls),
(878,706,o),
(990,627,o),
(990,474,cs),
(990,337,o),
(899,151,o),
(691,151,cs),
(251,151,l)
);
},
{
closed = 1;
nodes = (
(493,1289,l),
(842,1289,ls),
(974,1289,o),
(1071,1239,o),
(1071,1110,cs),
(1071,987,o),
(981,857,o),
(802,857,cs),
(401,857,l)
);
}
);
width = 1275;
},
{
background = {
shapes = (
{
closed = 1;
nodes = (
(1100,757,l),
(1332,782,o),
(1427,961,o),
(1427,1134,cs),
(1427,1309,o),
(1295,1417,o),
(994,1449,cs),
(319,1520,l),
(177,855,l)
);
},
{
closed = 1;
nodes = (
(533,638,l),
(753,615,ls),
(896,600,o),
(931,548,o),
(931,489,cs),
(931,418,o),
(903,318,o),
(748,318,cs),
(731,318,o),
(712,319,o),
(691,321,cs),
(471,344,l)
);
},
{
closed = 1;
nodes = (
(646,1172,l),
(897,1146,ls),
(990,1136,o),
(1020,1103,o),
(1020,1053,cs),
(1020,984,o),
(985,920,o),
(887,920,cs),
(875,920,o),
(863,921,o),
(850,922,cs),
(598,949,l)
);
},
{
closed = 1;
nodes = (
(173,829,l),
(13,78,l),
(720,4,ls),
(756,0,o),
(791,-2,o),
(826,-2,cs),
(1115,-2,o),
(1320,166,o),
(1320,446,cs),
(1320,595,o),
(1234,690,o),
(1077,734,c),
(1074,730,l),
(1081,730,o),
(1089,731,o),
(1096,732,c)
);
}
);
};
layerId = "F6FF57EF-12AD-4CA4-84B8-F83D8C5A96DF";
name = "800 Italic";
shapes = (
{
closed = 1;
nodes = (
(826,0,ls),
(1115,0,o),
(1320,183,o),
(1320,442,cs),
(1320,614,o),
(1229,710,o),
(1073,753,c),
(1070,749,l),
(1254,769,o),
(1427,895,o),
(1427,1130,cs),
(1427,1319,o),
(1315,1440,o),
(864,1440,cs),
(306,1440,l),
(4,0,l)
);
},
{
closed = 1;
nodes = (
(526,611,l),
(747,611,ls),
(896,611,o),
(931,548,o),
(931,481,cs),
(931,421,o),
(903,312,o),
(748,312,cs),
(463,312,l)
);
},
{
closed = 1;
nodes = (
(635,1128,l),
(897,1128,ls),
(1001,1128,o),
(1020,1085,o),
(1020,1035,cs),
(1020,966,o),
(984,901,o),
(886,901,cs),
(587,901,l)
);
}
);
width = 1395;
}
);
unicode = 66;
userData = {
KernOnName = B;
};
},
{
glyphname = C;
kernLeft = O;
kernRight = C;
layers = (
{
anchors = (
{
name = bottom;
pos = (689,0);
},
{
name = top;
pos = (865,1440);
}
);
layerId = "F3C0A8D3-A3E8-4ECE-8090-B83518D65089";
shapes = (
{
closed = 1;
nodes = (
(981,-24,o),
(1190,120,o),
(1335,428,c),
(1140,484,l),
(1051,239,o),
(904,128,o),
(717,128,cs),
(471,128,o),
(313,321,o),
(313,606,cs),
(313,906,o),
(487,1312,o),
(864,1312,cs),
(1092,1312,o),
(1201,1164,o),
(1218,968,c),
(1412,1014,l),
(1380,1288,o),
(1162,1464,o),
(862,1464,cs),
(388,1464,o),
(119,1030,o),
(119,606,cs),
(119,211,o),
(353,-24,o),
(705,-24,cs)
);
}
);
width = 1412;
},
{
anchors = (
{
name = bottom;
pos = (639,0);
},
{
name = top;
pos = (883,1440);
}
);
background = {
shapes = (
{
closed = 1;
nodes = (
(365,-22,o),
(733,-22,cs),
(1027,-22,o),
(1262,127,o),
(1387,390,c),
(1004,506,l),
(940,389,o),
(857,325,o),
(745,325,cs),
(587,325,o),
(492,422,o),
(492,600,cs),
(492,785,o),
(584,1112,o),
(841,1112,cs),
(982,1112,o),
(1096,1034,o),
(1086,842,c),
(1498,894,l),
(1493,1271,o),
(1211,1460,o),
(855,1460,cs),
(348,1460,o),
(79,1008,o),
(79,581,cs),
(79,178,o)
);
}
);
};
layerId = "F6FF57EF-12AD-4CA4-84B8-F83D8C5A96DF";
shapes = (
{
closed = 1;
nodes = (
(1040,-28,o),
(1283,127,o),
(1411,445,c),
(1015,530,l),
(953,395,o),
(864,321,o),
(737,321,cs),
(588,321,o),
(491,422,o),
(491,606,cs),
(491,787,o),
(584,1118,o),
(843,1118,cs),
(980,1118,o),
(1094,1025,o),
(1087,873,c),
(1493,966,l),
(1473,1255,o),
(1210,1468,o),
(862,1468,cs),
(350,1468,o),
(75,1006,o),
(75,596,cs),
(75,174,o),
(365,-28,o),
(725,-28,cs)
);
}
);
width = 1451;
}
);
tags = (
overshot
);
unicode = 67;
userData = {
KernOnName = C;
};
},
{
glyphname = D;
kernLeft = H;
kernRight = O;
layers = (
{
anchors = (
{
name = bottom;
pos = (583,0);
},
{
name = center;
pos = (373,720);
},
{
name = top;
pos = (815,1440);
}
);
layerId = "F3C0A8D3-A3E8-4ECE-8090-B83518D65089";
name = "400 Italic";
shapes = (
{
closed = 1;
nodes = (
(587,0,ls),
(1106,0,o),
(1356,419,o),
(1356,841,cs),
(1356,1197,o),
(1179,1440,o),
(796,1440,cs),
(347,1440,l),
(40,0,l)
);
},
{
closed = 1;
nodes = (
(493,1288,l),
(740,1288,ls),
(1050,1288,o),
(1163,1092,o),
(1163,837,cs),
(1163,529,o),
(997,152,o),
(585,152,cs),
(250,152,l)
);
}
);
width = 1399;
},
{
anchors = (
{
name = bottom;
pos = (663,0);
},
{
name = center;
pos = (398,720);
},
{
name = top;
pos = (865,1440);
}
);
background = {
shapes = (
{
closed = 1;
nodes = (
(616,0,ls),
(1121,0,o),
(1392,257,o),
(1489,720,cs),
(1587,1183,o),
(1424,1440,o),
(919,1440,cs),
(305,1440,l),
(2,0,l)
);
},
{
closed = 1;
nodes = (
(625,1090,l),
(803,1090,ls),
(1036,1090,o),
(1131,963,o),
(1080,720,cs),
(1029,477,o),
(881,350,o),
(647,350,cs),
(470,350,l)
);
}
);
};
layerId = "F6FF57EF-12AD-4CA4-84B8-F83D8C5A96DF";
shapes = (
{
closed = 1;
nodes = (
(759,0,ls),
(1338,0,o),
(1517,546,o),
(1517,868,cs),
(1517,1215,o),
(1331,1440,o),
(745,1440,cs),
(306,1440,l),
(4,0,l)
);
},
{
closed = 1;
nodes = (
(625,1090,l),
(743,1090,ls),
(1007,1090,o),
(1097,1016,o),
(1097,841,cs),
(1097,674,o),
(1013,350,o),
(708,350,cs),
(470,350,l)
);
}
);
width = 1516;
}
);
unicode = 68;
userData = {
KernOnName = D;
};
},
{
glyphname = E;
kernLeft = H;
kernRight = E;
layers = (
{
anchors = (
{
name = bottom;
pos = (535,0);
},
{
name = ogonek;
pos = (967,0);
},
{
name = top;
pos = (784,1440);
},
{
name = topleft;
pos = (193,1440);
}
);
layerId = "F3C0A8D3-A3E8-4ECE-8090-B83518D65089";
shapes = (
{
closed = 1;
nodes = (
(967,0,l),
(999,152,l),
(251,152,l),
(366,690,l),
(1007,690,l),
(1038,842,l),
(398,842,l),
(493,1288,l),
(1226,1288,l),
(1257,1440,l),
(346,1440,l),
(41,0,l)
);
}
);
width = 1147;
},
{
anchors = (
{
name = bottom;
pos = (527,0);
},
{
name = ogonek;
pos = (1043,0);
},
{
name = top;
pos = (804,1440);
},
{
name = topleft;
pos = (254,1440);
}
);
layerId = "F6FF57EF-12AD-4CA4-84B8-F83D8C5A96DF";
shapes = (
{
closed = 1;
nodes = (
(1043,0,l),
(1116,350,l),
(470,350,l),
(520,585,l),
(1042,585,l),
(1111,915,l),
(589,915,l),
(626,1090,l),
(1259,1090,l),
(1332,1440,l),
(306,1440,l),
(4,0,l)
);
}
);
width = 1215;
}
);
unicode = 69;
userData = {
KernOnName = E;
KernOnSpecialSpacing = {
};
};
},
{
glyphname = Schwa;
layers = (
{
background = {
shapes = (
{
pos = (-24,0);
ref = O;
}
);
};
layerId = "F3C0A8D3-A3E8-4ECE-8090-B83518D65089";
shapes = (
{
closed = 1;
nodes = (
(1190,-23,o),
(1390,528,o),
(1390,879,cs),
(1390,1272,o),
(1136,1463,o),
(825,1463,cs),
(580,1463,o),
(359,1346,o),
(203,1078,c),
(379,1013,l),
(482,1222,o),
(621,1319,o),
(817,1319,cs),
(1070,1319,o),
(1218,1160,o),
(1218,883,cs),
(1218,602,o),
(1068,126,o),
(662,126,cs),
(344,126,o),
(264,418,o),
(323,689,c),
(250,681,l),
(237,612,l),
(1230,612,l),
(1261,764,l),
(141,764,l),
(67,393,o),
(169,-23,o),
(643,-23,cs)
);
}
);
width = 1423;
},
{
background = {
shapes = (
{
pos = (5,0);
ref = O;
}
);
};
layerId = "F6FF57EF-12AD-4CA4-84B8-F83D8C5A96DF";
shapes = (
{
closed = 1;
nodes = (
(1220,-28,o),
(1509,416,o),
(1509,831,cs),
(1509,1241,o),
(1230,1468,o),
(844,1468,cs),
(548,1468,o),
(298,1334,o),
(154,1047,c),
(523,944,l),
(605,1097,o),
(701,1156,o),
(825,1156,cs),
(996,1156,o),
(1082,1043,o),
(1082,862,cs),
(1082,667,o),
(982,267,o),
(697,267,cs),
(485,267,o),
(454,487,o),
(478,638,c),
(432,619,l),
(429,521,l),
(1190,521,l),
(1238,824,l),
(109,824,l),
(7,407,o),
(171,-28,o),
(691,-28,cs)
);
}
);
width = 1509;
}
);
unicode = 399;
userData = {
RMXScaler = {
source = e;
};
};
},
{
glyphname = F;
kernLeft = H;
kernRight = F;
layers = (
{
layerId = "F3C0A8D3-A3E8-4ECE-8090-B83518D65089";
shapes = (
{
closed = 1;
nodes = (
(220,0,l),
(367,697,l),
(1005,697,l),
(1037,849,l),
(399,849,l),
(492,1288,l),
(1201,1288,l),
(1233,1440,l),
(346,1440,l),
(41,0,l)
);
}
);
width = 1096;
},
{
background = {
shapes = (
{
closed = 1;
nodes = (
(407,0,l),
(407,700,l),
(1046,700,l),
(1046,848,l),
(407,848,l),
(407,1292,l),
(1150,1292,l),
(1150,1440,l),
(227,1440,l),
(227,0,l)
);
}
);
};
layerId = "F6FF57EF-12AD-4CA4-84B8-F83D8C5A96DF";
shapes = (
{
closed = 1;
nodes = (
(398,0,l),
(510,535,l),
(1050,535,l),
(1124,885,l),
(584,885,l),
(627,1090,l),
(1260,1090,l),
(1333,1440,l),
(306,1440,l),
(4,0,l)
);
}
);
width = 1177;
}
);
unicode = 70;
userData = {
KernOnName = F;
};
},
{
glyphname = G;
kernLeft = O;
kernRight = G;
layers = (
{
anchors = (
{
name = bottom;
pos = (742,-24);
},
{
name = top;
pos = (879,1440);
}
);
layerId = "F3C0A8D3-A3E8-4ECE-8090-B83518D65089";
shapes = (
{
closed = 1;
nodes = (
(941,-24,o),
(1121,32,o),
(1249,181,c),
(1367,738,l),
(737,738,l),
(707,586,l),
(1217,586,l),
(1168,635,l),
(1087,260,l),
(1005,171,o),
(892,128,o),
(755,128,cs),
(458,128,o),
(312,322,o),
(312,603,cs),
(312,908,o),
(484,1312,o),
(865,1312,cs),
(1072,1312,o),
(1225,1192,o),
(1221,974,c),
(1419,1021,l),
(1401,1301,o),
(1175,1464,o),
(873,1464,cs),
(378,1464,o),
(118,1021,o),
(118,600,cs),
(118,211,o),
(339,-24,o),
(742,-24,cs)
);
}
);
width = 1427;
},
{
anchors = (
{
name = bottom;
pos = (734,0);
},
{
name = top;
pos = (878,1440);
}
);
background = {
shapes = (
{
closed = 0;
nodes = (
(490,593,ls)
);
}
);
};
layerId = "F6FF57EF-12AD-4CA4-84B8-F83D8C5A96DF";
name = "800";
shapes = (
{
closed = 1;
nodes = (
(894,-28,o),
(1180,4,o),
(1325,210,c),
(1454,825,l),
(730,825,l),
(661,498,l),
(1164,498,l),
(1028,595,l),
(986,398,l),
(940,340,o),
(846,322,o),
(760,322,cs),
(588,322,o),
(490,424,o),
(490,593,cs),
(490,748,o),
(562,1118,o),
(855,1118,cs),
(963,1118,o),
(1060,1068,o),
(1075,931,c),
(1478,1028,l),
(1423,1292,o),
(1180,1468,o),
(861,1468,cs),
(332,1468,o),
(74,984,o),
(74,585,cs),
(74,174,o),
(364,-28,o),
(740,-28,cs)
);
}
);
width = 1459;
}
);
tags = (
overshot
);
unicode = 71;
userData = {
KernOnName = G;
};
},
{
glyphname = H;
kernLeft = H;
kernRight = H;
layers = (
{
anchors = (
{
name = bottom;
pos = (594,0);
},
{
name = center;
pos = (747,720);
},
{
name = top;
pos = (900,1440);
},
{
name = topleft;
pos = (192,1440);
}
);
layerId = "F3C0A8D3-A3E8-4ECE-8090-B83518D65089";
name = "400 Italic";
shapes = (
{
closed = 1;
nodes = (
(220,0,l),
(361,667,l),
(1111,667,l),
(970,0,l),
(1149,0,l),
(1452,1440,l),
(1273,1440,l),
(1143,819,l),
(393,819,l),
(523,1440,l),
(345,1440,l),
(42,0,l)
);
}
);
width = 1418;
},
{
anchors = (
{
name = bottom;
pos = (648,0);
},
{
name = center;
pos = (801,720);
},
{
name = top;
pos = (954,1440);
},
{
name = topleft;
pos = (254,1440);
}
);
layerId = "F6FF57EF-12AD-4CA4-84B8-F83D8C5A96DF";
shapes = (
{
closed = 1;
nodes = (
(398,0,l),
(509,530,l),
(1013,530,l),
(902,0,l),
(1296,0,l),
(1598,1440,l),
(1204,1440,l),
(1087,880,l),
(583,880,l),
(700,1440,l),
(306,1440,l),
(4,0,l)
);
}
);
width = 1526;
}
);
unicode = 72;
userData = {
KernOnName = H;
};
},
{
glyphname = I;
kernLeft = I;
kernRight = I;
layers = (
{
anchors = (
{
name = bottom;
pos = (235,0);
},
{
name = ogonek;
pos = (507,0);
},
{
name = top;
pos = (542,1440);
},
{
name = topleft;
pos = (169,1440);
}
);
layerId = "F3C0A8D3-A3E8-4ECE-8090-B83518D65089";
shapes = (
{
closed = 1;
nodes = (
(507,0,l),
(538,144,l),
(357,144,l),
(601,1296,l),
(783,1296,l),
(814,1440,l),
(269,1440,l),
(238,1296,l),
(422,1296,l),
(178,144,l),
(-6,144,l),
(-37,0,l)
);
}
);
width = 702;
},
{
anchors = (
{
name = bottom;
pos = (352,0);
},
{
name = ogonek;
pos = (749,0);
},
{
name = top;
pos = (658,1440);
},
{
name = topleft;
pos = (219,1440);
}
);
background = {
shapes = (
{
closed = 1;
nodes = (
(551,0,l),
(853,1440,l),
(459,1440,l),
(157,0,l)
);
},
{
closed = 1;
nodes = (
(749,0,l),
(822,350,l),
(32,350,l),
(-41,0,l)
);
},
{
closed = 1;
nodes = (
(978,1090,l),
(1051,1440,l),
(261,1440,l),
(188,1090,l)
);
}
);
};
layerId = "F6FF57EF-12AD-4CA4-84B8-F83D8C5A96DF";
shapes = (
{
closed = 1;
nodes = (
(749,0,l),
(821,345,l),
(623,345,l),
(781,1095,l),
(979,1095,l),
(1051,1440,l),
(261,1440,l),
(189,1095,l),
(387,1095,l),
(229,345,l),
(31,345,l),
(-41,0,l)
);
}
);
width = 934;
}
);
unicode = 73;
userData = {
KernOnName = I;
};
},
{
glyphname = J;
kernLeft = J;
kernRight = J;
layers = (
{
anchors = (
{
name = bottom;
pos = (400,0);
},
{
name = top;
pos = (753,1440);
}
);
layerId = "F3C0A8D3-A3E8-4ECE-8090-B83518D65089";
name = "400";
shapes = (
{
closed = 1;
nodes = (
(682,-19,o),
(825,102,o),
(879,361,cs),
(1108,1440,l),
(393,1440,l),
(360,1288,l),
(897,1288,l),
(705,381,ls),
(668,207,o),
(598,132,o),
(452,128,cs),
(311,124,o),
(184,189,o),
(202,408,c),
(5,354,l),
(12,87,o),
(219,-29,o),
(452,-24,cs)
);
}
);
width = 1060;
},
{
anchors = (
{
name = bottom;
pos = (472,0);
},
{
name = top;
pos = (806,1440);
}
);
background = {
shapes = (
{
closed = 1;
nodes = (
(278,-28,o),
(579,-28,cs),
(785,-28,o),
(1031,47,o),
(1112,428,cs),
(1312,1366,l),
(920,1407,l),
(720,470,ls),
(700,372,o),
(650,308,o),
(552,308,cs),
(412,308,o),
(388,396,o),
(387,548,c),
(-13,516,l),
(10,53,o)
);
},
{
closed = 1;
nodes = (
(1061,1040,l),
(1134,1384,l),
(341,1468,l),
(268,1124,l)
);
}
);
};
layerId = "F6FF57EF-12AD-4CA4-84B8-F83D8C5A96DF";
shapes = (
{
closed = 1;
nodes = (
(796,-28,o),
(1028,48,o),
(1108,429,cs),
(1320,1440,l),
(324,1440,l),
(251,1090,l),
(852,1090,l),
(722,469,ls),
(702,372,o),
(649,307,o),
(544,307,cs),
(416,307,o),
(387,403,o),
(391,530,c),
(-12,456,l),
(34,61,o),
(288,-28,o),
(553,-28,cs)
);
}
);
width = 1231;
}
);
tags = (
overshot
);
unicode = 74;
userData = {
KernOnName = J;
};
},
{
glyphname = K;
kernLeft = H;
kernRight = K;
layers = (
{
anchors = (
{
name = bottom;
pos = (606,0);
},
{
name = top;
pos = (826,1440);
}
);
background = {
shapes = (
{
closed = 1;
nodes = (
(222,0,l),
(335,537,l),
(642,781,l),
(962,0,l),
(1180,0,l),
(808,913,l),
(1470,1440,l),
(1225,1440,l),
(384,772,l),
(524,1440,l),
(344,1440,l),
(42,0,l)
);
}
);
};
layerId = "F3C0A8D3-A3E8-4ECE-8090-B83518D65089";
name = "400 Italic";
shapes = (
{
closed = 1;
nodes = (
(220,0,l),
(327,507,l),
(644,767,l),
(958,0,l),
(1151,0,l),
(791,887,l),
(1467,1440,l),
(1203,1440,l),
(382,765,l),
(524,1440,l),
(346,1440,l),
(41,0,l)
);
}
);
width = 1316;
},
{
anchors = (
{
name = bottom;
pos = (696,0);
},
{
name = top;
pos = (982,1440);
}
);
background = {
shapes = (
{
closed = 1;
nodes = (
(407,41,l),
(496,459,l),
(735,647,l),
(968,-18,l),
(1411,-64,l),
(1053,887,l),
(1657,1358,l),
(1191,1407,l),
(598,939,l),
(708,1457,l),
(316,1499,l),
(15,82,l)
);
}
);
};
layerId = "F6FF57EF-12AD-4CA4-84B8-F83D8C5A96DF";
shapes = (
{
closed = 1;
nodes = (
(398,0,l),
(496,459,l),
(735,647,l),
(962,0,l),
(1387,0,l),
(1053,887,l),
(1763,1440,l),
(1228,1440,l),
(598,939,l),
(700,1440,l),
(306,1440,l),
(4,0,l)
);
}
);
width = 1567;
}
);
unicode = 75;
userData = {
KernOnName = K;
};
},
{
glyphname = L;
kernLeft = H;
kernRight = L;
layers = (
{
anchors = (
{
name = bottom;
pos = (505,0);
},
{
name = center;
pos = (294,720);
},
{
name = centerExt;
pos = (773,720);
},
{
name = top;
pos = (438,1440);
},
{
name = topright;
pos = (1214,1440);
}
);
layerId = "F3C0A8D3-A3E8-4ECE-8090-B83518D65089";
shapes = (
{
closed = 1;
nodes = (
(909,0,l),
(940,152,l),
(251,152,l),
(524,1440,l),
(346,1440,l),
(41,0,l)
);
}
);
width = 1070;
},
{
anchors = (
{
name = bottom;
pos = (541,0);
},
{
name = center;
pos = (357,721);
},
{
name = centerExt;
pos = (927,720);
},
{
name = top;
pos = (498,1440);
},
{
name = topright;
pos = (1340,1440);
}
);
layerId = "F6FF57EF-12AD-4CA4-84B8-F83D8C5A96DF";
shapes = (
{
closed = 1;
nodes = (
(1043,0,l),
(1116,350,l),
(470,350,l),
(699,1440,l),
(306,1440,l),
(4,0,l)
);
}
);
width = 1182;
}
);
unicode = 76;
userData = {
KernOnName = L;
};
},
{
glyphname = M;
kernLeft = M;
kernRight = M;
layers = (
{
layerId = "F3C0A8D3-A3E8-4ECE-8090-B83518D65089";
shapes = (
{
closed = 1;
nodes = (
(181,0,l),
(522,1301,l),
(513,1301,l),
(644,0,l),
(842,0,l),
(1517,1301,l),
(1512,1301,l),
(1305,0,l),
(1479,0,l),
(1705,1440,l),
(1401,1440,l),
(737,133,l),
(782,133,l),
(669,1440,l),
(384,1440,l),
(4,0,l)
);
}
);
width = 1710;
},
{
background = {
shapes = (
{
closed = 1;
nodes = (
(485,0,l),
(545,1154,l),
(542,1154,l),
(753,0,l),
(1270,0,l),
(1482,1154,l),
(1479,1154,l),
(1539,0,l),
(1939,0,l),
(1859,1440,l),
(1195,1440,l),
(995,270,l),
(1028,270,l),
(828,1440,l),
(165,1440,l),
(85,0,l)
);
}
);
};
guides = (
{
pos = (1070,493);
}
);
layerId = "F6FF57EF-12AD-4CA4-84B8-F83D8C5A96DF";
shapes = (
{
closed = 1;
nodes = (
(363,0,l),
(663,1154,l),
(650,1154,l),
(625,0,l),
(1099,0,l),
(1559,1154,l),
(1542,1154,l),
(1357,0,l),
(1746,0,l),
(1971,1440,l),
(1335,1440,l),
(899,270,l),
(930,270,l),
(978,1440,l),
(345,1440,l),
(-34,0,l)
);
}
);
width = 1938;
}
);
unicode = 77;
userData = {
KernOnName = M;
};
},
{
glyphname = N;
kernLeft = H;
kernRight = H;
layers = (
{
anchors = (
{
name = bottom;
pos = (630,0);
},
{
name = bottomLeft;
pos = (41,0);
},
{
name = bottomRight;
pos = (1180,0);
},
{
name = top;
pos = (922,1440);
}
);
layerId = "F3C0A8D3-A3E8-4ECE-8090-B83518D65089";
shapes = (
{
closed = 1;
nodes = (
(212,0,l),
(497,1331,l),
(464,1328,l),
(937,0,l),
(1180,0,l),
(1486,1440,l),
(1313,1440,l),
(1031,116,l),
(1064,119,l),
(609,1440,l),
(346,1440,l),
(41,0,l)
);
}
);
width = 1451;
},
{
anchors = (
{
name = bottom;
pos = (679,0);
},
{
name = bottomLeft;
pos = (3,0);
},
{
name = bottomRight;
pos = (1351,0);
},
{
name = top;
pos = (985,1440);
}
);
background = {
shapes = (
{
closed = 1;
nodes = (
(391,42,l),
(663,1322,l),
(511,1331,l),
(776,2,l),
(1340,-58,l),
(1641,1359,l),
(1269,1398,l),
(999,126,l),
(1140,117,l),
(887,1438,l),
(320,1498,l),
(19,81,l)
);
}
);
};
layerId = "F6FF57EF-12AD-4CA4-84B8-F83D8C5A96DF";
shapes = (
{
closed = 1;
nodes = (
(381,0,l),
(657,1301,l),
(521,1295,l),
(775,0,l),
(1351,0,l),
(1663,1440,l),
(1279,1440,l),
(1003,147,l),
(1130,153,l),
(886,1440,l),
(307,1440,l),
(3,0,l)
);
}
);
width = 1586;
}
);
unicode = 78;
userData = {
KernOnName = N;
};
},
{
glyphname = O;
kernLeft = O;
kernRight = O;
layers = (
{
anchors = (
{
name = bottom;
pos = (681,0);
},
{
name = center;
pos = (805,720);
},
{
name = ogonek;
pos = (921,0);
},
{
name = top;
pos = (917,1440);
},
{
name = topleft;
pos = (194,1440);
},
{
name = topright;
pos = (1720,1440);
}
);
layerId = "F3C0A8D3-A3E8-4ECE-8090-B83518D65089";
name = "400 Italic";
shapes = (
{
closed = 1;
nodes = (
(1238,-24,o),
(1490,421,o),
(1490,835,cs),
(1490,1229,o),
(1261,1464,o),
(886,1464,cs),
(373,1464,o),
(119,1022,o),
(119,605,cs),
(119,211,o),
(347,-24,o),
(722,-24,cs)
);
},
{
closed = 1;
nodes = (
(466,128,o),
(313,322,o),
(313,605,cs),
(313,904,o),
(481,1312,o),
(874,1312,cs),
(1143,1312,o),
(1296,1120,o),
(1296,834,cs),
(1296,535,o),
(1129,128,o),
(737,128,cs)
);
}
);
width = 1532;
},
{
anchors = (
{
name = bottom;
pos = (650,0);
},
{
name = center;
pos = (804,720);
},
{
name = ogonek;
pos = (943,0);
},
{
name = top;
pos = (937,1440);
},
{
name = topleft;
pos = (210,1440);
},
{
name = topright;
pos = (1704,1440);
}
);
background = {
shapes = (
{
closed = 1;
nodes = (
(369,-21,o),
(745,-21,cs),
(1267,-21,o),
(1528,437,o),
(1528,855,cs),
(1528,1257,o),
(1239,1461,o),
(863,1461,cs),
(343,1461,o),
(80,1004,o),
(80,585,cs),
(80,182,o)
);
},
{
closed = 1;
nodes = (
(493,426,o),
(493,606,cs),
(493,793,o),
(586,1113,o),
(849,1113,cs),
(1018,1113,o),
(1115,1014,o),
(1115,834,cs),
(1115,647,o),
(1022,327,o),
(759,327,cs),
(590,327,o)
);
}
);
};
layerId = "F6FF57EF-12AD-4CA4-84B8-F83D8C5A96DF";
shapes = (
{
closed = 1;
nodes = (
(1270,-28,o),
(1532,437,o),
(1532,838,cs),
(1532,1269,o),
(1228,1468,o),
(877,1468,cs),
(341,1468,o),
(76,1003,o),
(76,601,cs),
(76,166,o),
(385,-28,o),
(732,-28,cs)
);
},
{
closed = 1;
nodes = (
(594,322,o),
(491,425,o),
(491,615,cs),
(491,792,o),
(581,1118,o),
(859,1118,cs),
(1015,1118,o),
(1117,1015,o),
(1117,832,cs),
(1117,658,o),
(1025,322,o),
(748,322,cs)
);
}
);
width = 1532;
}
);
tags = (
overshot
);
unicode = 79;
userData = {
KernOnName = O;
};
},
{
glyphname = OE;
kernLeft = O;
kernRight = E;
layers = (
{
background = {
shapes = (
{
closed = 1;
nodes = (
(887,-24,o),
(1048,50,o),
(1166,167,c),
(1146,212,l),
(1101,0,l),
(2027,0,l),
(2059,152,l),
(1311,152,l),
(1426,690,l),
(2067,690,l),
(2098,842,l),
(1458,842,l),
(1553,1288,l),
(2286,1288,l),
(2317,1440,l),
(1406,1440,l),
(1336,1109,l),
(1376,1138,l),
(1292,1346,o),
(1109,1464,o),
(858,1464,cs),
(370,1464,o),
(119,1019,o),
(119,595,cs),
(119,207,o),
(336,-24,o),
(687,-24,cs)
);
},
{
closed = 1;
nodes = (
(312,901,o),
(478,1312,o),
(847,1312,cs),
(1094,1312,o),
(1234,1125,o),
(1234,846,cs),
(1234,538,o),
(1069,128,o),
(702,128,cs),
(452,128,o),
(312,317,o),
(312,594,cs)
);
}
);
};
layerId = "F3C0A8D3-A3E8-4ECE-8090-B83518D65089";
shapes = (
{
closed = 1;
nodes = (
(886,-24,o),
(1068,50,o),
(1166,207,c),
(1146,212,l),
(1101,0,l),
(2027,0,l),
(2059,152,l),
(1311,152,l),
(1426,690,l),
(2067,690,l),
(2098,842,l),
(1458,842,l),
(1553,1288,l),
(2286,1288,l),
(2317,1440,l),
(1406,1440,l),
(1336,1109,l),
(1376,1078,l),
(1310,1328,o),
(1109,1464,o),
(852,1464,cs),
(386,1464,o),
(139,1019,o),
(139,595,cs),
(139,207,o),
(347,-24,o),
(691,-24,cs)
);
},
{
closed = 1;
nodes = (
(332,900,o),
(487,1312,o),
(856,1312,cs),
(1104,1312,o),
(1254,1125,o),
(1254,843,cs),
(1254,538,o),
(1078,128,o),
(711,128,cs),
(461,128,o),
(332,317,o),
(332,595,cs)
);
}
);
width = 2209;
},
{
layerId = "F6FF57EF-12AD-4CA4-84B8-F83D8C5A96DF";
shapes = (
{
closed = 1;
nodes = (
(788,-27,o),
(959,57,o),
(1098,190,c),
(1038,283,l),
(978,0,l),
(2017,0,l),
(2090,350,l),
(1444,350,l),
(1494,585,l),
(2016,585,l),
(2085,915,l),
(1563,915,l),
(1600,1090,l),
(2233,1090,l),
(2306,1440,l),
(1280,1440,l),
(1214,1122,l),
(1314,1208,l),
(1223,1365,o),
(1058,1467,o),
(829,1467,cs),
(341,1467,o),
(76,1003,o),
(76,592,cs),
(76,175,o),
(348,-27,o),
(616,-27,cs)
);
},
{
closed = 1;
nodes = (
(437,814,o),
(544,1165,o),
(824,1165,cs),
(988,1165,o),
(1088,1044,o),
(1088,843,cs),
(1088,634,o),
(980,275,o),
(701,275,cs),
(539,275,o),
(437,396,o),
(437,602,cs)
);
}
);
width = 2190;
}
);
unicode = 338;
userData = {
KernOnName = OE;
};
},
{
glyphname = P;
kernLeft = H;
kernRight = P;
layers = (
{
layerId = "F3C0A8D3-A3E8-4ECE-8090-B83518D65089";
shapes = (
{
closed = 1;
nodes = (
(219,0,l),
(354,636,l),
(752,636,ls),
(1144,636,o),
(1253,898,o),
(1253,1091,cs),
(1253,1357,o),
(1046,1440,o),
(746,1440,cs),
(346,1440,l),
(41,0,l)
);
},
{
closed = 1;
nodes = (
(493,1289,l),
(768,1289,ls),
(974,1289,o),
(1067,1205,o),
(1067,1062,cs),
(1067,894,o),
(939,787,o),
(765,787,cs),
(386,787,l)
);
}
);
width = 1212;
},
{
background = {
shapes = (
{
pos = (-11,0);
ref = B;
}
);
};
layerId = "F6FF57EF-12AD-4CA4-84B8-F83D8C5A96DF";
name = "800";
shapes = (
{
closed = 1;
nodes = (
(397,0,l),
(511,539,l),
(806,539,ls),
(1207,539,o),
(1480,695,o),
(1480,1047,cs),
(1480,1285,o),
(1352,1440,o),
(858,1440,cs),
(306,1440,l),
(4,0,l)
);
},
{
closed = 1;
nodes = (
(634,1128,l),
(866,1128,ls),
(1036,1128,o),
(1081,1088,o),
(1081,1005,cs),
(1081,892,o),
(996,851,o),
(900,851,cs),
(576,851,l)
);
}
);
width = 1413;
}
);
unicode = 80;
userData = {
KernOnName = P;
};
},
{
glyphname = Thorn;
kernLeft = H;
layers = (
{
layerId = "F3C0A8D3-A3E8-4ECE-8090-B83518D65089";
shapes = (
{
closed = 1;
nodes = (
(219,0,l),
(286,317,l),
(682,317,ls),
(1075,317,o),
(1184,579,o),
(1184,772,cs),
(1184,1038,o),
(977,1121,o),
(677,1121,cs),
(458,1121,l),
(525,1440,l),
(346,1440,l),
(41,0,l)
);
},
{
closed = 1;
nodes = (
(425,970,l),
(698,970,ls),
(905,970,o),
(998,886,o),
(998,743,cs),
(998,575,o),
(869,468,o),
(695,468,cs),
(318,468,l)
);
}
);
width = 1211;
},
{
background = {
shapes = (
{
pos = (-14,-270);
ref = P;
}
);
};
layerId = "F6FF57EF-12AD-4CA4-84B8-F83D8C5A96DF";
shapes = (
{
closed = 1;
nodes = (
(397,0,l),
(453,269,l),
(756,269,ls),
(1157,269,o),
(1430,425,o),
(1430,777,cs),
(1430,1015,o),
(1302,1170,o),
(808,1170,cs),
(642,1170,l),
(699,1440,l),
(306,1440,l),
(4,0,l)
);
},
{
closed = 1;
nodes = (
(577,858,l),
(816,858,ls),
(986,858,o),
(1031,818,o),
(1031,735,cs),
(1031,622,o),
(946,581,o),
(850,581,cs),
(519,581,l)
);
}
);
width = 1420;
}
);
unicode = 222;
},
{
glyphname = Q;
kernLeft = O;
kernRight = O;
layers = (
{
layerId = "F3C0A8D3-A3E8-4ECE-8090-B83518D65089";
shapes = (
{
ref = O;
},
{
pos = (577,0);
ref = _part.Qtail;
scale = (0.96,1);
}
);
width = 1532;
},
{
background = {
shapes = (
{
closed = 1;
nodes = (
(1240,-362,l),
(1240,-82,l),
(1065,-82,ls),
(1023,-82,o),
(1015,-71,o),
(1015,-26,cs),
(1015,112,l),
(635,112,l),
(635,-75,ls),
(635,-268,o),
(734,-362,o),
(954,-362,cs)
);
}
);
};
layerId = "F6FF57EF-12AD-4CA4-84B8-F83D8C5A96DF";
shapes = (
{
ref = O;
},
{
pos = (473,0);
ref = _part.Qtail;
}
);
width = 1532;
}
);
tags = (
angular
);
unicode = 81;
userData = {
KernOnName = Q;
};
},
{
glyphname = R;
kernLeft = H;
kernRight = R;
layers = (
{
anchors = (
{
name = bottom;
pos = (503,0);
},
{
name = top;
pos = (780,1440);
}
);
layerId = "F3C0A8D3-A3E8-4ECE-8090-B83518D65089";
shapes = (
{
closed = 1;
nodes = (
(220,0,l),
(363,676,l),
(818,676,ls),
(1200,676,o),
(1283,940,o),
(1283,1098,cs),
(1283,1289,o),
(1164,1440,o),
(800,1440,cs),
(346,1440,l),
(41,0,l)
);
},
{
closed = 1;
nodes = (
(1044,0,l),
(833,728,l),
(638,728,l),
(844,0,l)
);
},
{
closed = 1;
nodes = (
(493,1289,l),
(793,1289,ls),
(1020,1289,o),
(1096,1181,o),
(1098,1070,cs),
(1100,927,o),
(982,828,o),
(810,828,cs),
(395,828,l)
);
}
);
width = 1247;
},
{
anchors = (
{
name = bottom;
pos = (624,0);
},
{
name = top;
pos = (841,1440);
}
);
background = {
shapes = (
{
closed = 1;
nodes = (
(374,0,l),
(490,549,l),
(785,549,ls),
(1163,549,o),
(1381,696,o),
(1443,994,cs),
(1506,1293,o),
(1370,1440,o),
(1033,1440,cs),
(283,1440,l),
(-19,0,l)
);
},
{
closed = 1;
nodes = (
(1273,0,l),
(981,659,l),
(549,659,l),
(832,0,l)
);
},
{
closed = 1;
nodes = (
(611,1128,l),
(926,1128,ls),
(1027,1128,o),
(1073,1080,o),
(1054,994,cs),
(1036,908,o),
(974,861,o),
(879,861,cs),
(555,861,l)
);
}
);
};
layerId = "F6FF57EF-12AD-4CA4-84B8-F83D8C5A96DF";
shapes = (
{
closed = 1;
nodes = (
(398,0,l),
(513,549,l),
(805,549,ls),
(1212,549,o),
(1480,707,o),
(1480,1049,cs),
(1480,1285,o),
(1354,1440,o),
(855,1440,cs),
(306,1440,l),
(4,0,l)
);
},
{
closed = 1;
nodes = (
(1280,0,l),
(1005,659,l),
(602,659,l),
(870,0,l)
);
},
{
closed = 1;
nodes = (
(635,1128,l),
(866,1128,ls),
(1034,1128,o),
(1082,1088,o),
(1082,1009,cs),
(1082,905,o),
(999,861,o),
(901,861,cs),
(579,861,l)
);
}
);
width = 1428;
}
);
unicode = 82;
userData = {
KernOnName = R;
};
},
{
glyphname = S;
kernLeft = S;
kernRight = S;
layers = (
{
anchors = (
{
name = bottom;
pos = (574,0);
},
{
name = top;
pos = (772,1440);
}
);
layerId = "F3C0A8D3-A3E8-4ECE-8090-B83518D65089";
shapes = (
{
closed = 1;
nodes = (
(957,-24,o),
(1098,237,o),
(1098,446,cs),
(1098,657,o),
(952,760,o),
(769,823,cs),
(646,865,ls),
(479,922,o),
(415,976,o),
(415,1075,cs),
(415,1217,o),
(546,1312,o),
(719,1312,cs),
(932,1312,o),
(1032,1167,o),
(1014,1029,c),
(1223,1074,l),
(1207,1308,o),
(1023,1464,o),
(738,1464,cs),
(420,1464,o),
(237,1270,o),
(237,1041,cs),
(237,800,o),
(439,747,o),
(552,707,cs),
(721,647,ls),
(861,597,o),
(911,535,o),
(911,433,cs),
(911,292,o),
(817,128,o),
(580,128,cs),
(356,128,o),
(217,279,o),
(256,491,c),
(38,446,l),
(52,155,o),
(264,-24,o),
(578,-24,cs)
);
}
);
width = 1205;
},
{
anchors = (
{
name = bottom;
pos = (602,0);
},
{
name = top;
pos = (844,1440);
}
);
background = {
shapes = (
{
closed = 1;
nodes = (
(894,-28,o),
(1190,132,o),
(1256,444,cs),
(1315,727,o),
(1123,840,o),
(927,874,cs),
(818,893,ls),
(688,916,o),
(584,945,o),
(600,1025,cs),
(610,1070,o),
(655,1136,o),
(801,1136,cs),
(950,1136,o),
(970,1068,o),
(971,974,c),
(1370,1057,l),
(1374,1327,o),
(1146,1468,o),
(843,1468,cs),
(498,1468,o),
(237,1286,o),
(176,999,cs),
(113,700,o),
(337,607,o),
(566,567,cs),
(669,549,ls),
(772,531,o),
(843,487,o),
(828,414,cs),
(818,368,o),
(777,304,o),
(607,304,cs),
(453,304,o),
(384,358,o),
(402,496,c),
(-6,414,l),
(-26,98,o),
(243,-28,o),
(547,-28,cs)
);
},
{
closed = 1;
nodes = (
(2094,1416,o),
(2357,1576,o),
(2357,1888,cs),
(2357,2171,o),
(2141,2284,o),
(1937,2318,cs),
(1825,2337,ls),
(1690,2360,o),
(1579,2389,o),
(1579,2469,cs),
(1579,2514,o),
(1611,2580,o),
(1757,2580,cs),
(1906,2580,o),
(1940,2512,o),
(1960,2418,c),
(2342,2501,l),
(2290,2771,o),
(2031,2912,o),
(1729,2912,cs),
(1383,2912,o),
(1161,2730,o),
(1161,2443,cs),
(1161,2144,o),
(1404,2051,o),
(1641,2011,cs),
(1748,1993,ls),
(1855,1975,o),
(1935,1931,o),
(1935,1858,cs),
(1935,1812,o),
(1908,1748,o),
(1738,1748,cs),
(1583,1748,o),
(1503,1802,o),
(1492,1940,c),
(1101,1858,l),
(1148,1542,o),
(1443,1416,o),
(1747,1416,cs)
);
}
);
};
layerId = "F6FF57EF-12AD-4CA4-84B8-F83D8C5A96DF";
shapes = (
{
closed = 1;
nodes = (
(1000,-28,o),
(1253,162,o),
(1253,442,cs),
(1253,679,o),
(1072,809,o),
(904,856,cs),
(796,886,ls),
(682,918,o),
(596,938,o),
(596,1013,cs),
(596,1056,o),
(624,1136,o),
(761,1136,cs),
(888,1136,o),
(967,1068,o),
(967,974,c),
(1359,1051,l),
(1343,1306,o),
(1049,1468,o),
(761,1468,cs),
(426,1468,o),
(175,1249,o),
(175,971,cs),
(175,737,o),
(354,634,o),
(546,584,cs),
(649,557,ls),
(770,525,o),
(828,487,o),
(828,417,cs),
(828,337,o),
(752,304,o),
(649,304,cs),
(498,304,o),
(382,375,o),
(400,496,c),
(-5,414,l),
(15,121,o),
(330,-28,o),
(645,-28,cs)
);
}
);
width = 1316;
}
);
tags = (
overshot
);
unicode = 83;
userData = {
KernOnName = S;
};
},
{
glyphname = Germandbls;
layers = (
{
background = {
shapes = (
{
closed = 0;
nodes = (
(1304,1167,l),
(1357,1402,l)
);
},
{
closed = 0;
nodes = (
(1185,1273,l)
);
}
);
};
layerId = "F3C0A8D3-A3E8-4ECE-8090-B83518D65089";
shapes = (
{
closed = 1;
nodes = (
(1101,-34,o),
(1272,195,o),
(1272,404,cs),
(1272,566,o),
(1169,752,o),
(909,795,c),
(1304,1167,l),
(1339,1322,l),
(1192,1413,o),
(1045,1464,o),
(879,1464,cs),
(545,1464,o),
(284,1261,o),
(215,933,cs),
(19,0,l),
(196,0,l),
(388,913,ls),
(439,1154,o),
(607,1295,o),
(848,1295,cs),
(951,1295,o),
(1039,1269,o),
(1128,1216,c),
(727,811,l),
(697,666,l),
(828,644,ls),
(1025,611,o),
(1086,510,o),
(1086,408,cs),
(1086,272,o),
(978,135,o),
(767,135,cs),
(677,135,o),
(581,160,o),
(487,215,c),
(449,32,l),
(537,-11,o),
(641,-34,o),
(751,-34,cs)
);
}
);
width = 1374;
},
{
background = {
shapes = (
{
closed = 1;
nodes = (
(1158,-25,o),
(1375,157,o),
(1402,415,cs),
(1421,599,o),
(1338,721,o),
(1148,785,c),
(1405,1099,l),
(1432,1357,l),
(1255,1424,o),
(1028,1468,o),
(861,1468,cs),
(428,1468,o),
(162,1248,o),
(122,865,cs),
(31,0,l),
(441,0,l),
(527,816,ls),
(547,1011,o),
(670,1125,o),
(862,1125,cs),
(905,1125,o),
(947,1120,o),
(989,1109,c),
(752,821,l),
(726,574,l),
(845,549,ls),
(940,528,o),
(982,487,o),
(975,418,cs),
(967,343,o),
(913,297,o),
(831,297,cs),
(755,297,o),
(685,317,o),
(586,368,c),
(550,31,l),
(640,-7,o),
(746,-25,o),
(878,-25,cs)
);
}
);
};
layerId = "F6FF57EF-12AD-4CA4-84B8-F83D8C5A96DF";
shapes = (
{
closed = 1;
nodes = (
(1131,-25,o),
(1348,178,o),
(1348,418,cs),
(1348,564,o),
(1268,688,o),
(1109,773,c),
(1365,1069,l),
(1423,1349,l),
(1259,1425,o),
(1089,1468,o),
(917,1468,cs),
(525,1468,o),
(239,1248,o),
(158,865,cs),
(-24,0,l),
(369,0,l),
(541,816,ls),
(582,1011,o),
(713,1125,o),
(897,1125,cs),
(933,1125,o),
(968,1121,o),
(1002,1113,c),
(758,821,l),
(706,574,l),
(788,556,ls),
(907,530,o),
(931,475,o),
(931,425,cs),
(931,352,o),
(878,297,o),
(771,297,cs),
(706,297,o),
(639,317,o),
(549,368,c),
(478,31,l),
(558,-7,o),
(668,-25,o),
(774,-25,cs)
);
}
);
width = 1414;
}
);
unicode = 7838;
},
{
glyphname = T;
kernLeft = T;
kernRight = T;
layers = (
{
anchors = (
{
name = bottom;
pos = (514,0);
},
{
name = center;
pos = (667,720);
},
{
name = top;
pos = (820,1440);
}
);
layerId = "F3C0A8D3-A3E8-4ECE-8090-B83518D65089";
shapes = (
{
closed = 1;
nodes = (
(604,0,l),
(877,1288,l),
(1372,1288,l),
(1404,1440,l),
(237,1440,l),
(205,1288,l),
(700,1288,l),
(427,0,l)
);
}
);
width = 1258;
},
{
anchors = (
{
name = bottom;
pos = (592,0);
},
{
name = center;
pos = (745,720);
},
{
name = top;
pos = (898,1440);
}
);
background = {
shapes = (
{
closed = 1;
nodes = (
(790,0,l),
(1093,1440,l),
(699,1440,l),
(396,0,l)
);
},
{
closed = 1;
nodes = (
(1506,1092,l),
(1580,1442,l),
(216,1442,l),
(142,1092,l)
);
}
);
};
layerId = "F6FF57EF-12AD-4CA4-84B8-F83D8C5A96DF";
shapes = (
{
closed = 1;
nodes = (
(790,0,l),
(1019,1090,l),
(1505,1090,l),
(1579,1440,l),
(215,1440,l),
(141,1090,l),
(625,1090,l),
(396,0,l)
);
}
);
width = 1413;
}
);
unicode = 84;
userData = {
KernOnName = T;
};
},
{
glyphname = U;
kernLeft = U;
kernRight = U;
layers = (
{
anchors = (
{
name = bottom;
pos = (556,0);
},
{
name = ogonek;
pos = (786,0);
},
{
name = top;
pos = (850,1440);
},
{
name = topright;
pos = (1516,1440);
}
);
layerId = "F3C0A8D3-A3E8-4ECE-8090-B83518D65089";
shapes = (
{
closed = 1;
nodes = (
(908,-24,o),
(1106,149,o),
(1167,438,cs),
(1379,1440,l),
(1201,1440,l),
(996,472,ls),
(950,254,o),
(807,128,o),
(602,128,cs),
(346,128,o),
(261,319,o),
(305,528,cs),
(499,1440,l),
(320,1440,l),
(125,517,ls),
(56,191,o),
(277,-24,o),
(610,-24,cs)
);
}
);
width = 1326;
},
{
anchors = (
{
name = bottom;
pos = (617,0);
},
{
name = ogonek;
pos = (909,0);
},
{
name = top;
pos = (927,1440);
},
{
name = topright;
pos = (1616,1440);
}
);
background = {
shapes = (
{
closed = 1;
nodes = (
(284,-28,o),
(727,-28,cs),
(1077,-28,o),
(1310,157,o),
(1382,499,cs),
(1564,1354,l),
(1172,1395,l),
(997,573,ls),
(960,397,o),
(874,320,o),
(732,320,cs),
(515,320,o),
(453,439,o),
(488,599,cs),
(669,1448,l),
(277,1490,l),
(95,634,ls),
(0,194,o)
);
}
);
};
layerId = "F6FF57EF-12AD-4CA4-84B8-F83D8C5A96DF";
shapes = (
{
closed = 1;
nodes = (
(1021,-28,o),
(1300,159,o),
(1371,500,cs),
(1568,1440,l),
(1173,1440,l),
(992,574,ls),
(955,398,o),
(868,322,o),
(724,322,cs),
(508,322,o),
(458,441,o),
(492,602,cs),
(668,1440,l),
(274,1440,l),
(105,639,ls),
(11,195,o),
(276,-28,o),
(719,-28,cs)
);
}
);
width = 1472;
}
);
tags = (
overshot
);
unicode = 85;
userData = {
KernOnName = U;
};
},
{
glyphname = V;
kernLeft = V;
kernRight = V;
layers = (
{
layerId = "F3C0A8D3-A3E8-4ECE-8090-B83518D65089";
shapes = (
{
closed = 1;
nodes = (
(651,0,l),
(1477,1440,l),
(1272,1440,l),
(551,127,l),
(588,127,l),
(413,1440,l),
(234,1440,l),
(456,0,l)
);
}
);
width = 1328;
},
{
background = {
shapes = (
{
closed = 1;
nodes = (
(1033,0,l),
(1480,1440,l),
(1056,1440,l),
(751,249,l),
(773,249,l),
(470,1440,l),
(46,1440,l),
(495,0,l)
);
}
);
};
guides = (
{
pos = (858,291);
}
);
layerId = "F6FF57EF-12AD-4CA4-84B8-F83D8C5A96DF";
shapes = (
{
closed = 1;
nodes = (
(881,0,l),
(1631,1440,l),
(1175,1440,l),
(626,249,l),
(663,249,l),
(605,1440,l),
(197,1440,l),
(344,0,l)
);
}
);
width = 1446;
}
);
unicode = 86;
userData = {
KernOnName = V;
};
},
{
glyphname = W;
kernLeft = W;
kernRight = W;
layers = (
{
anchors = (
{
name = bottom;
pos = (794,0);
},
{
name = top;
pos = (1100,1440);
}
);
layerId = "F3C0A8D3-A3E8-4ECE-8090-B83518D65089";
shapes = (
{
closed = 1;
nodes = (
(494,0,l),
(1102,1302,l),
(1061,1302,l),
(1120,0,l),
(1381,0,l),
(1973,1440,l),
(1791,1440,l),
(1271,137,l),
(1275,137,l),
(1202,1440,l),
(1004,1440,l),
(383,137,l),
(387,137,l),
(417,1440,l),
(247,1440,l),
(231,0,l)
);
}
);
width = 1838;
},
{
anchors = (
{
name = bottom;
pos = (915,0);
},
{
name = top;
pos = (1204,1440);
}
);
background = {
shapes = (
{
closed = 1;
nodes = (
(733,0,l),
(1131,916,l),
(1112,916,l),
(1124,0,l),
(1604,0,l),
(2260,1440,l),
(1822,1440,l),
(1378,209,l),
(1433,209,l),
(1456,1440,l),
(996,1440,l),
(522,209,l),
(576,209,l),
(630,1440,l),
(201,1440,l),
(252,0,l)
);
}
);
};
guides = (
{
pos = (795,291);
}
);
layerId = "F6FF57EF-12AD-4CA4-84B8-F83D8C5A96DF";
shapes = (
{
closed = 1;
nodes = (
(772,0,l),
(1179,1096,l),
(1159,1096,l),
(1105,0,l),
(1627,0,l),
(2263,1440,l),
(1827,1440,l),
(1373,209,l),
(1428,209,l),
(1480,1440,l),
(982,1440,l),
(517,209,l),
(571,209,l),
(635,1440,l),
(204,1440,l),
(236,0,l)
);
}
);
width = 2085;
}
);
unicode = 87;
userData = {
KernOnName = W;
};
},
{
glyphname = X;
kernLeft = X;
kernRight = X;
layers = (
{
background = {
shapes = (
{
closed = 1;
nodes = (
(625,983,l),
(428,1440,l),
(237,1440,l),
(494,887,l)
);
},
{
closed = 1;
nodes = (
(592,762,l),
(-72,0,l),
(154,0,l),
(670,602,l),
(930,0,l),
(1131,0,l),
(789,741,l),
(1420,1440,l),
(1201,1440,l),
(709,881,l)
);
}
);
};
layerId = "F3C0A8D3-A3E8-4ECE-8090-B83518D65089";
shapes = (
{
closed = 1;
nodes = (
(154,0,l),
(670,602,l),
(930,0,l),
(1131,0,l),
(789,741,l),
(1420,1440,l),
(1201,1440,l),
(682,852,l),
(428,1440,l),
(237,1440,l),
(566,733,l),
(-72,0,l)
);
}
);
width = 1288;
},
{
background = {
shapes = (
{
closed = 1;
nodes = (
(821,1100,l),
(656,1440,l),
(192,1440,l),
(513,863,l)
);
},
{
closed = 1;
nodes = (
(553,863,l),
(605,769,l),
(-92,0,l),
(453,0,l),
(816,449,l),
(1032,0,l),
(1497,0,l),
(1111,696,l),
(1784,1440,l),
(1242,1440,l),
(902,1016,l),
(861,1100,l)
);
}
);
};
layerId = "F6FF57EF-12AD-4CA4-84B8-F83D8C5A96DF";
shapes = (
{
closed = 1;
nodes = (
(453,0,l),
(816,449,l),
(1032,0,l),
(1497,0,l),
(1111,696,l),
(1784,1440,l),
(1242,1440,l),
(877,985,l),
(656,1440,l),
(192,1440,l),
(580,742,l),
(-92,0,l)
);
}
);
width = 1614;
}
);
unicode = 88;
userData = {
KernOnName = X;
};
},
{
glyphname = Y;
kernLeft = Y;
kernRight = Y;
layers = (
{
anchors = (
{
name = bottom;
pos = (475,0);
},
{
name = top;
pos = (771,1440);
},
{
name = topleft;
pos = (239,1440);
}
);
layerId = "F3C0A8D3-A3E8-4ECE-8090-B83518D65089";
shapes = (
{
closed = 1;
nodes = (
(577,0,l),
(700,577,l),
(1373,1440,l),
(1167,1440,l),
(595,696,l),
(664,685,l),
(400,1440,l),
(228,1440,l),
(528,610,l),
(399,0,l)
);
}
);
width = 1219;
},
{
anchors = (
{
name = bottom;
pos = (553,0);
},
{
name = top;
pos = (812,1440);
},
{
name = topleft;
pos = (233,1440);
}
);
background = {
shapes = (
{
closed = 1;
nodes = (
(907,0,l),
(907,501,l),
(1377,1440,l),
(962,1440,l),
(688,772,l),
(726,771,l),
(454,1440,l),
(39,1440,l),
(513,497,l),
(513,0,l)
);
}
);
};
layerId = "F6FF57EF-12AD-4CA4-84B8-F83D8C5A96DF";
shapes = (
{
closed = 1;
nodes = (
(742,0,l),
(842,475,l),
(1528,1440,l),
(1077,1440,l),
(617,669,l),
(738,649,l),
(577,1440,l),
(190,1440,l),
(459,523,l),
(349,0,l)
);
}
);
width = 1336;
}
);
unicode = 89;
userData = {
KernOnName = Y;
};
},
{
glyphname = Z;
kernLeft = Z;
kernRight = Z;
layers = (
{
anchors = (
{
name = bottom;
pos = (469,0);
},
{
name = center;
pos = (622,720);
},
{
name = top;
pos = (757,1440);
}
);
layerId = "F3C0A8D3-A3E8-4ECE-8090-B83518D65089";
name = "400";
shapes = (
{
closed = 1;
nodes = (
(992,0,l),
(1024,158,l),
(218,158,l),
(1268,1317,l),
(1295,1440,l),
(276,1440,l),
(243,1282,l),
(1024,1282,l),
(-29,120,l),
(-55,0,l)
);
}
);
width = 1172;
},
{
anchors = (
{
name = bottom;
pos = (539,0);
},
{
name = center;
pos = (692,720);
},
{
name = top;
pos = (825,1440);
}
);
background = {
shapes = (
{
closed = 1;
nodes = (
(1298,-4,l),
(1298,346,l),
(591,346,l),
(1264,1187,l),
(1264,1436,l),
(136,1436,l),
(136,1086,l),
(762,1086,l),
(82,240,l),
(82,-4,l)
);
}
);
};
layerId = "F6FF57EF-12AD-4CA4-84B8-F83D8C5A96DF";
shapes = (
{
closed = 1;
nodes = (
(1146,-4,l),
(1220,346,l),
(543,346,l),
(1363,1187,l),
(1415,1436,l),
(261,1436,l),
(188,1086,l),
(803,1086,l),
(-18,240,l),
(-69,-4,l)
);
}
);
width = 1307;
}
);
unicode = 90;
userData = {
KernOnName = Z;
};
},
{
glyphname = a;
kernLeft = a;
kernRight = a;
layers = (
{
anchors = (
{
name = bottom;
pos = (443,0);
},
{
name = ogonek;
pos = (1017,0);
},
{
name = top;
pos = (667,1080);
}
);
attr = {
axisRules = (
{
}
);
};
background = {
shapes = (
{
closed = 1;
nodes = (
(537,-30,o),
(679,96,o),
(744,202,c),
(719,205,l),
(703,129,ls),
(685,43,o),
(740,-27,o),
(829,-37,cs),
(934,-48,l),
(964,91,l),
(904,98,ls),
(862,102,o),
(857,114,o),
(866,158,cs),
(969,648,ls),
(1024,908,o),
(946,1073,o),
(688,1101,cs),
(438,1127,o),
(239,1004,o),
(185,833,c),
(362,770,l),
(395,902,o),
(497,979,o),
(647,963,cs),
(806,946,o),
(849,844,o),
(813,672,cs),
(801,613,l),
(822,629,l),
(645,648,ls),
(277,687,o),
(79,539,o),
(39,346,cs),
(1,164,o),
(106,16,o),
(320,-7,cs)
);
},
{
closed = 1;
nodes = (
(250,143,o),
(200,230,o),
(221,331,cs),
(242,431,o),
(350,545,o),
(612,517,cs),
(778,499,l),
(776,491,ls),
(717,212,o),
(548,111,o),
(386,128,cs)
);
}
);
};
layerId = "F3C0A8D3-A3E8-4ECE-8090-B83518D65089";
name = "Regular Italic";
shapes = (
{
closed = 1;
nodes = (
(583,-24,o),
(722,47,o),
(823,210,c),
(782,218,l),
(772,169,ls),
(752,71,o),
(816,0,o),
(922,0,cs),
(1017,0,l),
(1046,143,l),
(979,143,ls),
(939,143,o),
(935,159,o),
(943,198,cs),
(1130,1080,l),
(973,1080,l),
(920,835,l),
(932,859,l),
(895,1011,o),
(747,1104,o),
(582,1104,cs),
(241,1104,o),
(69,702,o),
(69,416,cs),
(69,164,o),
(202,-24,o),
(438,-24,cs)
);
},
{
closed = 1;
nodes = (
(344,119,o),
(252,214,o),
(252,413,cs),
(252,628,o),
(360,961,o),
(618,961,cs),
(761,961,o),
(871,858,o),
(871,656,cs),
(871,457,o),
(762,119,o),
(489,119,cs)
);
}
);
width = 1198;
},
{
anchors = (
{
name = bottom;
pos = (584,0);
},
{
name = ogonek;
pos = (1197,0);
},
{
name = top;
pos = (743,1080);
}
);
attr = {
axisRules = (
{
}
);
};
background = {
shapes = (
{
closed = 1;
nodes = (
(621,-27,o),
(717,145,o),
(765,253,c),
(695,285,l),
(683,231,o),
(680,208,o),
(680,187,cs),
(680,76,o),
(756,0,o),
(935,0,cs),
(1098,0,l),
(1154,278,l),
(1117,278,ls),
(1070,278,o),
(1074,309,o),
(1081,343,cs),
(1122,541,ls),
(1201,922,o),
(1057,1102,o),
(636,1102,cs),
(367,1102,o),
(219,982,o),
(133,782,c),
(513,723,l),
(548,813,o),
(590,855,o),
(658,855,cs),
(777,855,o),
(781,770,o),
(762,677,cs),
(749,612,l),
(773,658,l),
(649,658,ls),
(311,658,o),
(-3,605,o),
(-3,275,cs),
(-3,64,o),
(191,-27,o),
(378,-27,cs)
);
},
{
closed = 1;
nodes = (
(455,224,o),
(396,248,o),
(396,316,cs),
(396,431,o),
(495,453,o),
(630,453,cs),
(721,453,l),
(711,409,ls),
(685,296,o),
(621,224,o),
(520,224,cs)
);
}
);
};
layerId = "F6FF57EF-12AD-4CA4-84B8-F83D8C5A96DF";
name = "Black Italic";
shapes = (
{
closed = 1;
nodes = (
(616,-28,o),
(773,65,o),
(846,257,c),
(804,346,l),
(798,316,ls),
(757,112,o),
(847,0,o),
(1051,0,c),
(1197,0,l),
(1256,280,l),
(1191,280,ls),
(1151,280,o),
(1147,292,o),
(1156,336,cs),
(1313,1080,l),
(929,1080,l),
(885,872,l),
(921,869,l),
(885,1018,o),
(786,1108,o),
(594,1108,cs),
(167,1108,o),
(48,660,o),
(48,401,cs),
(48,129,o),
(180,-28,o),
(426,-28,cs)
);
},
{
closed = 1;
nodes = (
(507,269,o),
(456,336,o),
(456,448,cs),
(456,573,o),
(520,813,o),
(689,813,cs),
(780,813,o),
(841,743,o),
(841,618,cs),
(841,487,o),
(773,269,o),
(602,269,cs)
);
}
);
width = 1351;
}
);
tags = (
angular,
overshot
);
unicode = 97;
userData = {
KernOnName = a;
};
},
{
glyphname = ae;
kernLeft = ae;
kernRight = e;
layers = (
{
anchors = (
{
name = bottom;
pos = (745,0);
},
{
name = top;
pos = (975,1080);
}
);
background = {
shapes = (
{
closed = 1;
nodes = (
(562,-24,o),
(726,90,o),
(797,213,c),
(835,86,o),
(979,-24,o),
(1177,-24,cs),
(1357,-24,o),
(1522,68,o),
(1632,275,c),
(1464,332,l),
(1393,185,o),
(1306,119,o),
(1184,119,cs),
(1027,119,o),
(939,228,o),
(939,408,cs),
(939,435,o),
(941,466,o),
(946,499,c),
(1676,499,l),
(1689,557,o),
(1695,616,o),
(1695,670,cs),
(1695,901,o),
(1585,1104,o),
(1319,1104,cs),
(1180,1104,o),
(1061,1049,o),
(953,917,c),
(923,1040,o),
(811,1104,o),
(648,1104,cs),
(403,1104,o),
(223,962,o),
(168,788,c),
(344,745,l),
(380,882,o),
(461,964,o),
(613,964,cs),
(751,964,o),
(832,897,o),
(832,771,cs),
(832,747,o),
(829,723,o),
(823,695,cs),
(813,650,l),
(579,650,ls),
(285,650,o),
(27,489,o),
(27,244,cs),
(27,69,o),
(159,-24,o),
(350,-24,cs)
);
},
{
closed = 1;
nodes = (
(293,116,o),
(212,171,o),
(212,274,cs),
(212,402,o),
(338,518,o),
(555,518,cs),
(782,518,l),
(771,474,ls),
(712,237,o),
(582,116,o),
(409,116,cs)
);
},
{
closed = 1;
nodes = (
(1039,848,o),
(1155,962,o),
(1301,962,cs),
(1479,962,o),
(1524,808,o),
(1515,638,c),
(974,638,l)
);
}
);
};
layerId = "F3C0A8D3-A3E8-4ECE-8090-B83518D65089";
shapes = (
{
closed = 1;
nodes = (
(584,-24,o),
(759,114,o),
(816,251,c),
(788,257,l),
(803,112,o),
(957,-24,o),
(1177,-24,cs),
(1357,-24,o),
(1522,68,o),
(1632,275,c),
(1464,332,l),
(1393,185,o),
(1306,119,o),
(1184,119,cs),
(938,119,o),
(913,375,o),
(956,550,c),
(865,499,l),
(1676,499,l),
(1739,779,o),
(1655,1104,o),
(1319,1104,cs),
(1162,1104,o),
(1031,1034,o),
(912,863,c),
(961,862,l),
(953,1021,o),
(834,1104,o),
(648,1104,cs),
(403,1104,o),
(223,962,o),
(168,788,c),
(344,745,l),
(380,882,o),
(461,964,o),
(613,964,cs),
(802,964,o),
(855,843,o),
(823,695,cs),
(813,650,l),
(579,650,ls),
(285,650,o),
(27,489,o),
(27,244,cs),
(27,69,o),
(159,-24,o),
(350,-24,cs)
);
},
{
closed = 1;
nodes = (
(293,116,o),
(212,171,o),
(212,274,cs),
(212,402,o),
(338,518,o),
(555,518,cs),
(863,518,l),
(802,597,l),
(771,474,ls),
(712,237,o),
(582,116,o),
(409,116,cs)
);
},
{
closed = 1;
nodes = (
(1039,848,o),
(1155,962,o),
(1301,962,cs),
(1479,962,o),
(1524,808,o),
(1515,638,c),
(974,638,l)
);
}
);
width = 1776;
},
{
anchors = (
{
name = bottom;
pos = (787,0);
},
{
name = top;
pos = (997,1080);
}
);
background = {
shapes = (
{
closed = 1;
nodes = (
(628,-28,o),
(775,74,o),
(953,288,c),
(829,300,l),
(841,79,o),
(1054,-28,o),
(1263,-28,cs),
(1480,-28,o),
(1676,86,o),
(1773,303,c),
(1443,389,l),
(1391,293,o),
(1335,255,o),
(1268,255,cs),
(1186,255,o),
(1134,315,o),
(1134,422,cs),
(1134,471,o),
(1148,548,o),
(1176,547,c),
(959,465,l),
(1801,465,l),
(1818,524,o),
(1826,584,o),
(1826,641,cs),
(1826,894,o),
(1668,1108,o),
(1380,1108,cs),
(1255,1108,o),
(1115,1068,o),
(995,934,c),
(926,1060,o),
(823,1108,o),
(653,1108,cs),
(327,1108,o),
(168,933,o),
(107,785,c),
(473,725,l),
(517,812,o),
(560,865,o),
(641,865,cs),
(715,865,o),
(768,821,o),
(768,743,cs),
(768,728,o),
(766,712,o),
(763,699,cs),
(758,677,l),
(660,677,ls),
(322,677,o),
(-3,552,o),
(-3,264,cs),
(-3,44,o),
(186,-28,o),
(388,-28,cs)
);
},
{
closed = 1;
nodes = (
(420,226,o),
(396,273,o),
(396,314,cs),
(396,372,o),
(445,473,o),
(642,473,cs),
(720,473,l),
(712,430,ls),
(689,308,o),
(615,226,o),
(504,226,cs)
);
},
{
closed = 1;
nodes = (
(1195,760,o),
(1255,845,o),
(1343,845,cs),
(1412,845,o),
(1462,793,o),
(1459,661,c),
(1159,661,l)
);
}
);
};
layerId = "F6FF57EF-12AD-4CA4-84B8-F83D8C5A96DF";
shapes = (
{
closed = 1;
nodes = (
(628,-28,o),
(775,74,o),
(953,288,c),
(829,300,l),
(841,79,o),
(1054,-28,o),
(1263,-28,cs),
(1480,-28,o),
(1676,86,o),
(1773,303,c),
(1443,389,l),
(1391,293,o),
(1335,255,o),
(1268,255,cs),
(1084,255,o),
(1127,548,o),
(1176,547,c),
(959,465,l),
(1801,465,l),
(1889,771,o),
(1744,1108,o),
(1380,1108,cs),
(1221,1108,o),
(1038,1043,o),
(902,803,c),
(1047,803,l),
(980,1028,o),
(873,1108,o),
(653,1108,cs),
(327,1108,o),
(168,933,o),
(107,785,c),
(473,725,l),
(517,812,o),
(560,865,o),
(641,865,cs),
(753,865,o),
(780,774,o),
(763,699,cs),
(758,677,l),
(660,677,ls),
(322,677,o),
(-3,552,o),
(-3,264,cs),
(-3,44,o),
(186,-28,o),
(388,-28,cs)
);
},
{
closed = 1;
nodes = (
(420,226,o),
(396,273,o),
(396,314,cs),
(396,372,o),
(445,473,o),
(642,473,cs),
(898,473,l),
(753,648,l),
(712,430,ls),
(689,308,o),
(615,226,o),
(504,226,cs)
);
},
{
closed = 1;
nodes = (
(1195,760,o),
(1255,845,o),
(1343,845,cs),
(1412,845,o),
(1462,793,o),
(1459,661,c),
(1159,661,l)
);
}
);
width = 1872;
}
);
unicode = 230;
},
{
glyphname = b;
kernLeft = h;
kernRight = p;
layers = (
{
background = {
shapes = (
{
closed = 1;
nodes = (
(788,-48,o),
(1011,147,o),
(1083,487,cs),
(1156,827,o),
(1025,1061,o),
(769,1088,cs),
(620,1104,o),
(457,1045,o),
(366,896,c),
(378,879,l),
(425,1100,l),
(261,1118,l),
(35,55,l),
(189,39,l),
(234,252,l),
(224,245,l),
(258,72,o),
(396,-7,o),
(533,-21,cs)
);
},
{
closed = 1;
nodes = (
(353,139,o),
(247,288,o),
(308,573,cs),
(369,861,o),
(532,972,o),
(697,955,cs),
(876,936,o),
(961,773,o),
(905,510,cs),
(847,239,o),
(692,103,o),
(517,121,cs)
);
}
);
};
layerId = "F3C0A8D3-A3E8-4ECE-8090-B83518D65089";
shapes = (
{
closed = 1;
nodes = (
(937,-24,o),
(1106,378,o),
(1106,668,cs),
(1106,926,o),
(972,1104,o),
(744,1104,cs),
(600,1104,o),
(468,1032,o),
(380,891,c),
(393,875,l),
(525,1500,l),
(359,1500,l),
(41,0,l),
(199,0,l),
(250,246,l),
(227,245,l),
(259,78,o),
(396,-24,o),
(577,-24,cs)
);
},
{
closed = 1;
nodes = (
(393,119,o),
(294,230,o),
(294,423,cs),
(294,636,o),
(414,961,o),
(680,961,cs),
(840,961,o),
(922,843,o),
(922,665,cs),
(922,455,o),
(807,119,o),
(544,119,cs)
);
}
);
width = 1173;
},
{
background = {
shapes = (
{
closed = 1;
nodes = (
(571,-21,o),
(760,-21,cs),
(1138,-21,o),
(1277,416,o),
(1277,694,cs),
(1277,952,o),
(1139,1101,o),
(902,1101,cs),
(775,1101,o),
(667,1046,o),
(565,915,c),
(583,898,l),
(628,1104,l),
(246,1144,l),
(20,82,l),
(382,44,l),
(426,250,l),
(408,254,l),
(460,57,o)
);
},
{
closed = 1;
nodes = (
(543,285,o),
(482,352,o),
(482,475,cs),
(482,603,o),
(551,828,o),
(716,828,cs),
(816,828,o),
(868,762,o),
(868,649,cs),
(868,526,o),
(803,285,o),
(637,285,cs)
);
}
);
};
layerId = "F6FF57EF-12AD-4CA4-84B8-F83D8C5A96DF";
name = "800";
shapes = (
{
closed = 1;
nodes = (
(1141,-28,o),
(1277,418,o),
(1277,684,cs),
(1277,955,o),
(1136,1108,o),
(908,1108,cs),
(774,1108,o),
(656,1055,o),
(546,890,c),
(579,870,l),
(712,1500,l),
(319,1500,l),
(3,0,l),
(374,0,l),
(426,250,l),
(408,254,l),
(458,58,o),
(576,-28,o),
(748,-28,cs)
);
},
{
closed = 1;
nodes = (
(543,285,o),
(482,351,o),
(482,475,cs),
(482,603,o),
(548,828,o),
(721,828,cs),
(814,828,o),
(868,763,o),
(868,649,cs),
(868,526,o),
(806,285,o),
(633,285,cs)
);
}
);
width = 1306;
}
);
tags = (
overshot
);
unicode = 98;
},
{
glyphname = c;
kernLeft = e;
kernRight = c;
layers = (
{
anchors = (
{
name = bottom;
pos = (492,0);
},
{
name = top;
pos = (624,1080);
}
);
layerId = "F3C0A8D3-A3E8-4ECE-8090-B83518D65089";
shapes = (
{
closed = 1;
nodes = (
(710,-24,o),
(887,86,o),
(991,324,c),
(820,374,l),
(756,202,o),
(648,119,o),
(524,119,cs),
(358,119,o),
(264,228,o),
(264,409,cs),
(264,606,o),
(364,961,o),
(633,961,cs),
(793,961,o),
(883,850,o),
(882,700,c),
(1053,747,l),
(1041,964,o),
(871,1104,o),
(640,1104,cs),
(257,1104,o),
(84,706,o),
(84,416,cs),
(84,129,o),
(274,-24,o),
(517,-24,cs)
);
}
);
width = 1103;
},
{
anchors = (
{
name = bottom;
pos = (516,0);
},
{
name = top;
pos = (694,1080);
}
);
background = {
shapes = (
{
pos = (26,0);
ref = o;
}
);
};
layerId = "F6FF57EF-12AD-4CA4-84B8-F83D8C5A96DF";
shapes = (
{
closed = 1;
nodes = (
(783,-28,o),
(1036,65,o),
(1135,367,c),
(793,426,l),
(739,304,o),
(674,255,o),
(589,255,cs),
(486,255,o),
(442,328,o),
(442,435,cs),
(442,563,o),
(504,826,o),
(679,826,cs),
(792,826,o),
(829,715,o),
(821,621,c),
(1186,691,l),
(1179,937,o),
(959,1108,o),
(675,1108,cs),
(294,1108,o),
(45,800,o),
(45,467,cs),
(45,154,o),
(266,-28,o),
(567,-28,cs)
);
}
);
width = 1205;
}
);
tags = (
overshot
);
unicode = 99;
userData = {
KernOnName = c;
};
},
{
glyphname = d;
kernLeft = d;
kernRight = d;
layers = (
{
anchors = (
{
name = bottom;
pos = (472,0);
},
{
name = center;
pos = (1013,720);
},
{
name = centerExt;
pos = (1531,720);
},
{
name = top;
pos = (882,1950);
},
{
name = topright;
pos = (1467,1950);
}
);
attr = {
axisRules = (
{
}
);
};
background = {
shapes = (
{
closed = 1;
nodes = (
(165,1108,o),
(29,662,o),
(29,396,cs),
(29,125,o),
(170,-28,o),
(398,-28,cs),
(532,-28,o),
(650,25,o),
(760,190,c),
(727,210,l),
(594,-420,l),
(987,-420,l),
(1303,1080,l),
(932,1080,l),
(880,830,l),
(898,826,l),
(848,1022,o),
(730,1108,o),
(558,1108,cs)
);
},
{
closed = 1;
nodes = (
(763,795,o),
(824,729,o),
(824,605,cs),
(824,477,o),
(758,252,o),
(585,252,cs),
(492,252,o),
(438,317,o),
(438,431,cs),
(438,554,o),
(500,795,o),
(673,795,cs)
);
}
);
};
layerId = "F6FF57EF-12AD-4CA4-84B8-F83D8C5A96DF";
name = "Black Italic";
shapes = (
{
closed = 1;
nodes = (
(615,-28,o),
(771,64,o),
(846,257,c),
(804,346,l),
(798,316,ls),
(757,112,o),
(847,0,o),
(1050,0,c),
(1196,0,l),
(1255,280,l),
(1190,280,ls),
(1150,280,o),
(1146,292,o),
(1155,336,cs),
(1399,1500,l),
(1015,1500,l),
(883,872,l),
(919,869,l),
(883,1018,o),
(784,1108,o),
(592,1108,cs),
(165,1108,o),
(48,660,o),
(48,400,cs),
(48,129,o),
(180,-28,o),
(424,-28,cs)
);
},
{
closed = 1;
nodes = (
(505,269,o),
(454,336,o),
(454,448,cs),
(454,573,o),
(518,813,o),
(687,813,cs),
(778,813,o),
(839,743,o),
(839,618,cs),
(839,487,o),
(771,269,o),
(600,269,cs)
);
}
);
width = 1350;
},
{
anchors = (
{
name = bottom;
pos = (457,0);
},
{
name = center;
pos = (926,720);
},
{
name = centerExt;
pos = (1320,720);
},
{
name = top;
pos = (867,1950);
},
{
name = topright;
pos = (1452,1950);
}
);
background = {
shapes = (
{
closed = 1;
nodes = (
(903,-1,l),
(1132,1080,l),
(974,1080,l),
(923,834,l),
(946,835,l),
(914,1002,o),
(777,1104,o),
(596,1104,cs),
(236,1104,o),
(67,702,o),
(67,412,cs),
(67,154,o),
(201,-24,o),
(429,-24,cs),
(573,-24,o),
(705,48,o),
(793,189,c),
(780,205,l),
(737,-1,l)
);
},
{
closed = 1;
nodes = (
(780,961,o),
(879,850,o),
(879,657,cs),
(879,444,o),
(759,119,o),
(493,119,cs),
(333,119,o),
(251,237,o),
(251,415,cs),
(251,625,o),
(366,961,o),
(629,961,cs)
);
}
);
};
layerId = "F3C0A8D3-A3E8-4ECE-8090-B83518D65089";
name = "Regular Italic";
shapes = (
{
closed = 1;
nodes = (
(579,-24,o),
(712,47,o),
(812,210,c),
(781,222,l),
(776,203,ls),
(742,73,o),
(815,0,o),
(921,0,c),
(1018,0,l),
(1048,147,l),
(979,147,ls),
(943,147,o),
(934,160,o),
(943,201,cs),
(1218,1500,l),
(1051,1500,l),
(911,835,l),
(931,859,l),
(894,1011,o),
(746,1104,o),
(581,1104,cs),
(240,1104,o),
(68,702,o),
(68,417,cs),
(68,164,o),
(202,-24,o),
(433,-24,cs)
);
},
{
closed = 1;
nodes = (
(343,119,o),
(251,214,o),
(251,413,cs),
(251,628,o),
(359,961,o),
(617,961,cs),
(760,961,o),
(870,858,o),
(870,656,cs),
(870,457,o),
(761,119,o),
(487,119,cs)
);
}
);
width = 1259;
}
);
metricLeft = d;
tags = (
overshot
);
unicode = 100;
userData = {
KernOnName = d;
};
},
{
glyphname = eth;
kernRight = p;
layers = (
{
background = {
shapes = (
{
closed = 1;
nodes = (
(836,-23,o),
(1085,309,o),
(1085,738,cs),
(1085,1177,o),
(825,1413,o),
(511,1537,c),
(449,1439,l),
(704,1321,o),
(904,1157,o),
(933,845,c),
(952,829,l),
(929,939,o),
(847,1059,o),
(632,1059,cs),
(286,1059,o),
(62,750,o),
(62,430,cs),
(62,145,o),
(240,-23,o),
(488,-23,cs)
);
},
{
closed = 1;
nodes = (
(340,119,o),
(243,233,o),
(242,420,cs),
(241,618,o),
(353,917,o),
(624,917,cs),
(792,917,o),
(900,802,o),
(900,619,cs),
(900,419,o),
(772,119,o),
(505,119,cs)
);
},
{
closed = 1;
nodes = (
(1057,1444,l),
(1001,1540,l),
(387,1189,l),
(443,1093,l)
);
}
);
};
layerId = "F3C0A8D3-A3E8-4ECE-8090-B83518D65089";
shapes = (
{
closed = 1;
nodes = (
(836,-23,o),
(1085,309,o),
(1085,738,cs),
(1085,1177,o),
(825,1413,o),
(511,1537,c),
(449,1439,l),
(704,1321,o),
(904,1157,o),
(933,845,c),
(952,829,l),
(929,939,o),
(847,1059,o),
(632,1059,cs),
(286,1059,o),
(62,750,o),
(62,430,cs),
(62,145,o),
(240,-23,o),
(488,-23,cs)
);
},
{
closed = 1;
nodes = (
(340,119,o),
(243,233,o),
(242,420,cs),
(241,618,o),
(353,917,o),
(624,917,cs),
(792,917,o),
(900,802,o),
(900,619,cs),
(900,419,o),
(772,119,o),
(505,119,cs)
);
},
{
closed = 1;
nodes = (
(1072,1423,l),
(1018,1543,l),
(388,1193,l),
(443,1073,l)
);
}
);
width = 1145;
},
{
layerId = "F6FF57EF-12AD-4CA4-84B8-F83D8C5A96DF";
shapes = (
{
closed = 1;
nodes = (
(876,-26,o),
(1122,213,o),
(1122,631,cs),
(1122,1164,o),
(722,1467,o),
(452,1562,c),
(364,1396,l),
(494,1333,o),
(803,1185,o),
(841,820,c),
(856,834,l),
(848,924,o),
(755,1020,o),
(568,1020,cs),
(251,1020,o),
(19,743,o),
(19,438,cs),
(19,142,o),
(238,-26,o),
(529,-26,cs)
);
},
{
closed = 1;
nodes = (
(456,252,o),
(412,311,o),
(412,409,cs),
(412,525,o),
(475,743,o),
(613,743,cs),
(685,743,o),
(728,684,o),
(728,587,cs),
(728,472,o),
(667,252,o),
(529,252,cs)
);
},
{
closed = 1;
nodes = (
(1103,1364,l),
(1006,1540,l),
(301,1191,l),
(398,1015,l)
);
}
);
width = 1158;
}
);
unicode = 240;
userData = {
RMXScaler = {
source = o;
};
};
},
{
glyphname = e;
kernLeft = e;
kernRight = e;
layers = (
{
anchors = (
{
name = bottom;
pos = (482,0);
},
{
name = ogonek;
pos = (686,0);
},
{
name = top;
pos = (640,1080);
}
);
layerId = "F3C0A8D3-A3E8-4ECE-8090-B83518D65089";
shapes = (
{
closed = 1;
nodes = (
(726,-24,o),
(900,68,o),
(1016,275,c),
(844,332,l),
(770,185,o),
(674,119,o),
(539,119,cs),
(364,119,o),
(264,230,o),
(264,421,cs),
(264,617,o),
(368,962,o),
(651,962,cs),
(871,962,o),
(922,755,o),
(884,574,c),
(942,637,l),
(236,637,l),
(209,499,l),
(1059,499,l),
(1121,787,o),
(1031,1104,o),
(663,1104,cs),
(252,1104,o),
(83,708,o),
(83,429,cs),
(83,128,o),
(280,-24,o),
(531,-24,cs)
);
}
);
width = 1158;
},
{
anchors = (
{
name = bottom;
pos = (589,0);
},
{
name = ogonek;
pos = (775,0);
},
{
name = top;
pos = (677,1080);
}
);
background = {
shapes = (
{
pos = (25,0);
ref = c;
}
);
};
layerId = "F6FF57EF-12AD-4CA4-84B8-F83D8C5A96DF";
shapes = (
{
closed = 1;
nodes = (
(815,-28,o),
(1013,78,o),
(1119,301,c),
(786,389,l),
(730,289,o),
(668,255,o),
(595,255,cs),
(488,255,o),
(440,327,o),
(440,438,cs),
(440,564,o),
(502,845,o),
(684,845,cs),
(816,845,o),
(826,698,o),
(817,616,c),
(844,661,l),
(331,661,l),
(290,465,l),
(1148,465,l),
(1233,784,o),
(1092,1108,o),
(685,1108,cs),
(289,1108,o),
(46,801,o),
(46,469,cs),
(46,154,o),
(264,-28,o),
(577,-28,cs)
);
}
);
width = 1218;
}
);
tags = (
overshot
);
unicode = 101;
userData = {
KernOnName = e;
};
},
{
glyphname = f;
kernLeft = f;
kernRight = f;
layers = (
{
attr = {
axisRules = (
{
}
);
};
background = {
shapes = (
{
closed = 1;
nodes = (
(258,6,l),
(534,1307,ls),
(541,1342,o),
(557,1357,o),
(587,1357,cs),
(748,1357,l),
(777,1500,l),
(595,1500,ls),
(462,1500,o),
(396,1441,o),
(366,1298,cs),
(92,6,l)
);
},
{
closed = 1;
nodes = (
(685,937,l),
(714,1080,l),
(164,1080,l),
(134,937,l)
);
}
);
};
layerId = "F3C0A8D3-A3E8-4ECE-8090-B83518D65089";
name = "Regular Italic";
shapes = (
{
closed = 1;
nodes = (
(-13,-390,ls),
(121,-390,o),
(187,-331,o),
(217,-188,cs),
(534,1307,ls),
(541,1342,o),
(557,1357,o),
(587,1357,cs),
(748,1357,l),
(777,1500,l),
(595,1500,ls),
(462,1500,o),
(396,1441,o),
(366,1298,cs),
(49,-197,ls),
(41,-233,o),
(26,-247,o),
(-4,-247,cs),
(-167,-247,l),
(-197,-390,l)
);
},
{
closed = 1;
nodes = (
(685,937,l),
(714,1080,l),
(164,1080,l),
(134,937,l)
);
}
);
width = 667;
},
{
attr = {
axisRules = (
{
}
);
};
background = {
shapes = (
{
closed = 1;
nodes = (
(339,-390,l),
(666,1169,ls),
(674,1207,o),
(683,1220,o),
(712,1220,cs),
(864,1220,l),
(923,1500,l),
(599,1500,ls),
(429,1500,o),
(334,1417,o),
(298,1247,cs),
(-45,-390,l)
);
},
{
closed = 1;
nodes = (
(754,800,l),
(813,1080,l),
(140,1080,l),
(81,800,l)
);
},
{
closed = 1;
nodes = (
(736,-1030,l),
(707,-1169,ls),
(699,-1207,o),
(690,-1220,o),
(661,-1220,cs),
(509,-1220,l),
(450,-1500,l),
(774,-1500,ls),
(944,-1500,o),
(1040,-1417,o),
(1075,-1247,cs),
(1120,-1030,l)
);
}
);
};
layerId = "F6FF57EF-12AD-4CA4-84B8-F83D8C5A96DF";
name = "Black Italic";
shapes = (
{
closed = 1;
nodes = (
(92,-390,ls),
(262,-390,o),
(358,-307,o),
(393,-137,cs),
(666,1169,ls),
(674,1207,o),
(683,1220,o),
(712,1220,cs),
(864,1220,l),
(923,1500,l),
(599,1500,ls),
(429,1500,o),
(333,1416,o),
(298,1247,cs),
(25,-59,ls),
(17,-97,o),
(8,-110,o),
(-21,-110,cs),
(-173,-110,l),
(-232,-390,l)
);
},
{
closed = 1;
nodes = (
(754,800,l),
(813,1080,l),
(140,1080,l),
(81,800,l)
);
}
);
width = 762;
}
);
unicode = 102;
userData = {
KernOnName = f;
};
},
{
glyphname = g;
kernLeft = g;
kernRight = g;
layers = (
{
anchors = (
{
name = bottom;
pos = (308,-494);
},
{
name = top;
pos = (622,1080);
}
);
background = {
shapes = (
{
closed = 1;
nodes = (
(404,-414,ls),
(710,-414,o),
(941,-314,o),
(941,-58,cs),
(941,71,o),
(882,162,o),
(606,189,cs),
(399,209,ls),
(285,220,o),
(267,243,o),
(267,275,cs),
(267,326,o),
(311,352,o),
(405,352,cs),
(563,352,ls),
(840,352,o),
(998,553,o),
(998,766,cs),
(998,1002,o),
(807,1104,o),
(601,1104,cs),
(312,1104,o),
(155,901,o),
(155,681,cs),
(155,571,o),
(195,459,o),
(262,412,c),
(165,387,o),
(93,320,o),
(93,245,cs),
(93,195,o),
(126,143,o),
(177,122,c),
(19,66,o),
(-66,-14,o),
(-66,-153,cs),
(-66,-315,o),
(51,-414,o),
(369,-414,cs)
);
},
{
closed = 1;
nodes = (
(188,-280,o),
(114,-229,o),
(114,-122,cs),
(114,-6,o),
(202,53,o),
(382,76,c),
(565,56,ls),
(708,40,o),
(759,4,o),
(759,-87,cs),
(759,-239,o),
(618,-280,o),
(443,-280,cs),
(383,-280,ls)
);
},
{
closed = 1;
nodes = (
(439,472,o),
(319,526,o),
(319,680,cs),
(319,790,o),
(381,982,o),
(598,982,cs),
(716,982,o),
(833,926,o),
(833,766,cs),
(833,646,o),
(768,472,o),
(557,472,cs)
);
},
{
closed = 1;
nodes = (
(894,898,l),
(921,1026,ls),
(929,1066,o),
(942,1077,o),
(972,1077,cs),
(1072,1077,l),
(1102,1219,l),
(988,1219,ls),
(890,1219,o),
(822,1167,o),
(804,1084,cs),
(777,960,l)
);
}
);
};
layerId = "F3C0A8D3-A3E8-4ECE-8090-B83518D65089";
name = "400";
shapes = (
{
closed = 1;
nodes = (
(404,-414,ls),
(710,-414,o),
(941,-314,o),
(941,-58,cs),
(941,71,o),
(882,162,o),
(606,189,cs),
(399,209,ls),
(285,220,o),
(267,243,o),
(267,275,cs),
(267,326,o),
(311,363,o),
(405,357,cs),
(498,351,ls),
(868,327,o),
(998,553,o),
(998,766,cs),
(998,1002,o),
(807,1104,o),
(601,1104,cs),
(312,1104,o),
(155,901,o),
(155,681,cs),
(155,571,o),
(195,479,o),
(262,432,c),
(165,407,o),
(93,320,o),
(93,245,cs),
(93,195,o),
(126,143,o),
(177,122,c),
(19,66,o),
(-66,-14,o),
(-66,-153,cs),
(-66,-315,o),
(51,-414,o),
(369,-414,cs)
);
},
{
closed = 1;
nodes = (
(188,-280,o),
(114,-229,o),
(114,-122,cs),
(114,-6,o),
(202,53,o),
(382,76,c),
(565,56,ls),
(708,40,o),
(759,4,o),
(759,-87,cs),
(759,-239,o),
(618,-280,o),
(443,-280,cs),
(383,-280,ls)
);
},
{
closed = 1;
nodes = (
(439,472,o),
(319,526,o),
(319,680,cs),
(319,790,o),
(381,982,o),
(598,982,cs),
(716,982,o),
(833,926,o),
(833,766,cs),
(833,646,o),
(768,472,o),
(557,472,cs)
);
},
{
closed = 1;
nodes = (
(894,898,l),
(921,1026,ls),
(929,1066,o),
(942,1077,o),
(972,1077,cs),
(1072,1077,l),
(1102,1219,l),
(988,1219,ls),
(890,1219,o),
(822,1167,o),
(804,1084,cs),
(777,960,l)
);
}
);
width = 1133;
},
{
anchors = (
{
name = bottom;
pos = (347,-494);
},
{
name = top;
pos = (612,1080);
}
);
background = {
shapes = (
{
closed = 1;
nodes = (
(419,-418,ls),
(564,-418,o),
(1000,-450,o),
(1000,-80,cs),
(1000,108,o),
(887,203,o),
(655,232,cs),
(463,256,ls),
(385,266,o),
(372,274,o),
(372,295,cs),
(372,317,o),
(388,333,o),
(434,333,cs),
(568,333,ls),
(834,333,o),
(1058,501,o),
(1058,741,cs),
(1058,977,o),
(840,1108,o),
(598,1108,cs),
(321,1108,o),
(101,936,o),
(101,686,cs),
(101,554,o),
(163,475,o),
(248,422,c),
(145,410,o),
(51,357,o),
(51,249,cs),
(51,194,o),
(76,148,o),
(156,122,c),
(-20,105,o),
(-95,-2,o),
(-95,-133,cs),
(-95,-306,o),
(35,-418,o),
(400,-418,cs)
);
},
{
closed = 1;
nodes = (
(343,-183,o),
(283,-143,o),
(283,-83,cs),
(283,-33,o),
(325,27,o),
(427,17,c),
(507,9,ls),
(607,-1,o),
(635,-39,o),
(635,-87,cs),
(635,-165,o),
(556,-183,o),
(464,-183,cs),
(438,-183,ls)
);
},
{
closed = 1;
nodes = (
(499,573,o),
(460,616,o),
(460,682,cs),
(460,747,o),
(499,867,o),
(602,867,cs),
(666,867,o),
(700,821,o),
(700,757,cs),
(700,693,o),
(667,573,o),
(563,573,cs)
);
},
{
closed = 1;
nodes = (
(955,879,l),
(969,945,ls),
(977,984,o),
(990,997,o),
(1015,997,cs),
(1114,997,l),
(1173,1277,l),
(1075,1277,ls),
(907,1277,o),
(809,1193,o),
(773,1024,cs),
(742,879,l)
);
}
);
};
guides = (
{
angle = 78;
pos = (423,-193);
}
);
layerId = "F6FF57EF-12AD-4CA4-84B8-F83D8C5A96DF";
shapes = (
{
closed = 1;
nodes = (
(419,-418,ls),
(564,-418,o),
(1000,-450,o),
(1000,-80,cs),
(1000,108,o),
(887,203,o),
(655,232,cs),
(463,256,ls),
(385,266,o),
(372,274,o),
(372,295,cs),
(372,317,o),
(388,333,o),
(434,333,cs),
(568,333,ls),
(834,333,o),
(1058,501,o),
(1058,741,cs),
(1058,977,o),
(840,1108,o),
(598,1108,cs),
(321,1108,o),
(101,936,o),
(101,686,cs),
(101,554,o),
(163,475,o),
(248,422,c),
(145,410,o),
(51,357,o),
(51,249,cs),
(51,194,o),
(76,148,o),
(156,122,c),
(-20,105,o),
(-95,-2,o),
(-95,-133,cs),
(-95,-306,o),
(35,-418,o),
(400,-418,cs)
);
},
{
closed = 1;
nodes = (
(343,-183,o),
(283,-143,o),
(283,-83,cs),
(283,-33,o),
(322,5,o),
(391,21,c),
(507,9,ls),
(607,-1,o),
(635,-39,o),
(635,-87,cs),
(635,-165,o),
(556,-183,o),
(464,-183,cs),
(438,-183,ls)
);
},
{
closed = 1;
nodes = (
(499,573,o),
(460,616,o),
(460,682,cs),
(460,747,o),
(499,867,o),
(602,867,cs),
(666,867,o),
(700,821,o),
(700,757,cs),
(700,693,o),
(667,573,o),
(563,573,cs)
);
},
{
closed = 1;
nodes = (
(955,879,l),
(969,945,ls),
(977,984,o),
(990,997,o),
(1015,997,cs),
(1114,997,l),
(1173,1277,l),
(1075,1277,ls),
(907,1277,o),
(809,1193,o),
(773,1024,cs),
(742,879,l)
);
}
);
width = 1158;
}
);
tags = (
angular,
overshot
);
unicode = 103;
userData = {
KernOnName = g;
};
},
{
glyphname = h;
kernLeft = h;
kernRight = h;
layers = (
{
anchors = (
{
name = bottom;
pos = (462,0);
},
{
name = center;
pos = (320,720);
},
{
name = top;
pos = (444,1500);
}
);
layerId = "F3C0A8D3-A3E8-4ECE-8090-B83518D65089";
shapes = (
{
closed = 1;
nodes = (
(207,0,l),
(327,563,ls),
(386,841,o),
(520,966,o),
(684,966,cs),
(849,966,o),
(906,840,o),
(869,666,cs),
(727,0,l),
(893,0,l),
(1031,647,ls),
(1087,910,o),
(978,1104,o),
(738,1104,cs),
(573,1104,o),
(453,1012,o),
(374,879,c),
(384,835,l),
(525,1500,l),
(360,1500,l),
(41,0,l)
);
}
);
width = 1112;
},
{
anchors = (
{
name = bottom;
pos = (526,0);
},
{
name = center;
pos = (369,720);
},
{
name = top;
pos = (514,1500);
}
);
background = {
shapes = (
{
closed = 1;
nodes = (
(387,0,l),
(491,494,ls),
(536,709,o),
(605,816,o),
(732,816,cs),
(821,816,o),
(830,761,o),
(794,589,cs),
(670,0,l),
(1053,0,l),
(1188,641,ls),
(1243,903,o),
(1198,1108,o),
(942,1108,cs),
(783,1108,o),
(655,1029,o),
(553,872,c),
(561,827,l),
(703,1500,l),
(319,1500,l),
(3,0,l)
);
}
);
};
layerId = "F6FF57EF-12AD-4CA4-84B8-F83D8C5A96DF";
shapes = (
{
closed = 1;
nodes = (
(389,0,l),
(482,441,ls),
(542,726,o),
(615,836,o),
(725,836,cs),
(830,836,o),
(824,730,o),
(803,627,cs),
(673,0,l),
(1056,0,l),
(1190,641,ls),
(1244,899,o),
(1177,1108,o),
(917,1108,cs),
(763,1108,o),
(655,1034,o),
(558,881,c),
(565,836,l),
(703,1500,l),
(319,1500,l),
(5,0,l)
);
}
);
width = 1236;
}
);
tags = (
overshot
);
unicode = 104;
userData = {
KernOnName = h;
};
},
{
glyphname = idotless;
kernLeft = n;
kernRight = q;
layers = (
{
anchors = (
{
name = bottom;
pos = (124,0);
},
{
name = ogonek;
pos = (207,0);
},
{
name = top;
pos = (354,1080);
}
);
layerId = "F3C0A8D3-A3E8-4ECE-8090-B83518D65089";
shapes = (
{
closed = 1;
nodes = (
(271,1080,l),
(42,0,l),
(207,0,l),
(437,1080,l)
);
}
);
width = 478;
},
{
anchors = (
{
name = bottom;
pos = (194,0);
},
{
name = ogonek;
pos = (387,0);
},
{
name = top;
pos = (423,1080);
}
);
background = {
shapes = (
{
closed = 1;
nodes = (
(231,1080,l),
(70,317,l),
(458,336,l),
(615,1080,l)
);
}
);
};
guides = (
{
angle = 78;
pos = (206,53);
}
);
layerId = "F6FF57EF-12AD-4CA4-84B8-F83D8C5A96DF";
shapes = (
{
closed = 1;
nodes = (
(231,1080,l),
(3,0,l),
(387,0,l),
(615,1080,l)
);
}
);
width = 618;
}
);
unicode = 305;
},
{
glyphname = j;
kernLeft = j;
kernRight = j;
layers = (
{
layerId = "F3C0A8D3-A3E8-4ECE-8090-B83518D65089";
shapes = (
{
ref = jdotless;
},
{
pos = (-226,0);
ref = dotaccentcomb;
}
);
width = 526;
},
{
background = {
shapes = (
{
closed = 1;
nodes = (
(-605,-390,ls),
(-393,-390,o),
(-279,-296,o),
(-238,-103,cs),
(11,1080,l),
(-373,1080,l),
(-612,-54,ls),
(-621,-99,o),
(-631,-110,o),
(-671,-110,cs),
(-741,-110,l),
(-800,-390,l)
);
},
{
closed = 1;
nodes = (
(-22,1159,o),
(83,1248,o),
(113,1391,cs),
(143,1534,o),
(76,1623,o),
(-61,1623,cs),
(-199,1623,o),
(-303,1534,o),
(-333,1391,cs),
(-363,1248,o),
(-296,1159,o),
(-159,1159,cs)
);
}
);
};
layerId = "F6FF57EF-12AD-4CA4-84B8-F83D8C5A96DF";
metricLeft = "=n-123";
shapes = (
{
ref = jdotless;
},
{
pos = (-189,0);
ref = dotaccentcomb;
}
);
width = 639;
}
);
unicode = 106;
userData = {
KernOnName = j;
};
},
{
glyphname = jdotless;
layers = (
{
anchors = (
{
name = bottom;
pos = (74,-494);
},
{
name = top;
pos = (401,1080);
}
);
layerId = "F3C0A8D3-A3E8-4ECE-8090-B83518D65089";
shapes = (
{
closed = 1;
nodes = (
(-8,-390,ls),
(124,-390,o),
(192,-327,o),
(221,-188,cs),
(484,1080,l),
(319,1080,l),
(54,-194,ls),
(46,-233,o),
(29,-247,o),
(0,-247,cs),
(-123,-247,l),
(-153,-390,l)
);
}
);
width = 526;
},
{
anchors = (
{
name = bottom;
pos = (59,-494);
},
{
name = top;
pos = (438,1080);
}
);
layerId = "F6FF57EF-12AD-4CA4-84B8-F83D8C5A96DF";
shapes = (
{
closed = 1;
nodes = (
(85,-390,ls),
(255,-390,o),
(350,-307,o),
(386,-137,cs),
(640,1080,l),
(256,1080,l),
(18,-59,ls),
(10,-97,o),
(1,-110,o),
(-28,-110,cs),
(-110,-110,l),
(-169,-390,l)
);
}
);
width = 639;
}
);
unicode = 567;
},
{
glyphname = k;
kernLeft = h;
kernRight = k;
layers = (
{
anchors = (
{
name = bottom;
pos = (425,0);
},
{
name = top;
pos = (822,1950);
}
);
layerId = "F3C0A8D3-A3E8-4ECE-8090-B83518D65089";
shapes = (
{
closed = 1;
nodes = (
(207,0,l),
(291,401,l),
(491,564,l),
(738,0,l),
(922,0,l),
(626,673,l),
(1129,1080,l),
(903,1080,l),
(343,641,l),
(525,1500,l),
(359,1500,l),
(41,0,l)
);
}
);
width = 1080;
},
{
anchors = (
{
name = bottom;
pos = (573,0);
},
{
name = top;
pos = (957,1950);
}
);
background = {
shapes = (
{
closed = 1;
nodes = (
(1269,1080,l),
(858,1080,l),
(351,525,l),
(495,221,l)
);
},
{
closed = 1;
nodes = (
(526,0,l),
(526,1500,l),
(142,1500,l),
(142,0,l)
);
}
);
};
guides = (
{
angle = 90;
pos = (857,0);
}
);
layerId = "F6FF57EF-12AD-4CA4-84B8-F83D8C5A96DF";
shapes = (
{
closed = 1;
nodes = (
(388,0,l),
(447,279,l),
(632,441,l),
(772,0,l),
(1160,0,l),
(919,694,l),
(1358,1080,l),
(894,1080,l),
(553,784,l),
(704,1500,l),
(320,1500,l),
(4,0,l)
);
}
);
width = 1280;
}
);
unicode = 107;
userData = {
KernOnName = k;
};
},
{
glyphname = kgreenlandic;
kernRight = k;
layers = (
{
layerId = "F3C0A8D3-A3E8-4ECE-8090-B83518D65089";
shapes = (
{
closed = 1;
nodes = (
(271,1080,l),
(42,0,l),
(209,0,l),
(293,401,l),
(493,564,l),
(740,0,l),
(924,0,l),
(628,673,l),
(1131,1080,l),
(905,1080,l),
(344,641,l),
(438,1080,l)
);
}
);
width = 1083;
},
{
annotations = (
{
pos = (1003.666,1588.771);
type = Text;
}
);
layerId = "F6FF57EF-12AD-4CA4-84B8-F83D8C5A96DF";
shapes = (
{
closed = 1;
nodes = (
(231,1080,l),
(4,0,l),
(388,0,l),
(447,279,l),
(632,441,l),
(772,0,l),
(1160,0,l),
(919,694,l),
(1358,1080,l),
(894,1080,l),
(553,784,l),
(615,1080,l)
);
}
);
width = 1282;
}
);
unicode = 312;
},
{
glyphname = l;
kernLeft = l;
kernRight = l;
layers = (
{
anchors = (
{
name = bottom;
pos = (167,0);
},
{
name = center;
pos = (269,721);
},
{
name = centerExt;
pos = (636,720);
},
{
name = top;
pos = (443,1500);
},
{
name = topright;
pos = (807,1950);
}
);
layerId = "F3C0A8D3-A3E8-4ECE-8090-B83518D65089";
name = Regular;
shapes = (
{
closed = 1;
nodes = (
(330,0,l),
(359,143,l),
(281,143,ls),
(245,143,o),
(237,156,o),
(246,198,cs),
(522,1500,l),
(356,1500,l),
(73,169,ls),
(52,72,o),
(116,0,o),
(224,0,cs)
);
}
);
width = 509;
},
{
anchors = (
{
name = bottom;
pos = (267,0);
},
{
name = center;
pos = (349,750);
},
{
name = centerExt;
pos = (828,720);
},
{
name = top;
pos = (506,1500);
},
{
name = topright;
pos = (911,1950);
}
);
layerId = "F6FF57EF-12AD-4CA4-84B8-F83D8C5A96DF";
name = Regular;
shapes = (
{
closed = 1;
nodes = (
(489,0,l),
(548,280,l),
(484,280,ls),
(444,280,o),
(439,291,o),
(448,336,cs),
(693,1500,l),
(309,1500,l),
(60,317,ls),
(16,110,o),
(114,0,o),
(343,0,cs)
);
}
);
width = 633;
}
);
metricLeft = "=l";
tags = (
angular
);
unicode = 108;
userData = {
KernOnName = l;
};
},
{
glyphname = m;
kernLeft = n;
kernRight = n;
layers = (
{
layerId = "F3C0A8D3-A3E8-4ECE-8090-B83518D65089";
shapes = (
{
closed = 1;
nodes = (
(206,0,l),
(325,563,ls),
(385,841,o),
(507,966,o),
(651,966,cs),
(796,966,o),
(848,840,o),
(811,666,cs),
(670,0,l),
(836,0,l),
(955,564,ls),
(1014,841,o),
(1136,966,o),
(1280,966,cs),
(1425,966,o),
(1477,840,o),
(1440,666,cs),
(1298,0,l),
(1464,0,l),
(1602,647,ls),
(1658,909,o),
(1556,1104,o),
(1338,1104,cs),
(1193,1104,o),
(1070,1019,o),
(977,876,c),
(950,1014,o),
(857,1104,o),
(709,1104,cs),
(564,1104,o),
(450,1022,o),
(377,902,c),
(412,1080,l),
(270,1080,l),
(41,0,l)
);
}
);
width = 1711;
},
{
background = {
shapes = (
{
closed = 1;
nodes = (
(389,0,l),
(495,505,ls),
(530,671,o),
(594,816,o),
(705,816,cs),
(790,816,o),
(785,732,o),
(770,658,cs),
(632,0,l),
(1016,0,l),
(1122,506,ls),
(1156,670,o),
(1220,816,o),
(1332,816,cs),
(1417,816,o),
(1412,731,o),
(1397,658,cs),
(1258,0,l),
(1642,0,l),
(1777,642,ls),
(1842,948,o),
(1767,1108,o),
(1549,1108,cs),
(1428,1108,o),
(1291,1058,o),
(1169,895,c),
(1151,1036,o),
(1069,1108,o),
(919,1108,cs),
(785,1108,o),
(669,1051,o),
(570,915,c),
(605,1080,l),
(232,1080,l),
(5,0,l)
);
}
);
};
layerId = "F6FF57EF-12AD-4CA4-84B8-F83D8C5A96DF";
name = "800";
shapes = (
{
closed = 1;
nodes = (
(387,0,l),
(481,441,ls),
(542,725,o),
(602,836,o),
(703,836,cs),
(781,836,o),
(782,729,o),
(761,627,cs),
(631,0,l),
(1014,0,l),
(1111,462,ls),
(1170,731,o),
(1230,836,o),
(1328,836,cs),
(1406,836,o),
(1407,729,o),
(1386,627,cs),
(1256,0,l),
(1639,0,l),
(1773,641,ls),
(1827,898,o),
(1761,1108,o),
(1520,1108,cs),
(1388,1108,o),
(1242,1030,o),
(1155,904,c),
(1127,1027,o),
(1045,1108,o),
(895,1108,cs),
(756,1108,o),
(653,1045,o),
(568,901,c),
(605,1080,l),
(230,1080,l),
(3,0,l)
);
}
);
width = 1847;
}
);
tags = (
overshot
);
unicode = 109;
},
{
glyphname = n;
kernLeft = n;
kernRight = n;
layers = (
{
anchors = (
{
name = bottom;
pos = (491,0);
},
{
name = bottomLeft;
pos = (42,0);
},
{
name = bottomRight;
pos = (894,0);
},
{
name = top;
pos = (722,1080);
}
);
layerId = "F3C0A8D3-A3E8-4ECE-8090-B83518D65089";
shapes = (
{
closed = 1;
nodes = (
(207,0,l),
(325,563,ls),
(383,841,o),
(521,966,o),
(685,966,cs),
(850,966,o),
(905,840,o),
(868,666,cs),
(728,0,l),
(894,0,l),
(1030,647,ls),
(1085,910,o),
(979,1104,o),
(739,1104,cs),
(574,1104,o),
(454,1012,o),
(375,879,c),
(373,835,l),
(424,1080,l),
(269,1080,l),
(42,0,l)
);
}
);
width = 1140;
},
{
anchors = (
{
name = bottom;
pos = (525,0);
},
{
name = bottomLeft;
pos = (3,0);
},
{
name = bottomRight;
pos = (1054,0);
},
{
name = top;
pos = (775,1080);
}
);
layerId = "F6FF57EF-12AD-4CA4-84B8-F83D8C5A96DF";
shapes = (
{
closed = 1;
nodes = (
(387,0,l),
(481,441,ls),
(542,726,o),
(613,836,o),
(723,836,cs),
(828,836,o),
(822,730,o),
(801,627,cs),
(671,0,l),
(1054,0,l),
(1188,641,ls),
(1242,899,o),
(1175,1108,o),
(915,1108,cs),
(761,1108,o),
(653,1034,o),
(556,881,c),
(554,836,l),
(605,1080,l),
(230,1080,l),
(3,0,l)
);
}
);
width = 1262;
}
);
tags = (
overshot
);
unicode = 110;
userData = {
KernOnName = n;
};
},
{
glyphname = o;
kernLeft = o;
kernRight = o;
layers = (
{
anchors = (
{
name = bottom;
pos = (498,0);
},
{
name = center;
pos = (593,540);
},
{
name = ogonek;
pos = (674,0);
},
{
name = top;
pos = (668,1080);
},
{
name = topright;
pos = (1263,1080);
}
);
layerId = "F3C0A8D3-A3E8-4ECE-8090-B83518D65089";
name = "400";
shapes = (
{
closed = 1;
nodes = (
(872,-24,o),
(1102,306,o),
(1102,635,cs),
(1102,932,o),
(914,1104,o),
(662,1104,cs),
(313,1104,o),
(84,774,o),
(84,445,cs),
(84,148,o),
(272,-24,o),
(522,-24,cs)
);
},
{
closed = 1;
nodes = (
(363,119,o),
(264,238,o),
(264,432,cs),
(264,644,o),
(381,961,o),
(654,961,cs),
(823,961,o),
(922,839,o),
(922,647,cs),
(922,436,o),
(805,119,o),
(530,119,cs)
);
}
);
width = 1186;
},
{
anchors = (
{
name = bottom;
pos = (483,0);
},
{
name = center;
pos = (616,540);
},
{
name = ogonek;
pos = (737,0);
},
{
name = top;
pos = (698,1080);
},
{
name = topright;
pos = (1316,1080);
}
);
background = {
shapes = (
{
closed = 1;
nodes = (
(826,-28,o),
(1104,204,o),
(1175,540,cs),
(1185,589,o),
(1190,635,o),
(1190,679,cs),
(1190,938,o),
(1018,1108,o),
(734,1108,cs),
(403,1108,o),
(128,876,o),
(57,540,cs),
(47,491,o),
(42,445,o),
(42,401,cs),
(42,142,o),
(212,-28,o),
(496,-28,cs)
);
},
{
closed = 1;
nodes = (
(480,255,o),
(439,316,o),
(439,422,cs),
(439,456,o),
(444,496,o),
(453,540,cs),
(490,716,o),
(575,826,o),
(676,826,cs),
(752,826,o),
(793,764,o),
(793,659,cs),
(793,624,o),
(788,584,o),
(779,540,cs),
(742,365,o),
(657,255,o),
(556,255,cs)
);
}
);
};
layerId = "F6FF57EF-12AD-4CA4-84B8-F83D8C5A96DF";
shapes = (
{
closed = 1;
nodes = (
(929,-28,o),
(1187,276,o),
(1187,612,cs),
(1187,927,o),
(960,1108,o),
(672,1108,cs),
(296,1108,o),
(45,800,o),
(45,467,cs),
(45,152,o),
(270,-28,o),
(557,-28,cs)
);
},
{
closed = 1;
nodes = (
(484,254,o),
(440,325,o),
(440,435,cs),
(440,573,o),
(510,827,o),
(665,827,cs),
(747,827,o),
(792,756,o),
(792,646,cs),
(792,509,o),
(723,254,o),
(567,254,cs)
);
}
);
width = 1232;
}
);
tags = (
overshot
);
unicode = 111;
userData = {
KernOnName = o;
};
},
{
glyphname = oe;
kernLeft = o;
kernRight = e;
layers = (
{
background = {
shapes = (
{
closed = 1;
nodes = (
(840,-24,o),
(1070,306,o),
(1070,635,cs),
(1070,932,o),
(882,1104,o),
(630,1104,cs),
(281,1104,o),
(52,774,o),
(52,445,cs),
(52,148,o),
(240,-24,o),
(490,-24,cs)
);
},
{
closed = 1;
nodes = (
(331,119,o),
(232,238,o),
(232,432,cs),
(232,644,o),
(349,961,o),
(622,961,cs),
(791,961,o),
(890,839,o),
(890,647,cs),
(890,436,o),
(773,119,o),
(498,119,cs)
);
}
);
};
layerId = "F3C0A8D3-A3E8-4ECE-8090-B83518D65089";
shapes = (
{
closed = 1;
nodes = (
(667,-24,o),
(805,47,o),
(888,163,c),
(941,43,o),
(1095,-24,o),
(1246,-24,cs),
(1424,-24,o),
(1589,68,o),
(1702,274,c),
(1533,333,l),
(1460,185,o),
(1375,119,o),
(1254,119,cs),
(1032,119,o),
(992,312,o),
(1015,499,c),
(1744,499,l),
(1807,803,o),
(1715,1104,o),
(1381,1104,cs),
(1230,1104,o),
(1109,1035,o),
(1000,918,c),
(942,1037,o),
(811,1104,o),
(658,1104,cs),
(317,1104,o),
(83,773,o),
(83,444,cs),
(83,147,o),
(274,-24,o),
(513,-24,cs)
);
},
{
closed = 1;
nodes = (
(370,119,o),
(264,238,o),
(264,432,cs),
(264,642,o),
(389,961,o),
(648,961,cs),
(809,961,o),
(890,838,o),
(890,652,cs),
(890,436,o),
(780,119,o),
(526,119,cs)
);
},
{
closed = 1;
nodes = (
(1106,847,o),
(1222,962,o),
(1372,962,cs),
(1549,962,o),
(1593,808,o),
(1582,638,c),
(1042,638,l)
);
}
);
width = 1845;
},
{
background = {
shapes = (
{
pos = (18,0);
ref = o;
scale = (0.9723,1);
}
);
};
layerId = "F6FF57EF-12AD-4CA4-84B8-F83D8C5A96DF";
shapes = (
{
closed = 1;
nodes = (
(707,-28,o),
(826,30,o),
(907,140,c),
(973,40,o),
(1094,-28,o),
(1280,-28,cs),
(1516,-28,o),
(1703,81,o),
(1806,302,c),
(1474,390,l),
(1423,293,o),
(1368,255,o),
(1302,255,cs),
(1218,255,o),
(1148,321,o),
(1168,465,c),
(1835,465,l),
(1916,800,o),
(1771,1108,o),
(1407,1108,cs),
(1270,1108,o),
(1112,1061,o),
(1006,951,c),
(927,1052,o),
(803,1108,o),
(651,1108,cs),
(293,1108,o),
(46,799,o),
(46,465,cs),
(46,152,o),
(263,-28,o),
(546,-28,cs)
);
},
{
closed = 1;
nodes = (
(469,254,o),
(430,325,o),
(430,437,cs),
(430,573,o),
(498,827,o),
(650,827,cs),
(728,827,o),
(773,757,o),
(773,646,cs),
(773,508,o),
(703,254,o),
(551,254,cs)
);
},
{
closed = 1;
nodes = (
(1228,759,o),
(1282,845,o),
(1375,845,cs),
(1448,845,o),
(1495,793,o),
(1490,661,c),
(1191,661,l)
);
}
);
width = 1905;
}
);
unicode = 339;
},
{
glyphname = p;
kernLeft = n;
kernRight = p;
layers = (
{
background = {
shapes = (
{
closed = 1;
nodes = (
(126,-390,l),
(254,217,l),
(235,209,l),
(265,41,o),
(430,-24,o),
(578,-24,cs),
(951,-24,o),
(1113,379,o),
(1113,664,cs),
(1113,925,o),
(978,1104,o),
(750,1104,cs),
(602,1104,o),
(466,1025,o),
(378,871,c),
(379,855,l),
(425,1080,l),
(270,1080,l),
(-39,-390,l)
);
},
{
closed = 1;
nodes = (
(416,119,o),
(301,219,o),
(301,421,cs),
(301,628,o),
(421,961,o),
(682,961,cs),
(847,961,o),
(929,842,o),
(929,665,cs),
(929,456,o),
(816,119,o),
(554,119,cs)
);
}
);
};
layerId = "F3C0A8D3-A3E8-4ECE-8090-B83518D65089";
shapes = (
{
closed = 1;
nodes = (
(124,-390,l),
(257,246,l),
(227,245,l),
(259,78,o),
(396,-24,o),
(577,-24,cs),
(937,-24,o),
(1106,378,o),
(1106,668,cs),
(1106,926,o),
(972,1104,o),
(744,1104,cs),
(600,1104,o),
(468,1032,o),
(380,891,c),
(384,875,l),
(427,1080,l),
(270,1080,l),
(-41,-390,l)
);
},
{
closed = 1;
nodes = (
(393,119,o),
(294,230,o),
(294,423,cs),
(294,636,o),
(414,961,o),
(680,961,cs),
(840,961,o),
(922,843,o),
(922,665,cs),
(922,455,o),
(807,119,o),
(544,119,cs)
);
}
);
width = 1174;
},
{
background = {
shapes = (
{
closed = 1;
nodes = (
(305,-390,l),
(431,209,l),
(395,211,l),
(440,45,o),
(526,-28,o),
(692,-28,cs),
(969,-28,o),
(1169,174,o),
(1245,537,cs),
(1322,902,o),
(1208,1108,o),
(940,1108,cs),
(790,1108,o),
(668,1043,o),
(552,885,c),
(552,870,l),
(596,1080,l),
(231,1080,l),
(-78,-390,l)
);
},
{
closed = 1;
nodes = (
(500,265,o),
(443,362,o),
(481,541,cs),
(518,719,o),
(614,816,o),
(725,816,cs),
(838,816,o),
(880,715,o),
(844,545,cs),
(808,374,o),
(720,265,o),
(607,265,cs)
);
}
);
};
layerId = "F6FF57EF-12AD-4CA4-84B8-F83D8C5A96DF";
shapes = (
{
closed = 1;
nodes = (
(305,-390,l),
(439,250,l),
(409,254,l),
(459,58,o),
(577,-28,o),
(749,-28,cs),
(1142,-28,o),
(1278,418,o),
(1278,684,cs),
(1278,955,o),
(1137,1108,o),
(909,1108,cs),
(775,1108,o),
(657,1055,o),
(547,890,c),
(552,870,l),
(596,1080,l),
(230,1080,l),
(-79,-390,l)
);
},
{
closed = 1;
nodes = (
(544,285,o),
(483,351,o),
(483,475,cs),
(483,603,o),
(549,828,o),
(722,828,cs),
(815,828,o),
(869,763,o),
(869,649,cs),
(869,526,o),
(807,285,o),
(634,285,cs)
);
}
);
width = 1308;
}
);
tags = (
overshot
);
unicode = 112;
userData = {
KernOnName = p;
};
},
{
glyphname = thorn;
kernLeft = h;
layers = (
{
background = {
shapes = (
{
closed = 1;
nodes = (
(124,-390,l),
(252,217,l),
(233,209,l),
(263,41,o),
(428,-24,o),
(576,-24,cs),
(949,-24,o),
(1111,379,o),
(1111,664,cs),
(1111,925,o),
(976,1104,o),
(748,1104,cs),
(600,1104,o),
(464,1025,o),
(376,871,c),
(387,855,l),
(521,1500,l),
(356,1500,l),
(-41,-390,l)
);
},
{
closed = 1;
nodes = (
(414,119,o),
(299,219,o),
(299,421,cs),
(299,628,o),
(419,961,o),
(680,961,cs),
(845,961,o),
(927,842,o),
(927,665,cs),
(927,456,o),
(814,119,o),
(552,119,cs)
);
}
);
};
layerId = "F3C0A8D3-A3E8-4ECE-8090-B83518D65089";
shapes = (
{
closed = 1;
nodes = (
(124,-390,l),
(257,246,l),
(227,245,l),
(259,78,o),
(396,-24,o),
(577,-24,cs),
(937,-24,o),
(1106,378,o),
(1106,668,cs),
(1106,926,o),
(972,1104,o),
(744,1104,cs),
(600,1104,o),
(468,1032,o),
(380,891,c),
(392,875,l),
(524,1500,l),
(359,1500,l),
(-41,-390,l)
);
},
{
closed = 1;
nodes = (
(393,119,o),
(294,230,o),
(294,423,cs),
(294,636,o),
(414,961,o),
(680,961,cs),
(840,961,o),
(922,843,o),
(922,665,cs),
(922,455,o),
(807,119,o),
(544,119,cs)
);
}
);
width = 1163;
},
{
background = {
shapes = (
{
closed = 1;
nodes = (
(306,-390,l),
(440,250,l),
(410,254,l),
(460,58,o),
(578,-28,o),
(750,-28,cs),
(1143,-28,o),
(1279,418,o),
(1279,684,cs),
(1279,955,o),
(1138,1108,o),
(910,1108,cs),
(776,1108,o),
(658,1055,o),
(548,890,c),
(553,870,l),
(597,1080,l),
(231,1080,l),
(-78,-390,l)
);
},
{
closed = 1;
nodes = (
(545,285,o),
(484,351,o),
(484,475,cs),
(484,603,o),
(550,828,o),
(723,828,cs),
(816,828,o),
(870,763,o),
(870,649,cs),
(870,526,o),
(808,285,o),
(635,285,cs)
);
}
);
};
layerId = "F6FF57EF-12AD-4CA4-84B8-F83D8C5A96DF";
shapes = (
{
closed = 1;
nodes = (
(306,-390,l),
(440,250,l),
(410,254,l),
(460,58,o),
(578,-28,o),
(750,-28,cs),
(1143,-28,o),
(1279,418,o),
(1279,684,cs),
(1279,955,o),
(1138,1108,o),
(910,1108,cs),
(776,1108,o),
(658,1055,o),
(548,890,c),
(571,870,l),
(703,1500,l),
(319,1500,l),
(-78,-390,l)
);
},
{
closed = 1;
nodes = (
(545,285,o),
(484,351,o),
(484,475,cs),
(484,603,o),
(550,828,o),
(723,828,cs),
(816,828,o),
(870,763,o),
(870,649,cs),
(870,526,o),
(808,285,o),
(635,285,cs)
);
}
);
width = 1298;
}
);
unicode = 254;
},
{
glyphname = q;
kernLeft = q;
kernRight = q;
layers = (
{
layerId = "F3C0A8D3-A3E8-4ECE-8090-B83518D65089";
shapes = (
{
closed = 1;
nodes = (
(818,-390,l),
(1130,1080,l),
(972,1080,l),
(921,835,l),
(932,859,l),
(895,1011,o),
(747,1104,o),
(582,1104,cs),
(241,1104,o),
(69,702,o),
(69,417,cs),
(69,164,o),
(203,-24,o),
(434,-24,cs),
(580,-24,o),
(712,48,o),
(812,209,c),
(781,220,l),
(653,-390,l)
);
},
{
closed = 1;
nodes = (
(344,119,o),
(252,214,o),
(252,413,cs),
(252,628,o),
(360,961,o),
(618,961,cs),
(761,961,o),
(871,858,o),
(871,656,cs),
(871,457,o),
(762,119,o),
(489,119,cs)
);
}
);
width = 1171;
},
{
background = {
shapes = (
{
closed = 1;
nodes = (
(989,-390,l),
(1298,1080,l),
(933,1080,l),
(890,872,l),
(907,869,l),
(863,1036,o),
(775,1108,o),
(609,1108,cs),
(332,1108,o),
(133,906,o),
(57,543,cs),
(-19,179,o),
(95,-28,o),
(362,-28,cs),
(514,-28,o),
(637,41,o),
(749,196,c),
(731,211,l),
(605,-390,l)
);
},
{
closed = 1;
nodes = (
(463,265,o),
(422,367,o),
(458,535,cs),
(494,707,o),
(582,816,o),
(695,816,cs),
(802,816,o),
(859,718,o),
(821,539,cs),
(784,362,o),
(688,265,o),
(577,265,cs)
);
}
);
};
layerId = "F6FF57EF-12AD-4CA4-84B8-F83D8C5A96DF";
shapes = (
{
closed = 1;
nodes = (
(989,-390,l),
(1298,1080,l),
(934,1080,l),
(889,872,l),
(905,869,l),
(869,1018,o),
(770,1108,o),
(578,1108,cs),
(151,1108,o),
(32,660,o),
(32,405,cs),
(32,129,o),
(171,-28,o),
(397,-28,cs),
(586,-28,o),
(698,81,o),
(778,229,c),
(739,252,l),
(605,-390,l)
);
},
{
closed = 1;
nodes = (
(491,269,o),
(440,336,o),
(440,448,cs),
(440,573,o),
(504,813,o),
(673,813,cs),
(764,813,o),
(825,743,o),
(825,618,cs),
(825,487,o),
(757,269,o),
(586,269,cs)
);
}
);
width = 1302;
}
);
tags = (
overshot
);
unicode = 113;
userData = {
KernOnName = q;
};
},
{
glyphname = r;
kernLeft = n;
kernRight = r;
layers = (
{
anchors = (
{
name = bottom;
pos = (130,0);
},
{
name = top;
pos = (545,1080);
}
);
layerId = "F3C0A8D3-A3E8-4ECE-8090-B83518D65089";
name = Regular;
shapes = (
{
closed = 1;
nodes = (
(205,0,l),
(319,537,ls),
(395,897,o),
(573,942,o),
(668,942,cs),
(714,942,o),
(758,931,o),
(791,917,c),
(846,1075,l),
(819,1091,o),
(770,1104,o),
(719,1104,cs),
(601,1104,o),
(462,1032,o),
(368,878,c),
(374,841,l),
(423,1080,l),
(270,1080,l),
(40,0,l)
);
}
);
width = 783;
},
{
anchors = (
{
name = bottom;
pos = (215,0);
},
{
name = top;
pos = (612,1080);
}
);
background = {
shapes = (
{
closed = 1;
nodes = (
(392,0,l),
(473,387,ls),
(535,681,o),
(696,775,o),
(860,775,cs),
(904,775,o),
(951,768,o),
(994,756,c),
(1087,1086,l),
(1041,1102,o),
(994,1108,o),
(950,1108,cs),
(791,1108,o),
(653,1031,o),
(546,862,c),
(554,826,l),
(608,1080,l),
(219,1080,l),
(-8,0,l)
);
}
);
};
layerId = "F6FF57EF-12AD-4CA4-84B8-F83D8C5A96DF";
name = Regular;
shapes = (
{
closed = 1;
nodes = (
(387,0,l),
(468,387,ls),
(533,696,o),
(671,783,o),
(814,783,cs),
(858,783,o),
(909,774,o),
(950,759,c),
(1026,1090,l),
(988,1102,o),
(943,1108,o),
(900,1108,cs),
(762,1108,o),
(644,1044,o),
(527,830,c),
(550,826,l),
(604,1080,l),
(230,1080,l),
(3,0,l)
);
}
);
width = 943;
}
);
tags = (
overshot
);
unicode = 114;
userData = {
KernOnName = r;
};
},
{
glyphname = s;
kernLeft = s;
kernRight = s;
layers = (
{
anchors = (
{
name = bottom;
pos = (471,0);
},
{
name = top;
pos = (593,1080);
}
);
layerId = "F3C0A8D3-A3E8-4ECE-8090-B83518D65089";
name = "400";
shapes = (
{
closed = 1;
nodes = (
(686,-24,o),
(877,122,o),
(877,339,cs),
(877,481,o),
(772,565,o),
(632,607,cs),
(510,644,ls),
(391,680,o),
(338,724,o),
(338,795,cs),
(338,902,o),
(439,964,o),
(556,964,cs),
(708,964,o),
(788,884,o),
(776,765,c),
(960,803,l),
(948,986,o),
(778,1104,o),
(561,1104,cs),
(345,1104,o),
(171,979,o),
(171,778,cs),
(171,618,o),
(312,539,o),
(429,506,cs),
(551,472,ls),
(652,444,o),
(704,395,o),
(704,324,cs),
(704,210,o),
(591,117,o),
(452,117,cs),
(291,117,o),
(186,215,o),
(205,365,c),
(27,331,l),
(32,103,o),
(211,-24,o),
(457,-24,cs)
);
}
);
width = 1009;
},
{
anchors = (
{
name = bottom;
pos = (457,0);
},
{
name = top;
pos = (617,1080);
}
);
background = {
shapes = (
{
closed = 1;
nodes = (
(791,-28,o),
(1021,106,o),
(1021,356,cs),
(1021,516,o),
(894,606,o),
(739,643,cs),
(650,664,ls),
(571,683,o),
(490,708,o),
(490,766,cs),
(490,807,o),
(523,846,o),
(595,846,cs),
(677,846,o),
(746,817,o),
(753,702,c),
(1092,738,l),
(1093,988,o),
(827,1108,o),
(578,1108,cs),
(328,1108,o),
(107,953,o),
(107,720,cs),
(107,525,o),
(312,471,o),
(449,439,cs),
(517,423,ls),
(602,403,o),
(643,368,o),
(643,325,cs),
(643,284,o),
(608,242,o),
(516,242,cs),
(395,242,o),
(316,287,o),
(331,393,c),
(-14,360,l),
(-29,83,o),
(269,-28,o),
(533,-28,cs)
);
}
);
};
layerId = "F6FF57EF-12AD-4CA4-84B8-F83D8C5A96DF";
name = Regular;
shapes = (
{
closed = 1;
nodes = (
(807,-28,o),
(1027,119,o),
(1027,346,cs),
(1027,521,o),
(896,634,o),
(740,659,cs),
(652,673,ls),
(571,686,o),
(492,706,o),
(492,770,cs),
(492,808,o),
(521,846,o),
(602,846,cs),
(684,846,o),
(748,807,o),
(751,719,c),
(1087,786,l),
(1071,982,o),
(826,1108,o),
(588,1108,cs),
(317,1108,o),
(107,945,o),
(107,731,cs),
(107,520,o),
(310,454,o),
(452,431,cs),
(520,420,ls),
(602,407,o),
(647,368,o),
(647,324,cs),
(647,284,o),
(611,241,o),
(508,241,cs),
(395,241,o),
(324,292,o),
(329,372,c),
(-12,306,l),
(2,85,o),
(271,-28,o),
(521,-28,cs)
);
}
);
width = 1113;
}
);
tags = (
overshot
);
unicode = 115;
userData = {
KernOnName = s;
};
},
{
glyphname = germandbls;
kernLeft = germandbls;
kernRight = B;
layers = (
{
layerId = "F3C0A8D3-A3E8-4ECE-8090-B83518D65089";
shapes = (
{
closed = 1;
nodes = (
(928,-24,o),
(1094,265,o),
(1094,475,cs),
(1094,625,o),
(1008,754,o),
(846,801,c),
(1041,826,o),
(1187,960,o),
(1187,1154,cs),
(1187,1380,o),
(989,1524,o),
(761,1524,cs),
(490,1524,o),
(302,1323,o),
(235,1004,cs),
(25,0,l),
(191,0,l),
(388,941,ls),
(458,1278,o),
(576,1381,o),
(741,1381,cs),
(892,1381,o),
(1010,1295,o),
(1010,1146,cs),
(1010,994,o),
(890,893,o),
(727,893,cs),
(518,893,l),
(486,738,l),
(623,738,ls),
(861,738,o),
(913,598,o),
(913,480,cs),
(913,285,o),
(771,119,o),
(559,119,cs),
(449,119,o),
(371,163,o),
(328,243,c),
(293,68,l),
(357,8,o),
(450,-24,o),
(570,-24,cs)
);
}
);
width = 1194;
},
{
background = {
shapes = (
{
closed = 1;
nodes = (
(934,-28,o),
(1174,156,o),
(1232,432,cs),
(1273,627,o),
(1193,765,o),
(979,799,c),
(1203,820,o),
(1305,975,o),
(1336,1123,cs),
(1393,1394,o),
(1191,1528,o),
(907,1528,cs),
(547,1528,o),
(258,1313,o),
(181,942,cs),
(-18,0,l),
(366,0,l),
(574,988,ls),
(610,1157,o),
(695,1217,o),
(807,1217,cs),
(924,1217,o),
(955,1150,o),
(938,1072,cs),
(919,981,o),
(846,920,o),
(739,918,cs),
(680,917,l),
(626,661,l),
(673,661,ls),
(829,661,o),
(867,570,o),
(846,468,cs),
(821,351,o),
(727,265,o),
(612,265,cs),
(561,265,o),
(524,282,o),
(500,315,c),
(441,34,l),
(490,-5,o),
(565,-28,o),
(675,-28,cs)
);
}
);
};
layerId = "F6FF57EF-12AD-4CA4-84B8-F83D8C5A96DF";
shapes = (
{
closed = 1;
nodes = (
(1006,-28,o),
(1240,172,o),
(1240,453,cs),
(1240,617,o),
(1160,717,o),
(977,766,c),
(1230,766,o),
(1344,973,o),
(1344,1149,cs),
(1344,1422,o),
(1071,1528,o),
(833,1528,cs),
(525,1528,o),
(264,1351,o),
(178,942,cs),
(-20,0,l,{
name = "";
}),
(364,0,l,{
name = "";
}),
(572,988,ls),
(610,1168,o),
(691,1217,o),
(784,1217,cs),
(888,1217,o),
(941,1156,o),
(941,1080,cs),
(941,998,o),
(880,918,o),
(762,918,cs),
(695,918,l),
(641,661,l),
(686,661,ls),
(813,661,o),
(849,579,o),
(849,500,cs),
(849,399,o),
(789,265,o),
(627,265,cs),
(566,265,o),
(524,284,o),
(499,321,c),
(451,89,l),
(509,24,o),
(600,-28,o),
(737,-28,cs)
);
}
);
width = 1309;
}
);
unicode = 223;
},
{
glyphname = t;
kernLeft = t;
kernRight = t;
layers = (
{
anchors = (
{
name = bottom;
pos = (295,0);
},
{
name = center;
pos = (244,150);
},
{
name = centerExt;
pos = (728,720);
},
{
name = topright;
pos = (934,1950);
},
{
name = ttop;
pos = (407,1080);
}
);
layerId = "F3C0A8D3-A3E8-4ECE-8090-B83518D65089";
name = Regular;
shapes = (
{
closed = 1;
nodes = (
(468,0,l),
(498,143,l),
(350,143,ls),
(314,143,o),
(305,156,o),
(314,198,cs),
(471,937,l),
(664,937,l),
(693,1080,l),
(501,1080,l),
(557,1343,l),
(383,1306,l),
(336,1080,l),
(167,1080,l),
(138,937,l),
(305,937,l),
(142,169,ls),
(121,72,o),
(185,0,o),
(293,0,cs)
);
}
);
width = 654;
},
{
anchors = (
{
name = bottom;
pos = (357,0);
},
{
name = center;
pos = (282,96);
},
{
name = centerExt;
pos = (907,720);
},
{
name = topright;
pos = (1047,1950);
},
{
name = ttop;
pos = (613,1080);
}
);
background = {
shapes = (
{
pos = (78,0);
ref = l;
}
);
};
layerId = "F6FF57EF-12AD-4CA4-84B8-F83D8C5A96DF";
name = "800";
shapes = (
{
closed = 1;
nodes = (
(637,0,l),
(696,280,l),
(537,280,ls),
(497,280,o),
(492,291,o),
(501,336,cs),
(599,800,l),
(758,800,l),
(817,1080,l),
(657,1080,l),
(721,1381,l),
(316,1281,l),
(273,1080,l),
(140,1080,l),
(81,800,l),
(215,800,l),
(113,317,ls),
(69,110,o),
(167,0,o),
(397,0,cs)
);
}
);
width = 792;
}
);
tags = (
angular
);
unicode = 116;
userData = {
KernOnName = t;
};
},
{
glyphname = u;
kernLeft = u;
kernRight = u;
layers = (
{
anchors = (
{
name = bottom;
pos = (462,0);
},
{
name = ogonek;
pos = (990,0);
},
{
name = top;
pos = (679,1080);
},
{
name = topright;
pos = (1234,1080);
}
);
background = {
shapes = (
{
closed = 1;
nodes = (
(573,-24,o),
(689,59,o),
(764,173,c),
(759,219,l),
(750,174,ls),
(729,67,o),
(794,0,o),
(898,0,cs),
(994,0,l),
(1024,147,l),
(955,147,ls),
(920,147,o),
(909,160,o),
(918,202,cs),
(1106,1080,l),
(939,1080,l),
(809,467,ls),
(762,246,o),
(622,115,o),
(448,115,cs),
(283,115,o),
(239,235,o),
(277,415,cs),
(419,1080,l),
(253,1080,l),
(109,402,ls),
(62,180,o),
(143,-24,o),
(406,-24,cs)
);
}
);
};
layerId = "F3C0A8D3-A3E8-4ECE-8090-B83518D65089";
name = "Regular Italic";
shapes = (
{
closed = 1;
nodes = (
(569,-24,o),
(685,59,o),
(760,173,c),
(755,219,l),
(746,174,ls),
(725,67,o),
(790,0,o),
(894,0,cs),
(990,0,l),
(1020,147,l),
(951,147,ls),
(916,147,o),
(905,160,o),
(914,202,cs),
(1102,1080,l),
(935,1080,l),
(805,467,ls),
(758,246,o),
(618,115,o),
(444,115,cs),
(279,115,o),
(235,235,o),
(273,415,cs),
(415,1080,l),
(249,1080,l),
(105,402,ls),
(58,180,o),
(139,-24,o),
(402,-24,cs)
);
}
);
width = 1171;
},
{
anchors = (
{
name = bottom;
pos = (509,0);
},
{
name = ogonek;
pos = (1109,0);
},
{
name = top;
pos = (689,1080);
},
{
name = topright;
pos = (1344,1080);
}
);
background = {
shapes = (
{
pos = (-33,0);
ref = a;
}
);
};
guides = (
{
angle = 78;
pos = (733,1080);
},
{
pos = (733,1080);
}
);
layerId = "F6FF57EF-12AD-4CA4-84B8-F83D8C5A96DF";
name = "Black Italic";
shapes = (
{
closed = 1;
nodes = (
(499,-28,o),
(638,51,o),
(732,208,c),
(733,383,l),
(719,317,ls),
(678,123,o),
(744,0,o),
(962,0,cs),
(1109,0,l),
(1168,280,l),
(1103,280,ls),
(1064,280,o),
(1060,292,o),
(1069,336,cs),
(1225,1080,l),
(841,1080,l),
(748,639,ls),
(688,354,o),
(616,244,o),
(508,244,cs),
(401,244,o),
(407,350,o),
(428,453,cs),
(557,1080,l),
(174,1080,l),
(40,439,ls),
(-14,181,o),
(61,-28,o),
(332,-28,cs)
);
}
);
width = 1263;
}
);
unicode = 117;
userData = {
KernOnName = u;
};
},
{
glyphname = v;
kernLeft = v;
kernRight = v;
layers = (
{
layerId = "F3C0A8D3-A3E8-4ECE-8090-B83518D65089";
shapes = (
{
closed = 1;
nodes = (
(508,0,l),
(1134,1080,l),
(937,1080,l),
(402,98,l),
(441,98,l),
(344,1080,l),
(164,1080,l),
(304,0,l)
);
}
);
width = 1066;
},
{
background = {
shapes = (
{
closed = 1;
nodes = (
(915,0,l),
(1309,1080,l),
(879,1080,l),
(680,304,l),
(704,304,l),
(504,1080,l),
(74,1080,l),
(468,0,l)
);
}
);
};
layerId = "F6FF57EF-12AD-4CA4-84B8-F83D8C5A96DF";
shapes = (
{
closed = 1;
nodes = (
(738,0,l),
(1360,1080,l),
(894,1080,l),
(533,244,l),
(574,244,l),
(534,1080,l),
(124,1080,l),
(292,0,l)
);
}
);
width = 1254;
}
);
unicode = 118;
userData = {
KernOnName = v;
};
},
{
glyphname = w;
kernLeft = w;
kernRight = w;
layers = (
{
anchors = (
{
name = bottom;
pos = (676,0);
},
{
name = top;
pos = (856,1080);
}
);
layerId = "F3C0A8D3-A3E8-4ECE-8090-B83518D65089";
shapes = (
{
closed = 1;
nodes = (
(441,0,l),
(876,966,l),
(847,966,l),
(861,0,l),
(1106,0,l),
(1643,1080,l),
(1456,1080,l),
(995,107,l),
(1019,107,l),
(991,1080,l),
(775,1080,l),
(316,46,l),
(368,46,l),
(338,1080,l),
(171,1080,l),
(231,0,l)
);
}
);
width = 1582;
},
{
anchors = (
{
name = bottom;
pos = (803,0);
},
{
name = top;
pos = (1013,1080);
}
);
background = {
shapes = (
{
closed = 1;
nodes = (
(822,0,l),
(990,966,l),
(923,966,l),
(1085,0,l),
(1615,0,l),
(1842,1080,l),
(1474,1080,l),
(1361,255,l),
(1386,255,l),
(1228,1080,l),
(711,1080,l),
(548,254,l),
(568,254,l),
(462,1080,l),
(66,1080,l),
(291,0,l)
);
}
);
};
guides = (
{
pos = (441,294);
}
);
layerId = "F6FF57EF-12AD-4CA4-84B8-F83D8C5A96DF";
shapes = (
{
closed = 1;
nodes = (
(661,0,l),
(1037,966,l),
(981,966,l),
(941,0,l),
(1462,0,l),
(1916,1080,l),
(1526,1080,l),
(1232,221,l),
(1255,221,l),
(1279,1080,l),
(763,1080,l),
(426,254,l),
(441,254,l),
(501,1080,l),
(140,1080,l),
(137,0,l)
);
}
);
width = 1826;
}
);
unicode = 119;
userData = {
KernOnName = w;
};
},
{
glyphname = x;
kernLeft = x;
kernRight = x;
layers = (
{
background = {
shapes = (
{
closed = 1;
nodes = (
(498,734,l),
(334,1080,l),
(165,1080,l),
(388,626,l)
);
},
{
closed = 1;
nodes = (
(697,460,l),
(646,559,l),
(1139,1080,l),
(923,1080,l),
(573,681,l),
(548,734,l),
(438,626,l),
(463,575,l),
(-72,0,l),
(138,0,l),
(538,439,l),
(571,371,l)
);
},
{
closed = 1;
nodes = (
(621,371,l),
(797,0,l),
(983,0,l),
(747,460,l)
);
}
);
};
layerId = "F3C0A8D3-A3E8-4ECE-8090-B83518D65089";
name = "400 Italic";
shapes = (
{
closed = 1;
nodes = (
(138,0,l),
(542,443,l),
(752,0,l),
(938,0,l),
(650,563,l),
(1139,1080,l),
(923,1080,l),
(558,663,l),
(359,1080,l),
(190,1080,l),
(446,557,l),
(-72,0,l)
);
}
);
width = 1097;
},
{
background = {
shapes = (
{
closed = 1;
nodes = (
(871,498,l),
(864,512,l),
(1366,1080,l),
(910,1080,l),
(651,729,l),
(512,1080,l),
(134,1080,l),
(395,552,l),
(-107,0,l),
(349,0,l),
(618,346,l),
(629,317,l)
);
},
{
closed = 1;
nodes = (
(609,317,l),
(729,0,l),
(1106,0,l),
(851,498,l)
);
}
);
};
layerId = "F6FF57EF-12AD-4CA4-84B8-F83D8C5A96DF";
shapes = (
{
closed = 1;
nodes = (
(349,0,l),
(605,329,l),
(729,0,l),
(1106,0,l),
(851,497,l),
(1366,1080,l),
(910,1080,l),
(651,729,l),
(512,1080,l),
(134,1080,l),
(395,552,l),
(-107,0,l)
);
}
);
width = 1256;
}
);
unicode = 120;
userData = {
KernOnName = x;
};
},
{
glyphname = y;
kernLeft = y;
kernRight = y;
layers = (
{
anchors = (
{
name = bottom;
pos = (441,0);
},
{
name = top;
pos = (630,1080);
}
);
background = {
shapes = (
{
closed = 1;
nodes = (
(143,-390,ls),
(215,-390,o),
(300,-343,o),
(344,-269,cs),
(1143,1080,l),
(957,1080,l),
(406,94,l),
(441,85,l),
(307,1080,l),
(119,1080,l),
(314,-56,l),
(347,21,l),
(222,-202,ls),
(203,-236,o),
(189,-250,o),
(165,-250,cs),
(1,-250,l),
(-29,-390,l)
);
}
);
};
layerId = "F3C0A8D3-A3E8-4ECE-8090-B83518D65089";
shapes = (
{
closed = 1;
nodes = (
(143,-390,ls),
(239,-390,o),
(294,-358,o),
(347,-269,cs),
(1163,1080,l),
(969,1080,l),
(404,80,l),
(444,71,l),
(336,1080,l),
(157,1080,l),
(329,-57,l),
(343,21,l),
(226,-194,ls),
(207,-229,o),
(184,-243,o),
(154,-243,cs),
(15,-243,l),
(-16,-390,l)
);
}
);
width = 1089;
},
{
anchors = (
{
name = bottom;
pos = (549,0);
},
{
name = top;
pos = (727,1080);
}
);
background = {
shapes = (
{
closed = 1;
nodes = (
(316,-390,ls),
(441,-390,o),
(536,-347,o),
(626,-202,cs),
(1420,1080,l),
(961,1080,l),
(565,304,l),
(593,304,l),
(537,1080,l),
(117,1080,l),
(342,-112,l),
(370,21,l),
(314,-74,ls),
(296,-104,o),
(285,-110,o),
(254,-110,cs),
(76,-110,l),
(17,-390,l)
);
}
);
};
guides = (
{
angle = 78;
pos = (749,1080);
},
{
pos = (749,1080);
}
);
layerId = "F6FF57EF-12AD-4CA4-84B8-F83D8C5A96DF";
shapes = (
{
closed = 1;
nodes = (
(316,-390,ls),
(441,-390,o),
(536,-347,o),
(626,-202,cs),
(1420,1080,l),
(961,1080,l),
(553,268,l),
(581,268,l),
(537,1080,l),
(117,1080,l),
(342,-112,l),
(370,21,l),
(314,-74,ls),
(296,-104,o),
(285,-110,o),
(254,-110,cs),
(86,-110,l),
(27,-390,l)
);
}
);
width = 1307;
}
);
tags = (
angular
);
unicode = 121;
userData = {
KernOnName = y;
};
},
{
glyphname = z;
kernLeft = z;
kernRight = z;
layers = (
{
anchors = (
{
name = bottom;
pos = (385,0);
},
{
name = center;
pos = (500,540);
},
{
name = top;
pos = (616,1080);
}
);
background = {
shapes = (
{
closed = 1;
nodes = (
(832,0,l),
(863,144,l),
(181,144,l),
(1005,936,l),
(1036,1080,l),
(212,1080,l),
(181,936,l),
(803,936,l),
(-11,144,l),
(-42,0,l)
);
}
);
};
layerId = "F3C0A8D3-A3E8-4ECE-8090-B83518D65089";
shapes = (
{
closed = 1;
nodes = (
(813,0,l),
(844,147,l),
(179,147,l),
(989,936,l),
(1020,1080,l),
(211,1080,l),
(179,933,l),
(789,933,l),
(-11,144,l),
(-42,0,l)
);
}
);
width = 1000;
},
{
anchors = (
{
name = bottom;
pos = (430,0);
},
{
name = center;
pos = (545,540);
},
{
name = top;
pos = (666,1080);
}
);
background = {
shapes = (
{
closed = 1;
nodes = (
(947,0,l),
(1018,334,l),
(514,334,l),
(1116,810,l),
(1173,1080,l),
(185,1080,l),
(115,748,l),
(588,748,l),
(-18,266,l),
(-74,0,l)
);
}
);
};
layerId = "F6FF57EF-12AD-4CA4-84B8-F83D8C5A96DF";
shapes = (
{
closed = 1;
nodes = (
(940,0,l),
(1007,315,l),
(500,315,l),
(1108,810,l),
(1166,1080,l),
(197,1080,l),
(130,767,l),
(600,767,l),
(-8,266,l),
(-64,0,l)
);
}
);
width = 1116;
}
);
unicode = 122;
userData = {
KernOnName = z;
};
},
{
glyphname = ordfeminine;
kernRight = ordfeminine;
layers = (
{
guides = (
{
angle = 78;
pos = (7,273);
}
);
layerId = "F3C0A8D3-A3E8-4ECE-8090-B83518D65089";
shapes = (
{
closed = 1;
nodes = (
(517,659,o),
(606,731,o),
(659,824,c),
(638,830,l),
(628,776,ls),
(616,712,o),
(660,675,o),
(730,675,cs),
(811,675,l),
(835,792,l),
(803,792,ls),
(770,792,o),
(772,809,o),
(777,834,cs),
(835,1114,ls),
(882,1341,o),
(785,1448,o),
(576,1448,cs),
(412,1448,o),
(298,1368,o),
(257,1251,c),
(410,1207,l),
(431,1286,o),
(485,1335,o),
(569,1335,cs),
(686,1335,o),
(722,1265,o),
(697,1146,cs),
(688,1104,l),
(704,1136,l),
(587,1136,ls),
(371,1136,o),
(152,1080,o),
(152,867,cs),
(152,730,o),
(262,659,o),
(391,659,cs)
);
},
{
closed = 1;
nodes = (
(803,428,l),
(830,554,l),
(95,554,l),
(68,428,l)
);
},
{
closed = 1;
nodes = (
(368,771,o),
(311,806,o),
(311,879,cs),
(311,1002,o),
(441,1034,o),
(566,1034,cs),
(674,1034,l),
(669,1007,ls),
(640,841,o),
(540,771,o),
(439,771,cs)
);
}
);
width = 920;
},
{
layerId = "F6FF57EF-12AD-4CA4-84B8-F83D8C5A96DF";
shapes = (
{
closed = 1;
nodes = (
(570,650,o),
(623,775,o),
(657,857,c),
(621,886,l),
(614,829,ls),
(604,747,o),
(668,670,o),
(792,670,cs),
(917,670,l),
(961,892,l),
(939,892,ls),
(907,892,o),
(910,916,o),
(915,939,cs),
(933,1027,ls),
(993,1318,o),
(870,1441,o),
(593,1441,cs),
(378,1441,o),
(290,1371,o),
(213,1207,c),
(519,1167,l),
(546,1226,o),
(561,1247,o),
(600,1247,cs),
(656,1247,o),
(650,1194,o),
(640,1145,cs),
(631,1098,l),
(648,1130,l),
(576,1130,ls),
(408,1130,o),
(122,1118,o),
(122,879,cs),
(122,703,o),
(265,650,o),
(384,650,cs)
);
},
{
closed = 1;
nodes = (
(913,403,l),
(950,578,l),
(60,578,l),
(23,403,l)
);
},
{
closed = 1;
nodes = (
(478,849,o),
(444,856,o),
(444,903,cs),
(444,984,o),
(554,972,o),
(566,972,cs),
(609,972,l),
(601,940,ls),
(587,892,o),
(570,849,o),
(505,849,cs)
);
}
);
width = 1043;
}
);
unicode = 170;
userData = {
KernOnSpecialSpacing = {
L = superiors;
R = superiors;
};
};
},
{
glyphname = ordmasculine;
kernRight = ordmasculine;
layers = (
{
background = {
shapes = (
{
closed = 1;
nodes = (
(771,428,l),
(797,554,l),
(94,554,l),
(68,428,l)
);
}
);
};
guides = (
{
angle = 78;
pos = (719,168);
},
{
angle = 78;
pos = (-2,189);
}
);
layerId = "F3C0A8D3-A3E8-4ECE-8090-B83518D65089";
shapes = (
{
closed = 1;
nodes = (
(756,658,o),
(921,885,o),
(921,1116,cs),
(921,1326,o),
(784,1448,o),
(602,1448,cs),
(354,1448,o),
(191,1220,o),
(191,990,cs),
(191,779,o),
(328,658,o),
(508,658,cs)
);
},
{
closed = 1;
nodes = (
(791,428,l),
(817,553,l),
(100,553,l),
(74,428,l)
);
},
{
closed = 1;
nodes = (
(409,777,o),
(347,854,o),
(347,978,cs),
(347,1116,o),
(423,1329,o),
(597,1329,cs),
(703,1329,o),
(765,1250,o),
(765,1128,cs),
(765,991,o),
(690,777,o),
(514,777,cs)
);
}
);
width = 899;
},
{
layerId = "F6FF57EF-12AD-4CA4-84B8-F83D8C5A96DF";
shapes = (
{
closed = 1;
nodes = (
(781,650,o),
(966,858,o),
(966,1096,cs),
(966,1319,o),
(803,1446,o),
(600,1446,cs),
(338,1446,o),
(159,1234,o),
(159,999,cs),
(159,776,o),
(320,650,o),
(523,650,cs)
);
},
{
closed = 1;
nodes = (
(816,403,l),
(852,578,l),
(65,578,l),
(29,403,l)
);
},
{
closed = 1;
nodes = (
(495,875,o),
(478,912,o),
(478,969,cs),
(478,1057,o),
(518,1222,o),
(595,1222,cs),
(629,1222,o),
(646,1185,o),
(646,1127,cs),
(646,1042,o),
(608,875,o),
(530,875,cs)
);
}
);
width = 909;
}
);
unicode = 186;
userData = {
KernOnSpecialSpacing = {
L = superiors;
R = superiors;
};
};
},
{
glyphname = Delta;
kernLeft = Delta;
layers = (
{
background = {
shapes = (
{
pos = (-22,0);
ref = A;
}
);
};
layerId = "F3C0A8D3-A3E8-4ECE-8090-B83518D65089";
shapes = (
{
closed = 1;
nodes = (
(1197,0,l),
(1223,122,l),
(970,1440,l),
(814,1440,l),
(-38,122,l),
(-63,0,l)
);
},
{
closed = 1;
nodes = (
(849,1237,l),
(1041,158,l),
(187,158,l)
);
}
);
width = 1364;
},
{
background = {
shapes = (
{
closed = 1;
nodes = (
(276,0,l),
(942,1187,l),
(1111,0,l),
(1432,0,l),
(1502,332,l),
(1245,1440,l),
(708,1440,l),
(-17,331,l),
(-87,0,l)
);
},
{
closed = 1;
nodes = (
(1127,0,l),
(1200,350,l),
(288,350,l),
(215,0,l)
);
}
);
};
layerId = "F6FF57EF-12AD-4CA4-84B8-F83D8C5A96DF";
shapes = (
{
closed = 1;
nodes = (
(1432,0,l),
(1496,302,l),
(1245,1440,l),
(708,1440,l),
(-23,301,l),
(-87,0,l)
);
},
{
closed = 1;
nodes = (
(942,1187,l),
(1061,350,l),
(472,350,l)
);
}
);
width = 1575;
}
);
unicode = 916;
},
{
glyphname = Pi;
kernLeft = Pi;
layers = (
{
layerId = "F3C0A8D3-A3E8-4ECE-8090-B83518D65089";
shapes = (
{
closed = 1;
nodes = (
(1023,-120,l),
(1333,1339,l),
(1153,1339,l),
(843,-120,l)
);
},
{
closed = 1;
nodes = (
(261,-120,l),
(571,1339,l),
(391,1339,l),
(81,-120,l)
);
},
{
closed = 1;
nodes = (
(1494,1292,l),
(1526,1440,l),
(236,1440,l),
(204,1292,l)
);
}
);
width = 1379;
},
{
layerId = "F6FF57EF-12AD-4CA4-84B8-F83D8C5A96DF";
shapes = (
{
closed = 1;
nodes = (
(1149,-123,l),
(1453,1307,l),
(1053,1307,l),
(749,-123,l)
);
},
{
closed = 1;
nodes = (
(467,-123,l),
(771,1307,l),
(361,1307,l),
(57,-123,l)
);
},
{
closed = 1;
nodes = (
(1578,1090,l),
(1652,1440,l),
(212,1440,l),
(138,1090,l)
);
}
);
width = 1483;
}
);
unicode = 928;
},
{
glyphname = Sigma;
kernLeft = Sigma;
layers = (
{
layerId = "F3C0A8D3-A3E8-4ECE-8090-B83518D65089";
shapes = (
{
closed = 1;
nodes = (
(1009,0,l),
(1042,154,l),
(196,154,l),
(748,720,l),
(435,1286,l),
(1212,1286,l),
(1245,1440,l),
(250,1440,l),
(224,1320,l),
(556,720,l),
(-30,118,l),
(-55,0,l)
);
}
);
width = 1182;
},
{
layerId = "F6FF57EF-12AD-4CA4-84B8-F83D8C5A96DF";
shapes = (
{
closed = 1;
nodes = (
(1105,0,l),
(1179,350,l),
(530,350,l),
(935,720,l),
(688,1090,l),
(1337,1090,l),
(1411,1440,l),
(236,1440,l),
(183,1191,l),
(495,720,l),
(-17,249,l),
(-70,0,l)
);
}
);
width = 1281;
}
);
unicode = 931;
},
{
glyphname = Omega;
kernLeft = Omega;
layers = (
{
background = {
shapes = (
{
pos = (-10,0);
ref = O;
}
);
};
layerId = "F3C0A8D3-A3E8-4ECE-8090-B83518D65089";
shapes = (
{
closed = 1;
nodes = (
(543,0,l),
(582,197,l),
(414,247,o),
(329,412,o),
(329,615,cs),
(329,902,o),
(499,1312,o),
(895,1312,cs),
(1163,1312,o),
(1308,1125,o),
(1308,825,cs),
(1308,535,o),
(1173,302,o),
(848,187,c),
(810,0,l),
(1348,0,l),
(1382,158,l),
(1084,158,l),
(1415,278,o),
(1503,626,o),
(1503,853,cs),
(1503,1222,o),
(1270,1464,o),
(897,1464,cs),
(392,1464,o),
(134,1020,o),
(134,607,cs),
(134,385,o),
(209,260,o),
(334,158,c),
(40,158,l),
(8,0,l)
);
}
);
width = 1557;
},
{
background = {
shapes = (
{
pos = (29,0);
ref = O;
}
);
};
layerId = "F6FF57EF-12AD-4CA4-84B8-F83D8C5A96DF";
shapes = (
{
closed = 1;
nodes = (
(586,0,l),
(654,325,l),
(555,402,o),
(521,496,o),
(521,617,cs),
(521,793,o),
(616,1118,o),
(891,1118,cs),
(1048,1118,o),
(1149,1016,o),
(1149,830,cs),
(1149,655,o),
(1075,377,o),
(834,325,c),
(766,0,l),
(1432,0,l),
(1505,345,l),
(1265,345,l),
(1485,420,o),
(1564,634,o),
(1564,824,cs),
(1564,1263,o),
(1258,1468,o),
(910,1468,cs),
(372,1468,o),
(107,995,o),
(107,659,cs),
(107,496,o),
(199,393,o),
(282,345,c),
(42,345,l),
(-31,0,l)
);
}
);
width = 1579;
}
);
unicode = 937;
},
{
glyphname = alpha;
kernLeft = alpha;
layers = (
{
layerId = "F3C0A8D3-A3E8-4ECE-8090-B83518D65089";
shapes = (
{
closed = 1;
nodes = (
(583,-24,o),
(722,47,o),
(823,210,c),
(782,218,l),
(772,169,ls),
(752,71,o),
(816,0,o),
(922,0,cs),
(1017,0,l),
(1046,143,l),
(979,143,ls),
(939,143,o),
(935,159,o),
(943,198,cs),
(1130,1080,l),
(973,1080,l),
(920,835,l),
(932,859,l),
(895,1011,o),
(747,1104,o),
(582,1104,cs),
(241,1104,o),
(69,702,o),
(69,416,cs),
(69,164,o),
(202,-24,o),
(438,-24,cs)
);
},
{
closed = 1;
nodes = (
(344,119,o),
(252,214,o),
(252,413,cs),
(252,628,o),
(360,961,o),
(618,961,cs),
(761,961,o),
(871,858,o),
(871,656,cs),
(871,457,o),
(762,119,o),
(489,119,cs)
);
}
);
width = 1210;
},
{
background = {
shapes = (
{
closed = 1;
nodes = (
(589,-28,o),
(742,26,o),
(840,196,c),
(769,346,l),
(763,316,ls),
(722,111,o),
(817,0,o),
(1046,0,c),
(1192,0,l),
(1251,280,l),
(1186,280,ls),
(1146,280,o),
(1142,292,o),
(1151,336,cs),
(1308,1080,l),
(924,1080,l),
(880,872,l),
(916,869,l),
(880,1018,o),
(781,1108,o),
(589,1108,cs),
(162,1108,o),
(43,660,o),
(43,403,cs),
(43,129,o),
(178,-28,o),
(459,-28,cs)
);
},
{
closed = 1;
nodes = (
(502,269,o),
(451,336,o),
(451,448,cs),
(451,573,o),
(515,813,o),
(684,813,cs),
(775,813,o),
(836,743,o),
(836,618,cs),
(836,487,o),
(768,269,o),
(597,269,cs)
);
}
);
};
layerId = "F6FF57EF-12AD-4CA4-84B8-F83D8C5A96DF";
shapes = (
{
closed = 1;
nodes = (
(616,-28,o),
(773,65,o),
(846,257,c),
(804,346,l),
(798,316,ls),
(757,112,o),
(847,0,o),
(1051,0,c),
(1197,0,l),
(1256,280,l),
(1191,280,ls),
(1151,280,o),
(1147,292,o),
(1156,336,cs),
(1313,1080,l),
(929,1080,l),
(885,872,l),
(921,869,l),
(885,1018,o),
(786,1108,o),
(594,1108,cs),
(167,1108,o),
(48,660,o),
(48,401,cs),
(48,129,o),
(180,-28,o),
(426,-28,cs)
);
},
{
closed = 1;
nodes = (
(507,269,o),
(456,336,o),
(456,448,cs),
(456,573,o),
(520,813,o),
(689,813,cs),
(780,813,o),
(841,743,o),
(841,618,cs),
(841,487,o),
(773,269,o),
(602,269,cs)
);
}
);
width = 1351;
}
);
tags = (
overshot
);
unicode = 945;
},
{
glyphname = beta;
kernLeft = beta;
layers = (
{
layerId = "F3C0A8D3-A3E8-4ECE-8090-B83518D65089";
shapes = (
{
closed = 1;
nodes = (
(76,-390,l),
(200,204,l),
(184,192,l),
(227,53,o),
(352,-24,o),
(537,-24,cs),
(895,-24,o),
(1061,265,o),
(1061,475,cs),
(1061,625,o),
(975,754,o),
(813,801,c),
(1008,826,o),
(1154,960,o),
(1154,1154,cs),
(1154,1380,o),
(956,1524,o),
(728,1524,cs),
(457,1524,o),
(269,1323,o),
(202,1004,cs),
(-90,-390,l)
);
},
{
closed = 1;
nodes = (
(313,119,o),
(219,286,o),
(272,541,cs),
(355,941,ls),
(425,1278,o),
(543,1381,o),
(708,1381,cs),
(859,1381,o),
(977,1295,o),
(977,1146,cs),
(977,994,o),
(857,893,o),
(694,893,cs),
(485,893,l),
(453,738,l),
(590,738,ls),
(828,738,o),
(880,598,o),
(880,480,cs),
(880,285,o),
(738,119,o),
(526,119,cs)
);
}
);
width = 1188;
},
{
background = {
shapes = (
{
pos = (30,0);
ref = p;
}
);
};
layerId = "F6FF57EF-12AD-4CA4-84B8-F83D8C5A96DF";
shapes = (
{
closed = 1;
nodes = (
(286,-390,l),
(421,250,l),
(370,257,l),
(394,148,o),
(488,-28,o),
(741,-28,cs),
(1010,-28,o),
(1244,172,o),
(1244,453,cs),
(1244,617,o),
(1164,717,o),
(981,766,c),
(1234,766,o),
(1348,973,o),
(1348,1149,cs),
(1348,1422,o),
(1075,1528,o),
(837,1528,cs),
(529,1528,o),
(268,1351,o),
(182,942,cs),
(-98,-390,l)
);
},
{
closed = 1;
nodes = (
(483,265,o),
(446,376,o),
(492,593,cs),
(576,988,ls),
(614,1168,o),
(695,1217,o),
(788,1217,cs),
(892,1217,o),
(945,1156,o),
(945,1080,cs),
(945,998,o),
(884,918,o),
(766,918,cs),
(699,918,l),
(645,661,l),
(690,661,ls),
(817,661,o),
(853,579,o),
(853,500,cs),
(853,399,o),
(793,265,o),
(631,265,cs)
);
}
);
width = 1303;
}
);
tags = (
overshot
);
unicode = 946;
},
{
glyphname = mu;
kernLeft = mu;
layers = (
{
layerId = "F3C0A8D3-A3E8-4ECE-8090-B83518D65089";
shapes = (
{
closed = 1;
nodes = (
(78,-390,l),
(213,250,l),
(167,232,l),
(159,69,o),
(250,-24,o),
(412,-24,cs),
(560,-24,o),
(675,59,o),
(794,234,c),
(750,250,l),
(675,71,o),
(770,0,o),
(853,0,cs),
(971,0,l),
(1000,140,l),
(939,140,ls),
(899,140,o),
(893,151,o),
(903,196,cs),
(1089,1080,l),
(924,1080,l),
(799,484,ls),
(736,186,o),
(569,116,o),
(436,116,cs),
(184,116,o),
(237,367,o),
(248,416,cs),
(387,1080,l),
(222,1080,l),
(-87,-390,l)
);
}
);
width = 1193;
},
{
layerId = "F6FF57EF-12AD-4CA4-84B8-F83D8C5A96DF";
shapes = (
{
closed = 1;
nodes = (
(305,-390,l),
(442,264,l),
(375,229,l),
(354,128,o),
(358,-13,o),
(531,-13,cs),
(668,-13,o),
(758,77,o),
(815,309,c),
(725,242,l),
(690,79,o),
(776,0,o),
(985,0,cs),
(1155,0,l),
(1214,280,l),
(1160,280,ls),
(1119,280,o),
(1115,293,o),
(1123,333,cs),
(1280,1080,l),
(896,1080,l),
(775,503,ls),
(727,273,o),
(637,264,o),
(592,264,cs),
(504,264,o),
(450,303,o),
(483,461,cs),
(614,1080,l),
(230,1080,l),
(-79,-390,l)
);
}
);
width = 1305;
}
);
unicode = 956;
},
{
glyphname = pi;
kernLeft = pi;
layers = (
{
background = {
shapes = (
{
closed = 1;
nodes = (
(273,0,l),
(471,937,l),
(897,937,l),
(732,153,ls),
(714,64,o),
(772,0,o),
(856,0,cs),
(1072,0,l),
(1102,143,l),
(943,143,ls),
(903,143,o),
(897,154,o),
(907,198,cs),
(1062,937,l),
(1268,936,l),
(1297,1079,l),
(174,1080,l),
(144,937,l),
(305,937,l),
(108,0,l)
);
}
);
};
layerId = "F3C0A8D3-A3E8-4ECE-8090-B83518D65089";
shapes = (
{
closed = 1;
nodes = (
(280,0,l),
(478,940,l),
(917,940,l),
(751,150,ls),
(733,63,o),
(793,0,o),
(876,0,cs),
(1075,0,l),
(1104,140,l),
(962,140,ls),
(921,140,o),
(916,151,o),
(925,195,cs),
(1082,940,l),
(1272,939,l),
(1302,1079,l),
(178,1080,l),
(149,940,l),
(313,940,l),
(116,0,l)
);
}
);
width = 1253;
},
{
background = {
shapes = (
{
closed = 1;
nodes = (
(408,0,l),
(576,800,l),
(816,800,l),
(708,287,ls),
(668,93,o),
(743,0,o),
(954,0,cs),
(1238,0,l),
(1297,280,l),
(1139,280,ls),
(1099,280,o),
(1093,291,o),
(1103,336,cs),
(1200,800,l),
(1381,800,l),
(1440,1080,l),
(118,1080,l),
(59,800,l),
(192,800,l),
(24,0,l)
);
}
);
};
layerId = "F6FF57EF-12AD-4CA4-84B8-F83D8C5A96DF";
shapes = (
{
closed = 1;
nodes = (
(434,0,l),
(602,800,l),
(842,800,l),
(735,287,ls),
(694,93,o),
(769,0,o),
(980,0,cs),
(1225,0,l),
(1284,280,l),
(1165,280,ls),
(1125,280,o),
(1119,291,o),
(1129,336,cs),
(1226,800,l),
(1393,800,l),
(1452,1080,l),
(144,1080,l),
(85,800,l),
(218,800,l),
(50,0,l)
);
}
);
width = 1409;
}
);
unicode = 960;
},
{
glyphname = "One-roman";
layers = (
{
layerId = "F3C0A8D3-A3E8-4ECE-8090-B83518D65089";
shapes = (
{
closed = 1;
nodes = (
(515,0,l),
(544,140,l),
(357,140,l),
(602,1300,l),
(788,1300,l),
(818,1440,l),
(267,1440,l),
(238,1300,l),
(425,1300,l),
(180,140,l),
(-6,140,l),
(-36,0,l)
);
}
);
width = 678;
},
{
layerId = "F6FF57EF-12AD-4CA4-84B8-F83D8C5A96DF";
shapes = (
{
closed = 1;
nodes = (
(747,0,l),
(814,316,l),
(615,316,l),
(786,1124,l),
(983,1124,l),
(1050,1440,l),
(261,1440,l),
(194,1124,l),
(393,1124,l),
(222,316,l),
(25,316,l),
(-42,0,l)
);
}
);
width = 932;
}
);
unicode = 8544;
},
{
glyphname = "Two-roman";
layers = (
{
layerId = "F3C0A8D3-A3E8-4ECE-8090-B83518D65089";
shapes = (
{
closed = 1;
nodes = (
(1052,0,l),
(1082,140,l),
(895,140,l),
(1139,1300,l),
(1326,1300,l),
(1355,1440,l),
(254,1440,l),
(224,1300,l),
(411,1300,l),
(167,140,l),
(-20,140,l),
(-49,0,l)
);
},
{
closed = 1;
nodes = (
(588,1300,l),
(962,1300,l),
(718,140,l),
(344,140,l)
);
}
);
width = 1229;
},
{
layerId = "F6FF57EF-12AD-4CA4-84B8-F83D8C5A96DF";
shapes = (
{
closed = 1;
nodes = (
(1329,0,l),
(1395,316,l),
(1197,316,l),
(1367,1124,l),
(1565,1124,l),
(1631,1440,l),
(245,1440,l),
(179,1124,l),
(377,1124,l),
(207,316,l),
(9,316,l),
(-57,0,l)
);
},
{
closed = 1;
nodes = (
(770,1124,l),
(974,1124,l),
(804,316,l),
(600,316,l)
);
}
);
width = 1498;
}
);
unicode = 8545;
},
{
glyphname = "Three-roman";
layers = (
{
layerId = "F3C0A8D3-A3E8-4ECE-8090-B83518D65089";
shapes = (
{
closed = 1;
nodes = (
(1603,0,l),
(1632,140,l),
(1445,140,l),
(1689,1300,l),
(1876,1300,l),
(1905,1440,l),
(253,1440,l),
(224,1300,l),
(411,1300,l),
(167,140,l),
(-20,140,l),
(-49,0,l)
);
},
{
closed = 1;
nodes = (
(587,1300,l),
(962,1300,l),
(718,140,l),
(344,140,l)
);
},
{
closed = 1;
nodes = (
(1138,1300,l),
(1512,1300,l),
(1269,140,l),
(894,140,l)
);
}
);
width = 1780;
},
{
layerId = "F6FF57EF-12AD-4CA4-84B8-F83D8C5A96DF";
shapes = (
{
closed = 1;
nodes = (
(1926,0,l),
(1993,316,l),
(1795,316,l),
(1965,1124,l),
(2163,1124,l),
(2229,1440,l),
(246,1440,l),
(179,1124,l),
(377,1124,l),
(207,316,l),
(9,316,l),
(-57,0,l)
);
},
{
closed = 1;
nodes = (
(771,1124,l),
(974,1124,l),
(804,316,l),
(601,316,l)
);
},
{
closed = 1;
nodes = (
(1368,1124,l),
(1571,1124,l),
(1401,316,l),
(1198,316,l)
);
}
);
width = 2096;
}
);
unicode = 8546;
},
{
glyphname = "Five-roman";
layers = (
{
layerId = "F3C0A8D3-A3E8-4ECE-8090-B83518D65089";
shapes = (
{
closed = 1;
nodes = (
(725,0,l,{
name = "";
}),
(1464,1440,l,{
name = "";
}),
(1283,1440,l,{
name = "";
}),
(619,84,l),
(672,84,l),
(574,1440,l,{
name = "";
}),
(396,1440,l,{
name = "";
}),
(531,0,l,{
name = "";
})
);
},
{
closed = 1;
nodes = (
(816,1300,l),
(845,1440,l),
(253,1440,l),
(224,1300,l)
);
},
{
closed = 1;
nodes = (
(1578,1300,l),
(1608,1440,l),
(1018,1440,l),
(988,1300,l)
);
}
);
width = 1482;
},
{
background = {
shapes = (
{
closed = 1;
nodes = (
(-659,0,l),
(-659,1440,l),
(-1069,1440,l),
(-1069,0,l)
);
},
{
closed = 1;
nodes = (
(1228,0,l),
(1228,345,l),
(-1275,345,l),
(-1275,0,l)
);
},
{
closed = 1;
nodes = (
(1228,1095,l),
(1228,1440,l),
(-1275,1440,l),
(-1275,1095,l)
);
},
{
closed = 1;
nodes = (
(640,0,l),
(1106,1440,l),
(664,1440,l),
(347,249,l),
(369,249,l),
(54,1440,l),
(-388,1440,l),
(80,0,l)
);
}
);
};
layerId = "F6FF57EF-12AD-4CA4-84B8-F83D8C5A96DF";
shapes = (
{
closed = 1;
nodes = (
(1012,0,l,{
name = "";
}),
(1743,1440,l,{
name = "";
}),
(1319,1440,l,{
name = "";
}),
(774,249,l),
(814,249,l),
(772,1440,l,{
name = "";
}),
(347,1440,l,{
name = "";
}),
(475,0,l,{
name = "";
})
);
},
{
closed = 1;
nodes = (
(905,1124,l),
(972,1440,l),
(251,1440,l),
(185,1124,l)
);
},
{
closed = 1;
nodes = (
(1774,1124,l),
(1840,1440,l),
(1125,1440,l),
(1059,1124,l)
);
}
);
width = 1713;
}
);
unicode = 8548;
},
{
glyphname = "Ten-roman";
layers = (
{
layerId = "F3C0A8D3-A3E8-4ECE-8090-B83518D65089";
shapes = (
{
closed = 1;
nodes = (
(287,0,l,{
name = "";
}),
(761,605,l),
(982,0,l,{
name = "";
}),
(1206,0,l,{
name = "";
}),
(900,742,l),
(1476,1440,l,{
name = "";
}),
(1270,1440,l,{
name = "";
}),
(822,861,l),
(613,1440,l,{
name = "";
}),
(398,1440,l,{
name = "";
}),
(685,746,l),
(76,0,l,{
name = "";
})
);
},
{
closed = 1;
nodes = (
(575,0,l),
(604,140,l),
(8,140,l),
(-21,0,l)
);
},
{
closed = 1;
nodes = (
(1297,0,l),
(1326,140,l),
(736,140,l),
(707,0,l)
);
},
{
closed = 1;
nodes = (
(848,1300,l),
(877,1440,l),
(281,1440,l),
(252,1300,l)
);
},
{
closed = 1;
nodes = (
(1570,1300,l),
(1599,1440,l),
(1009,1440,l),
(980,1300,l)
);
}
);
width = 1498;
},
{
layerId = "F6FF57EF-12AD-4CA4-84B8-F83D8C5A96DF";
shapes = (
{
closed = 1;
nodes = (
(537,273,l),
(769,570,l),
(904,273,l),
(1322,273,l),
(1057,724,l),
(1462,1157,l),
(1049,1157,l),
(843,891,l),
(720,1157,l),
(294,1157,l),
(544,733,l),
(112,273,l)
);
},
{
closed = 1;
nodes = (
(611,0,l),
(677,316,l),
(-7,316,l),
(-73,0,l)
);
},
{
closed = 1;
nodes = (
(1367,0,l),
(1433,316,l),
(771,316,l),
(705,0,l)
);
},
{
closed = 1;
nodes = (
(847,1125,l),
(913,1440,l),
(229,1440,l),
(163,1125,l)
);
},
{
closed = 1;
nodes = (
(1603,1125,l),
(1669,1440,l),
(1007,1440,l),
(941,1125,l)
);
}
);
width = 1506;
}
);
unicode = 8553;
},
{
glyphname = "Twelve-roman";
layers = (
{
layerId = "F3C0A8D3-A3E8-4ECE-8090-B83518D65089";
shapes = (
{
ref = "Ten-roman";
},
{
pos = (1099,0);
ref = "Two-roman";
}
);
width = 2314;
},
{
background = {
shapes = (
{
closed = 1;
nodes = (
(2676,0,l),
(2676,345,l),
(2470,345,l),
(2470,1095,l),
(2676,1095,l),
(2676,1440,l),
(42,1440,l),
(42,1095,l),
(256,1095,l),
(545,733,l),
(262,345,l),
(42,345,l),
(42,0,l)
);
},
{
closed = 1;
nodes = (
(805,540,l),
(949,345,l),
(681,345,l)
);
},
{
closed = 1;
nodes = (
(679,1095,l),
(922,1095,l),
(811,921,l)
);
},
{
closed = 1;
nodes = (
(1060,724,l),
(1329,1095,l),
(1438,1095,l),
(1438,345,l),
(1363,345,l)
);
},
{
closed = 1;
nodes = (
(1848,1095,l),
(2060,1095,l),
(2060,345,l),
(1848,345,l)
);
}
);
};
layerId = "F6FF57EF-12AD-4CA4-84B8-F83D8C5A96DF";
shapes = (
{
ref = "Ten-roman";
},
{
pos = (1257,0);
ref = "Two-roman";
}
);
width = 2771;
}
);
metricLeft = "Ten-roman";
metricRight = "One-roman";
unicode = 8555;
},
{
glyphname = "Fifty-roman";
layers = (
{
layerId = "F3C0A8D3-A3E8-4ECE-8090-B83518D65089";
shapes = (
{
closed = 1;
nodes = (
(1047,0,l),
(1130,389,l),
(950,389,l),
(898,148,l),
(358,148,l),
(603,1300,l),
(801,1300,l),
(831,1440,l),
(269,1440,l),
(239,1300,l),
(423,1300,l),
(177,140,l),
(-7,140,l),
(-37,0,l)
);
}
);
width = 1208;
},
{
layerId = "F6FF57EF-12AD-4CA4-84B8-F83D8C5A96DF";
shapes = (
{
closed = 1;
nodes = (
(1234,0,l),
(1368,630,l),
(958,630,l),
(898,350,l),
(635,350,l),
(800,1124,l),
(1016,1124,l),
(1083,1440,l),
(261,1440,l),
(194,1124,l),
(390,1124,l),
(218,316,l),
(22,316,l),
(-45,0,l)
);
}
);
width = 1373;
}
);
metricLeft = I;
metricRight = L;
unicode = 8556;
},
{
glyphname = "Hundred-roman";
layers = (
{
layerId = "F3C0A8D3-A3E8-4ECE-8090-B83518D65089";
shapes = (
{
closed = 1;
nodes = (
(955,-24,o),
(1144,120,o),
(1275,428,c),
(1140,484,l),
(1051,239,o),
(904,128,o),
(717,128,cs),
(471,128,o),
(313,321,o),
(313,606,cs),
(313,906,o),
(487,1312,o),
(864,1312,cs),
(1092,1312,o),
(1201,1164,o),
(1218,968,c),
(1352,1014,l),
(1323,1288,o),
(1129,1464,o),
(862,1464,cs),
(388,1464,o),
(119,1030,o),
(119,606,cs),
(119,211,o),
(353,-24,o),
(705,-24,cs)
);
},
{
closed = 1;
nodes = (
(1217,0,l),
(1320,484,l),
(1140,484,l),
(1037,0,l)
);
},
{
closed = 1;
nodes = (
(1398,968,l),
(1499,1440,l),
(1319,1440,l),
(1218,968,l)
);
}
);
width = 1385;
},
{
layerId = "F6FF57EF-12AD-4CA4-84B8-F83D8C5A96DF";
shapes = (
{
closed = 1;
nodes = (
(897,-28,o),
(1029,143,o),
(1092,445,c),
(1016,530,l),
(954,395,o),
(865,321,o),
(738,321,cs),
(589,321,o),
(492,422,o),
(492,606,cs),
(492,787,o),
(585,1118,o),
(844,1118,cs),
(981,1118,o),
(1095,1025,o),
(1088,873,c),
(1294,966,l),
(1283,1244,o),
(1102,1468,o),
(791,1468,cs),
(345,1468,o),
(76,1006,o),
(76,596,cs),
(76,174,o),
(361,-28,o),
(640,-28,cs)
);
},
{
closed = 1;
nodes = (
(1313,0,l),
(1426,530,l),
(1016,530,l),
(903,0,l)
);
},
{
closed = 1;
nodes = (
(1498,873,l),
(1618,1440,l),
(1208,1440,l),
(1088,873,l)
);
}
);
width = 1448;
}
);
metricLeft = C;
metricRight = C;
unicode = 8557;
},
{
glyphname = "Fivehundred-roman";
layers = (
{
layerId = "F3C0A8D3-A3E8-4ECE-8090-B83518D65089";
shapes = (
{
closed = 1;
nodes = (
(696,0,ls),
(1215,0,o),
(1465,419,o),
(1465,841,cs),
(1465,1197,o),
(1288,1440,o),
(905,1440,cs),
(269,1440,l),
(238,1296,l),
(422,1296,l),
(178,144,l),
(-6,144,l),
(-37,0,l)
);
},
{
closed = 1;
nodes = (
(602,1288,l),
(849,1288,ls),
(1159,1288,o),
(1272,1092,o),
(1272,837,cs),
(1272,529,o),
(1106,152,o),
(694,152,cs),
(359,152,l)
);
}
);
width = 1508;
},
{
layerId = "F6FF57EF-12AD-4CA4-84B8-F83D8C5A96DF";
shapes = (
{
closed = 1;
nodes = (
(912,0,ls),
(1491,0,o),
(1670,546,o),
(1670,868,cs),
(1670,1183,o),
(1517,1416,o),
(903,1440,c),
(261,1440,l),
(189,1095,l),
(387,1095,l),
(229,345,l),
(31,345,l),
(-41,0,l)
);
},
{
closed = 1;
nodes = (
(780,1090,l),
(896,1090,ls),
(1160,1090,o),
(1250,1016,o),
(1250,841,cs),
(1250,674,o),
(1166,350,o),
(861,350,cs),
(624,350,l)
);
}
);
width = 1669;
}
);
metricLeft = I;
metricRight = D;
unicode = 8558;
},
{
glyphname = "Thousand-roman";
layers = (
{
layerId = "F3C0A8D3-A3E8-4ECE-8090-B83518D65089";
shapes = (
{
closed = 1;
nodes = (
(525,0,l),
(555,140,l),
(388,140,l),
(685,1276,l),
(814,0,l),
(1012,0,l),
(1680,1287,l),
(1497,140,l),
(1293,140,l),
(1263,0,l),
(1825,0,l),
(1855,140,l),
(1671,140,l),
(1853,1300,l),
(2101,1300,l),
(2131,1440,l),
(1571,1440,l),
(945,209,l),
(839,1440,l),
(269,1440,l),
(239,1300,l),
(517,1300,l),
(211,140,l),
(-7,140,l),
(-37,0,l)
);
}
);
width = 2019;
},
{
layerId = "F6FF57EF-12AD-4CA4-84B8-F83D8C5A96DF";
shapes = (
{
closed = 1;
nodes = (
(670,0,l),
(738,316,l),
(650,316,l),
(854,1099,l),
(830,0,l),
(1304,0,l),
(1736,1083,l),
(1613,316,l),
(1516,316,l),
(1448,0,l),
(2183,0,l),
(2250,316,l),
(2000,316,l),
(2127,1124,l),
(2392,1124,l),
(2459,1440,l),
(1540,1440,l),
(1139,363,l),
(1183,1440,l),
(291,1440,l),
(224,1124,l),
(467,1124,l),
(254,316,l),
(22,316,l),
(-45,0,l)
);
}
);
width = 2368;
}
);
metricLeft = I;
metricRight = I;
unicode = 8559;
},
{
glyphname = zero;
kernLeft = zero;
kernRight = zero;
layers = (
{
layerId = "F3C0A8D3-A3E8-4ECE-8090-B83518D65089";
shapes = (
{
closed = 1;
nodes = (
(1042,-24,o),
(1210,592,o),
(1210,924,cs),
(1210,1259,o),
(1039,1464,o),
(758,1464,cs),
(273,1464,o),
(114,849,o),
(114,518,cs),
(114,182,o),
(278,-24,o),
(558,-24,cs)
);
},
{
closed = 1;
nodes = (
(390,123,o),
(299,269,o),
(299,497,cs),
(299,739,o),
(401,1317,o),
(748,1317,cs),
(922,1317,o),
(1025,1172,o),
(1025,943,cs),
(1025,706,o),
(915,123,o),
(565,123,cs)
);
}
);
width = 1246;
},
{
background = {
shapes = (
{
closed = 1;
nodes = (
(295,-20,o),
(616,-20,cs),
(1120,-20,o),
(1310,543,o),
(1310,918,cs),
(1310,1285,o),
(1093,1460,o),
(773,1460,cs),
(266,1460,o),
(77,895,o),
(77,522,cs),
(77,155,o)
);
},
{
closed = 1;
nodes = (
(525,294,o),
(478,364,o),
(478,502,cs),
(478,679,o),
(569,1145,o),
(768,1145,cs),
(862,1145,o),
(908,1074,o),
(908,935,cs),
(908,760,o),
(817,294,o),
(620,294,cs)
);
}
);
};
layerId = "F6FF57EF-12AD-4CA4-84B8-F83D8C5A96DF";
shapes = (
{
closed = 1;
nodes = (
(1130,-28,o),
(1313,552,o),
(1313,902,cs),
(1313,1284,o),
(1094,1468,o),
(793,1468,cs),
(261,1468,o),
(74,893,o),
(74,539,cs),
(74,155,o),
(294,-28,o),
(595,-28,cs)
);
},
{
closed = 1;
nodes = (
(527,288,o),
(477,364,o),
(477,499,cs),
(477,679,o),
(566,1151,o),
(775,1151,cs),
(859,1151,o),
(910,1074,o),
(910,939,cs),
(910,760,o),
(820,288,o),
(611,288,cs)
);
}
);
width = 1310;
}
);
tags = (
overshot
);
unicode = 48;
userData = {
KernOnName = zero;
};
},
{
glyphname = one;
kernLeft = one;
kernRight = one;
layers = (
{
layerId = "F3C0A8D3-A3E8-4ECE-8090-B83518D65089";
shapes = (
{
closed = 1;
nodes = (
(467,0,l),
(772,1440,l),
(653,1440,l),
(432,1226,o),
(326,1179,o),
(233,1147,c),
(196,974,l),
(314,1004,o),
(409,1055,o),
(529,1136,c),
(288,0,l)
);
}
);
width = 686;
},
{
background = {
shapes = (
{
closed = 1;
nodes = (
(655,-22,l),
(956,1394,l),
(661,1425,l),
(481,1247,o),
(314,1186,o),
(165,1149,c),
(79,746,l),
(214,776,o),
(321,828,o),
(464,940,c),
(268,18,l)
);
}
);
};
layerId = "F6FF57EF-12AD-4CA4-84B8-F83D8C5A96DF";
shapes = (
{
closed = 1;
nodes = (
(656,0,l),
(958,1440,l),
(674,1440,l),
(481,1247,o),
(314,1186,o),
(165,1149,c),
(79,746,l),
(214,776,o),
(321,828,o),
(464,937,c),
(267,0,l)
);
}
);
width = 886;
}
);
unicode = 49;
userData = {
KernOnName = one;
};
},
{
glyphname = two;
kernLeft = two;
kernRight = two;
layers = (
{
layerId = "F3C0A8D3-A3E8-4ECE-8090-B83518D65089";
name = "400";
shapes = (
{
closed = 1;
nodes = (
(976,0,l),
(1009,157,l),
(167,157,l),
(216,132,l),
(692,436,ls),
(945,596,o),
(1159,801,o),
(1159,1067,cs),
(1159,1344,o),
(931,1464,o),
(724,1464,cs),
(475,1464,o),
(246,1291,o),
(180,1060,c),
(357,1000,l),
(421,1219,o),
(529,1317,o),
(710,1317,cs),
(844,1317,o),
(972,1264,o),
(972,1075,cs),
(972,863,o),
(809,703,o),
(583,551,cs),
(-9,151,l),
(-42,0,l)
);
}
);
width = 1161;
},
{
background = {
shapes = (
{
closed = 1;
nodes = (
(1033,-45,l),
(1099,266,l),
(360,344,l),
(360,263,l),
(717,423,ls),
(995,546,o),
(1277,747,o),
(1277,1045,cs),
(1277,1321,o),
(986,1459,o),
(734,1459,cs),
(465,1459,o),
(236,1301,o),
(155,1091,c),
(519,945,l),
(542,1024,o),
(583,1143,o),
(716,1143,cs),
(793,1143,o),
(862,1114,o),
(862,1012,cs),
(862,852,o),
(753,738,o),
(604,648,cs),
(25,302,l),
(-25,66,l)
);
}
);
};
layerId = "F6FF57EF-12AD-4CA4-84B8-F83D8C5A96DF";
shapes = (
{
closed = 1;
nodes = (
(1046,0,l),
(1112,316,l),
(298,316,l),
(298,236,l),
(717,423,ls),
(995,547,o),
(1280,748,o),
(1280,1044,cs),
(1280,1321,o),
(988,1468,o),
(736,1468,cs),
(467,1468,o),
(236,1317,o),
(134,1044,c),
(515,931,l),
(539,1017,o),
(585,1150,o),
(716,1150,cs),
(795,1150,o),
(863,1114,o),
(863,1011,cs),
(863,853,o),
(760,741,o),
(604,648,cs),
(25,302,l),
(-38,0,l)
);
}
);
width = 1235;
}
);
tags = (
overshot
);
unicode = 50;
userData = {
KernOnName = two;
};
},
{
glyphname = three;
kernLeft = three;
kernRight = three;
layers = (
{
layerId = "F3C0A8D3-A3E8-4ECE-8090-B83518D65089";
shapes = (
{
closed = 1;
nodes = (
(909,-24,o),
(1047,237,o),
(1047,422,cs),
(1047,564,o),
(965,719,o),
(800,768,c),
(995,791,o),
(1133,924,o),
(1133,1106,cs),
(1133,1298,o),
(978,1464,o),
(717,1464,cs),
(480,1464,o),
(313,1326,o),
(223,1152,c),
(388,1075,l),
(446,1205,o),
(518,1317,o),
(695,1317,cs),
(842,1317,o),
(951,1239,o),
(951,1098,cs),
(951,954,o),
(838,859,o),
(677,859,cs),
(476,859,l),
(444,704,l),
(572,704,ls),
(785,704,o),
(859,577,o),
(859,446,cs),
(859,296,o),
(762,123,o),
(533,123,cs),
(336,123,o),
(228,250,o),
(235,482,c),
(40,424,l),
(55,148,o),
(230,-24,o),
(535,-24,cs)
);
}
);
width = 1146;
},
{
background = {
shapes = (
{
closed = 1;
nodes = (
(888,-24,o),
(1158,151,o),
(1158,444,cs),
(1158,584,o),
(1074,689,o),
(898,735,c),
(1152,729,o),
(1254,930,o),
(1254,1098,cs),
(1254,1352,o),
(983,1456,o),
(738,1456,cs),
(445,1456,o),
(241,1300,o),
(189,1129,c),
(534,995,l),
(565,1109,o),
(622,1146,o),
(696,1146,cs),
(806,1146,o),
(849,1095,o),
(849,1033,cs),
(849,958,o),
(795,879,o),
(685,879,cs),
(677,879,o),
(668,879,o),
(660,880,cs),
(555,891,l),
(501,638,l),
(562,632,ls),
(714,616,o),
(765,553,o),
(765,479,cs),
(765,381,o),
(698,292,o),
(577,292,cs),
(397,292,o),
(375,434,o),
(406,584,c),
(7,512,l),
(-51,165,o),
(247,-24,o),
(584,-24,cs)
);
}
);
};
layerId = "F6FF57EF-12AD-4CA4-84B8-F83D8C5A96DF";
shapes = (
{
closed = 1;
nodes = (
(892,-28,o),
(1161,155,o),
(1161,433,cs),
(1161,584,o),
(1082,685,o),
(899,734,c),
(1149,728,o),
(1258,930,o),
(1258,1095,cs),
(1258,1354,o),
(987,1468,o),
(746,1468,cs),
(445,1468,o),
(220,1289,o),
(173,1084,c),
(530,984,l),
(561,1116,o),
(621,1153,o),
(702,1153,cs),
(805,1153,o),
(850,1094,o),
(850,1029,cs),
(850,959,o),
(797,883,o),
(685,883,cs),
(554,883,l),
(500,626,l),
(540,626,ls),
(716,626,o),
(765,555,o),
(765,476,cs),
(765,393,o),
(711,288,o),
(569,288,cs),
(400,288,o),
(374,437,o),
(403,562,c),
(1,449,l),
(-18,167,o),
(248,-28,o),
(575,-28,cs)
);
}
);
width = 1232;
}
);
tags = (
overshot
);
unicode = 51;
},
{
glyphname = four;
kernLeft = four;
kernRight = four;
layers = (
{
layerId = "F3C0A8D3-A3E8-4ECE-8090-B83518D65089";
shapes = (
{
closed = 1;
nodes = (
(817,0,l),
(1122,1440,l),
(970,1440,l),
(55,546,l),
(17,370,l),
(1074,370,l),
(1107,528,l),
(130,528,l),
(183,474,l),
(930,1210,l),
(920,1325,l),
(740,476,l),
(729,422,l),
(639,0,l)
);
}
);
width = 1164;
},
{
background = {
shapes = (
{
closed = 1;
nodes = (
(975,-36,l),
(1276,1380,l),
(887,1421,l),
(55,647,l),
(-6,360,l),
(1221,231,l),
(1287,541,l),
(281,647,l),
(293,510,l),
(958,1143,l),
(861,1151,l),
(716,470,l),
(676,420,l),
(588,4,l)
);
}
);
};
layerId = "F6FF57EF-12AD-4CA4-84B8-F83D8C5A96DF";
shapes = (
{
closed = 1;
nodes = (
(980,0,l),
(1282,1440,l),
(909,1440,l),
(55,647,l),
(-19,291,l),
(1231,291,l),
(1297,607,l),
(250,607,l),
(262,472,l),
(983,1171,l),
(865,1169,l),
(720,476,l),
(679,422,l),
(591,0,l)
);
}
);
width = 1311;
}
);
unicode = 52;
userData = {
KernOnName = four;
};
},
{
glyphname = five;
kernLeft = five;
kernRight = five;
layers = (
{
layerId = "F3C0A8D3-A3E8-4ECE-8090-B83518D65089";
shapes = (
{
closed = 1;
nodes = (
(831,-24,o),
(1061,240,o),
(1061,540,cs),
(1061,806,o),
(880,964,o),
(661,964,cs),
(491,964,o),
(362,870,o),
(287,747,c),
(330,743,l),
(487,1283,l),
(1121,1283,l),
(1155,1440,l),
(370,1440,l),
(157,682,l),
(323,646,l),
(380,744,o),
(463,814,o),
(595,814,cs),
(741,814,o),
(877,730,o),
(877,526,cs),
(877,330,o),
(752,123,o),
(509,123,cs),
(296,123,o),
(209,282,o),
(239,480,c),
(47,422,l),
(20,178,o),
(232,-24,o),
(512,-24,cs)
);
}
);
width = 1147;
},
{
background = {
shapes = (
{
closed = 1;
nodes = (
(260,-22,o),
(587,-22,cs),
(977,-22,o),
(1217,260,o),
(1217,585,cs),
(1217,845,o),
(1025,966,o),
(774,966,cs),
(650,966,o),
(538,928,o),
(449,831,c),
(477,788,l),
(583,1133,l),
(1247,1063,l),
(1313,1374,l),
(336,1477,l),
(94,693,l),
(495,622,l),
(541,675,o),
(587,697,o),
(641,697,cs),
(727,697,o),
(806,657,o),
(806,545,cs),
(806,426,o),
(733,293,o),
(601,293,cs),
(452,293,o),
(421,411,o),
(446,532,c),
(26,503,l),
(-14,167,o)
);
}
);
};
layerId = "F6FF57EF-12AD-4CA4-84B8-F83D8C5A96DF";
shapes = (
{
closed = 1;
nodes = (
(977,-28,o),
(1217,262,o),
(1217,574,cs),
(1217,850,o),
(1029,981,o),
(790,981,cs),
(676,981,o),
(511,951,o),
(448,810,c),
(476,770,l),
(593,1124,l),
(1240,1124,l),
(1306,1440,l),
(334,1440,l),
(110,743,l),
(495,622,l),
(534,668,o),
(585,698,o),
(647,698,cs),
(728,698,o),
(805,655,o),
(805,541,cs),
(805,445,o),
(751,289,o),
(592,289,cs),
(467,289,o),
(418,386,o),
(445,512,c),
(23,439,l),
(23,154,o),
(263,-28,o),
(579,-28,cs)
);
}
);
width = 1258;
}
);
tags = (
overshot
);
unicode = 53;
},
{
glyphname = six;
kernLeft = zero;
kernRight = six;
layers = (
{
background = {
shapes = (
{
closed = 1;
nodes = (
(408,123,o),
(284,217,o),
(284,409,cs),
(284,610,o),
(421,801,o),
(643,801,cs),
(790,801,o),
(904,717,o),
(904,538,cs),
(904,375,o),
(809,123,o),
(560,123,cs)
);
}
);
};
layerId = "F3C0A8D3-A3E8-4ECE-8090-B83518D65089";
shapes = (
{
closed = 1;
nodes = (
(890,-24,o),
(1086,261,o),
(1086,534,cs),
(1086,823,o),
(868,948,o),
(686,948,cs),
(520,948,o),
(369,867,o),
(273,709,c),
(296,692,l),
(348,912,o),
(442,1317,o),
(749,1317,cs),
(930,1317,o),
(1004,1172,o),
(1008,1032,c),
(1194,1081,l,{
name = "";
}),
(1186,1259,o),
(1012,1464,o),
(750,1464,cs),
(271,1464,o),
(105,836,o),
(105,488,cs),
(105,166,o),
(266,-24,o),
(546,-24,cs)
);
},
{
closed = 1;
nodes = (
(404,123,o),
(274,214,o),
(274,397,cs),
(274,605,o),
(411,799,o),
(631,799,cs),
(787,799,o),
(908,718,o),
(908,536,cs),
(908,360,o),
(808,123,o),
(565,123,cs)
);
}
);
width = 1186;
},
{
background = {
shapes = (
{
closed = 1;
nodes = (
(296,-21,o),
(613,-21,cs),
(972,-21,o),
(1200,235,o),
(1200,540,cs),
(1200,798,o),
(1007,919,o),
(772,919,cs),
(624,919,o),
(521,859,o),
(436,763,c),
(486,736,l),
(519,888,o),
(580,1162,o),
(772,1162,cs),
(891,1162,o),
(943,1081,o),
(927,969,c),
(1302,1029,l),
(1304,1290,o),
(1065,1458,o),
(779,1458,cs),
(275,1458,o),
(70,861,o),
(70,505,cs),
(70,143,o)
);
},
{
closed = 1;
nodes = (
(505,276,o),
(450,333,o),
(450,422,cs),
(450,508,o),
(500,644,o),
(637,644,cs),
(735,644,o),
(789,588,o),
(789,500,cs),
(789,417,o),
(740,276,o),
(602,276,cs)
);
}
);
};
layerId = "F6FF57EF-12AD-4CA4-84B8-F83D8C5A96DF";
shapes = (
{
closed = 1;
nodes = (
(954,-28,o),
(1203,240,o),
(1203,536,cs),
(1203,799,o),
(1007,931,o),
(785,931,cs),
(618,931,o),
(515,857,o),
(415,737,c),
(485,716,l),
(523,894,o),
(582,1171,o),
(782,1171,cs),
(890,1171,o),
(931,1090,o),
(929,994,c),
(1299,1092,l),
(1273,1312,o),
(1065,1468,o),
(798,1468,cs),
(272,1468,o),
(66,862,o),
(66,514,cs),
(66,142,o),
(301,-28,o),
(591,-28,cs)
);
},
{
closed = 1;
nodes = (
(508,271,o),
(451,329,o),
(451,420,cs),
(451,530,o),
(521,639,o),
(642,639,cs),
(742,639,o),
(798,582,o),
(798,493,cs),
(798,387,o),
(732,271,o),
(608,271,cs)
);
}
);
width = 1252;
}
);
tags = (
overshot
);
unicode = 54;
},
{
glyphname = seven;
kernLeft = seven;
kernRight = seven;
layers = (
{
background = {
shapes = (
{
closed = 1;
nodes = (
(322,0,l),
(504,493,o),
(807,897,o),
(1166,1305,c),
(1194,1440,l),
(216,1440,l),
(184,1286,l),
(984,1286,l),
(604,898,o),
(319,496,o),
(110,0,c)
);
}
);
};
layerId = "F3C0A8D3-A3E8-4ECE-8090-B83518D65089";
shapes = (
{
closed = 1;
nodes = (
(327,0,l),
(518,504,o),
(819,932,o),
(1166,1305,c),
(1194,1440,l),
(237,1440,l),
(204,1283,l),
(982,1283,l),
(584,898,o),
(338,527,o),
(108,0,c)
);
}
);
width = 1050;
},
{
background = {
shapes = (
{
closed = 1;
nodes = (
(496,0,l),
(696,497,o),
(882,762,o),
(1298,1173,c),
(1352,1440,l),
(186,1440,l),
(120,1124,l),
(920,1124,l),
(583,887,o),
(273,496,o),
(76,0,c)
);
}
);
};
layerId = "F6FF57EF-12AD-4CA4-84B8-F83D8C5A96DF";
shapes = (
{
closed = 1;
nodes = (
(502,0,l),
(704,497,o),
(882,762,o),
(1298,1173,c),
(1352,1440,l),
(212,1440,l),
(146,1124,l),
(934,1124,l),
(599,897,o),
(298,536,o),
(85,0,c)
);
}
);
width = 1182;
}
);
unicode = 55;
userData = {
KernOnName = seven;
};
},
{
glyphname = eight;
kernLeft = eight;
kernRight = three;
layers = (
{
layerId = "F3C0A8D3-A3E8-4ECE-8090-B83518D65089";
shapes = (
{
closed = 1;
nodes = (
(860,-24,o),
(1042,202,o),
(1042,443,cs),
(1042,600,o),
(964,720,o),
(804,767,c),
(991,794,o),
(1135,925,o),
(1138,1112,cs),
(1141,1343,o),
(927,1464,o),
(716,1464,cs),
(467,1464,o),
(238,1299,o),
(238,1061,cs),
(238,926,o),
(313,829,o),
(445,794,c),
(210,760,o),
(45,550,o),
(45,338,cs),
(45,119,o),
(223,-24,o),
(505,-24,cs)
);
},
{
closed = 1;
nodes = (
(328,137,o),
(230,237,o),
(230,380,cs),
(230,540,o),
(351,708,o),
(575,708,cs),
(749,708,o),
(858,605,o),
(858,442,cs),
(858,270,o),
(737,137,o),
(518,137,cs)
);
},
{
closed = 1;
nodes = (
(497,858,o),
(413,950,o),
(413,1068,cs),
(413,1212,o),
(536,1317,o),
(705,1317,cs),
(845,1317,o),
(953,1243,o),
(953,1095,cs),
(953,969,o),
(873,858,o),
(677,858,cs)
);
}
);
width = 1153;
},
{
background = {
shapes = (
{
closed = 1;
nodes = (
(526,280,o),
(443,317,o),
(443,421,cs),
(443,520,o),
(517,623,o),
(651,623,cs),
(736,623,o),
(808,581,o),
(808,471,cs),
(808,360,o),
(736,280,o),
(611,280,cs)
);
},
{
closed = 1;
nodes = (
(670,891,o),
(592,918,o),
(592,1010,cs),
(592,1072,o),
(627,1154,o),
(761,1154,cs),
(846,1154,o),
(907,1121,o),
(907,1030,cs),
(907,943,o),
(850,891,o),
(745,891,cs)
);
}
);
};
layerId = "F6FF57EF-12AD-4CA4-84B8-F83D8C5A96DF";
shapes = (
{
closed = 1;
nodes = (
(1061,-28,o),
(1213,224,o),
(1213,426,cs),
(1213,578,o),
(1126,706,o),
(931,732,c),
(1181,750,o),
(1317,922,o),
(1317,1105,cs),
(1317,1360,o),
(1054,1468,o),
(780,1468,cs),
(426,1468,o),
(181,1287,o),
(181,1027,cs),
(181,878,o),
(261,776,o),
(443,762,c),
(210,737,o),
(13,577,o),
(13,349,cs),
(13,97,o),
(255,-28,o),
(588,-28,cs)
);
},
{
closed = 1;
nodes = (
(509,279,o),
(447,336,o),
(447,432,cs),
(447,520,o),
(499,630,o),
(642,630,cs),
(745,630,o),
(807,572,o),
(807,477,cs),
(807,393,o),
(758,279,o),
(612,279,cs)
);
},
{
closed = 1;
nodes = (
(660,877,o),
(589,916,o),
(589,1017,cs),
(589,1100,o),
(637,1206,o),
(767,1206,cs),
(858,1206,o),
(911,1154,o),
(911,1065,cs),
(911,975,o),
(856,877,o),
(736,877,cs)
);
}
);
width = 1286;
}
);
tags = (
overshot
);
unicode = 56;
},
{
glyphname = nine;
kernLeft = nine;
kernRight = zero;
layers = (
{
background = {
shapes = (
{
closed = 1;
nodes = (
(480,627,o),
(359,715,o),
(359,895,cs),
(359,1057,o),
(457,1317,o),
(711,1317,cs),
(863,1317,o),
(980,1226,o),
(980,1042,cs),
(980,856,o),
(860,627,o),
(625,627,cs)
);
}
);
};
layerId = "F3C0A8D3-A3E8-4ECE-8090-B83518D65089";
shapes = (
{
closed = 1;
nodes = (
(1027,-24,o),
(1159,614,o),
(1159,959,cs),
(1159,1280,o),
(1004,1464,o),
(726,1464,cs),
(385,1464,o),
(177,1186,o),
(177,902,cs),
(177,625,o),
(375,480,o),
(581,480,cs),
(768,480,o),
(906,591,o),
(979,731,c),
(969,758,l),
(917,537,o),
(856,128,o),
(523,128,cs),
(352,128,o),
(230,248,o),
(249,407,c),
(64,362,l),
(68,181,o),
(255,-24,o),
(522,-24,cs)
);
},
{
closed = 1;
nodes = (
(481,638,o),
(362,719,o),
(362,901,cs),
(362,1077,o),
(460,1314,o),
(698,1314,cs),
(856,1314,o),
(984,1223,o),
(984,1040,cs),
(984,832,o),
(849,638,o),
(634,638,cs)
);
}
);
width = 1193;
},
{
background = {
shapes = (
{
closed = 1;
nodes = (
(593,784,o),
(539,838,o),
(539,932,cs),
(539,1024,o),
(591,1174,o),
(731,1174,cs),
(824,1174,o),
(880,1108,o),
(880,1013,cs),
(880,924,o),
(831,784,o),
(684,784,cs)
);
}
);
};
guides = (
{
angle = 78;
pos = (521,69);
}
);
layerId = "F6FF57EF-12AD-4CA4-84B8-F83D8C5A96DF";
shapes = (
{
closed = 1;
nodes = (
(1059,-28,o),
(1265,556,o),
(1265,921,cs),
(1265,1299,o),
(1043,1468,o),
(738,1468,cs),
(352,1468,o),
(130,1198,o),
(130,904,cs),
(130,638,o),
(313,489,o),
(545,489,cs),
(722,489,o),
(828,576,o),
(951,761,c),
(854,734,l),
(816,536,o),
(763,270,o),
(541,269,cs),
(434,268,o),
(384,332,o),
(376,426,c),
(8,331,l),
(42,151,o),
(236,-28,o),
(529,-28,cs)
);
},
{
closed = 1;
nodes = (
(586,796,o),
(530,853,o),
(530,942,cs),
(530,1048,o),
(596,1164,o),
(720,1164,cs),
(820,1164,o),
(877,1106,o),
(877,1015,cs),
(877,905,o),
(807,796,o),
(686,796,cs)
);
}
);
width = 1257;
}
);
tags = (
overshot
);
unicode = 57;
userData = {
KernOnName = nine;
};
},
{
glyphname = zero.tf;
layers = (
{
layerId = "F3C0A8D3-A3E8-4ECE-8090-B83518D65089";
shapes = (
{
closed = 1;
nodes = (
(1074,-24,o),
(1243,588,o),
(1243,921,cs),
(1243,1259,o),
(1067,1464,o),
(784,1464,cs),
(294,1464,o),
(135,851,o),
(135,521,cs),
(135,183,o),
(302,-24,o),
(586,-24,cs)
);
},
{
closed = 1;
nodes = (
(414,123,o),
(320,270,o),
(320,500,cs),
(320,743,o),
(422,1317,o),
(774,1317,cs),
(951,1317,o),
(1058,1172,o),
(1058,940,cs),
(1058,703,o),
(948,123,o),
(593,123,cs)
);
}
);
userData = {
RMXScaler = {
monoWidth = 1300;
useSpacing = 60;
};
};
width = 1299;
},
{
layerId = "F6FF57EF-12AD-4CA4-84B8-F83D8C5A96DF";
shapes = (
{
closed = 1;
nodes = (
(1123,-28,o),
(1306,553,o),
(1306,903,cs),
(1306,1284,o),
(1088,1468,o),
(788,1468,cs),
(258,1468,o),
(71,892,o),
(71,538,cs),
(71,155,o),
(290,-28,o),
(590,-28,cs)
);
},
{
closed = 1;
nodes = (
(523,288,o),
(474,364,o),
(474,498,cs),
(474,678,o),
(563,1151,o),
(770,1151,cs),
(853,1151,o),
(903,1074,o),
(903,940,cs),
(903,761,o),
(813,288,o),
(606,288,cs)
);
}
);
userData = {
RMXScaler = {
keepStroke = 80;
monoWidth = 1300;
};
};
width = 1300;
}
);
metricWidth = "=plus";
userData = {
KernOnSpecialSpacing = {
L = NoKerning;
R = NoKerning;
};
RMXScaler = {
source = zero;
};
};
},
{
glyphname = one.tf;
layers = (
{
layerId = "F3C0A8D3-A3E8-4ECE-8090-B83518D65089";
shapes = (
{
closed = 1;
nodes = (
(1015,0,l),
(1046,144,l),
(656,144,l),
(930,1440,l),
(811,1440,l),
(590,1226,o),
(484,1179,o),
(391,1147,c),
(354,974,l),
(472,1004,o),
(567,1055,o),
(687,1136,c),
(477,144,l),
(84,144,l),
(54,0,l)
);
}
);
width = 1299;
},
{
layerId = "F6FF57EF-12AD-4CA4-84B8-F83D8C5A96DF";
shapes = (
{
closed = 1;
nodes = (
(1098,0,l),
(1170,345,l),
(848,345,l),
(1078,1440,l),
(794,1440,l),
(601,1247,o),
(434,1186,o),
(285,1149,c),
(199,746,l),
(334,776,o),
(441,828,o),
(584,937,c),
(460,345,l),
(80,345,l),
(8,0,l)
);
}
);
width = 1300;
}
);
metricWidth = "=plus";
userData = {
KernOnSpecialSpacing = {
L = NoKerning;
R = NoKerning;
};
RMXScaler = {
source = one;
};
};
},
{
glyphname = two.tf;
layers = (
{
layerId = "F3C0A8D3-A3E8-4ECE-8090-B83518D65089";
shapes = (
{
closed = 1;
nodes = (
(1062,0,l),
(1095,157,l),
(222,157,l),
(274,132,l),
(766,436,ls),
(1025,595,o),
(1242,800,o),
(1242,1064,cs),
(1242,1343,o),
(1005,1464,o),
(791,1464,cs),
(534,1464,o),
(298,1291,o),
(232,1060,c),
(410,1000,l),
(475,1219,o),
(588,1317,o),
(777,1317,cs),
(937,1317,o),
(1054,1248,o),
(1054,1071,cs),
(1054,859,o),
(882,700,o),
(653,551,cs),
(42,151,l),
(9,0,l)
);
}
);
userData = {
RMXScaler = {
monoWidth = 1300;
useSpacing = 70;
};
};
width = 1299;
},
{
layerId = "F6FF57EF-12AD-4CA4-84B8-F83D8C5A96DF";
shapes = (
{
closed = 1;
nodes = (
(1084,0,l),
(1150,316,l),
(328,316,l),
(329,236,l),
(751,423,ls),
(1031,547,o),
(1317,748,o),
(1317,1043,cs),
(1317,1321,o),
(1022,1468,o),
(769,1468,cs),
(499,1468,o),
(265,1317,o),
(163,1044,c),
(545,931,l),
(569,1017,o),
(617,1150,o),
(749,1150,cs),
(829,1150,o),
(899,1114,o),
(899,1010,cs),
(899,854,o),
(795,741,o),
(637,648,cs),
(54,302,l),
(-9,0,l)
);
}
);
userData = {
RMXScaler = {
keepStroke = 80;
monoWidth = 1300;
useSpacing = 90;
};
};
width = 1300;
}
);
metricWidth = "=plus";
userData = {
KernOnSpecialSpacing = {
L = NoKerning;
R = NoKerning;
};
RMXScaler = {
source = two;
};
};
},
{
glyphname = three.tf;
layers = (
{
layerId = "F3C0A8D3-A3E8-4ECE-8090-B83518D65089";
shapes = (
{
closed = 1;
nodes = (
(994,-24,o),
(1141,235,o),
(1141,422,cs),
(1141,561,o),
(1054,719,o),
(881,768,c),
(1078,791,o),
(1225,918,o),
(1225,1106,cs),
(1225,1296,o),
(1083,1464,o),
(810,1464,cs),
(564,1464,o),
(376,1326,o),
(282,1152,c),
(449,1075,l),
(508,1205,o),
(600,1317,o),
(787,1317,cs),
(944,1317,o),
(1042,1235,o),
(1042,1099,cs),
(1042,951,o),
(924,859,o),
(755,859,cs),
(544,859,l),
(512,704,l),
(649,704,ls),
(872,704,o),
(952,576,o),
(952,445,cs),
(952,293,o),
(841,123,o),
(601,123,cs),
(396,123,o),
(290,250,o),
(294,482,c),
(98,424,l),
(117,148,o),
(288,-24,o),
(603,-24,cs)
);
}
);
userData = {
RMXScaler = {
monoWidth = 1300;
useSpacing = 70;
};
};
width = 1299;
},
{
layerId = "F6FF57EF-12AD-4CA4-84B8-F83D8C5A96DF";
shapes = (
{
closed = 1;
nodes = (
(928,-28,o),
(1197,155,o),
(1197,433,cs),
(1197,583,o),
(1118,685,o),
(933,734,c),
(1184,728,o),
(1294,930,o),
(1294,1094,cs),
(1294,1354,o),
(1022,1468,o),
(779,1468,cs),
(477,1468,o),
(251,1289,o),
(203,1084,c),
(561,984,l),
(592,1116,o),
(653,1153,o),
(735,1153,cs),
(839,1153,o),
(885,1094,o),
(885,1028,cs),
(885,959,o),
(832,883,o),
(719,883,cs),
(586,883,l),
(532,626,l),
(573,626,ls),
(750,626,o),
(801,555,o),
(801,475,cs),
(801,393,o),
(746,288,o),
(603,288,cs),
(433,288,o),
(405,437,o),
(434,562,c),
(31,449,l),
(13,167,o),
(280,-28,o),
(609,-28,cs)
);
}
);
userData = {
RMXScaler = {
keepStroke = 80;
monoWidth = 1300;
useSpacing = 90;
};
};
width = 1300;
}
);
metricWidth = "=plus";
userData = {
KernOnSpecialSpacing = {
L = NoKerning;
R = NoKerning;
};
RMXScaler = {
source = three;
};
};
},
{
glyphname = four.tf;
layers = (
{
layerId = "F3C0A8D3-A3E8-4ECE-8090-B83518D65089";
shapes = (
{
closed = 1;
nodes = (
(902,0,l),
(1207,1440,l),
(1058,1440,l),
(93,546,l),
(55,370,l),
(1170,370,l),
(1204,528,l),
(167,528,l),
(225,474,l),
(1011,1210,l),
(1004,1325,l),
(824,476,l),
(814,422,l),
(724,0,l)
);
}
);
userData = {
RMXScaler = {
monoWidth = 1300;
useSpacing = 70;
};
};
width = 1299;
},
{
layerId = "F6FF57EF-12AD-4CA4-84B8-F83D8C5A96DF";
shapes = (
{
closed = 1;
nodes = (
(975,0,l),
(1277,1440,l),
(904,1440,l),
(48,647,l),
(-26,291,l),
(1227,291,l),
(1293,607,l),
(243,607,l),
(255,472,l),
(978,1171,l),
(860,1169,l),
(715,476,l),
(674,422,l),
(586,0,l)
);
}
);
userData = {
RMXScaler = {
keepStroke = 80;
monoWidth = 1300;
useSpacing = 90;
};
};
width = 1300;
}
);
metricWidth = "=plus";
userData = {
KernOnSpecialSpacing = {
L = NoKerning;
R = NoKerning;
};
RMXScaler = {
source = four;
};
};
},
{
glyphname = five.tf;
layers = (
{
layerId = "F3C0A8D3-A3E8-4ECE-8090-B83518D65089";
shapes = (
{
closed = 1;
nodes = (
(923,-24,o),
(1161,237,o),
(1161,533,cs),
(1161,805,o),
(966,964,o),
(735,964,cs),
(553,964,o),
(420,870,o),
(340,747,c),
(387,743,l),
(547,1283,l),
(1216,1283,l),
(1249,1440,l),
(429,1440,l),
(215,682,l),
(379,646,l),
(438,744,o),
(526,814,o),
(670,814,cs),
(826,814,o),
(978,730,o),
(978,519,cs),
(978,325,o),
(846,123,o),
(588,123,cs),
(358,123,o),
(262,282,o),
(290,480,c),
(100,422,l),
(73,178,o),
(298,-24,o),
(592,-24,cs)
);
}
);
userData = {
RMXScaler = {
monoWidth = 1300;
useSpacing = 70;
};
};
width = 1299;
},
{
layerId = "F6FF57EF-12AD-4CA4-84B8-F83D8C5A96DF";
shapes = (
{
closed = 1;
nodes = (
(1002,-28,o),
(1242,262,o),
(1242,573,cs),
(1242,850,o),
(1053,981,o),
(813,981,cs),
(698,981,o),
(533,951,o),
(469,810,c),
(498,770,l),
(605,1124,l),
(1265,1124,l),
(1331,1440,l),
(356,1440,l),
(115,693,l),
(517,622,l),
(556,668,o),
(607,698,o),
(670,698,cs),
(752,698,o),
(830,655,o),
(830,540,cs),
(830,444,o),
(775,289,o),
(615,289,cs),
(490,289,o),
(439,386,o),
(466,512,c),
(44,439,l),
(44,154,o),
(286,-28,o),
(603,-28,cs)
);
}
);
userData = {
RMXScaler = {
keepStroke = 80;
monoWidth = 1300;
useSpacing = 90;
};
};
width = 1300;
}
);
metricWidth = "=plus";
userData = {
KernOnSpecialSpacing = {
L = NoKerning;
R = NoKerning;
};
RMXScaler = {
source = five;
};
};
},
{
glyphname = six.tf;
layers = (
{
layerId = "F3C0A8D3-A3E8-4ECE-8090-B83518D65089";
shapes = (
{
closed = 1;
nodes = (
(963,-24,o),
(1164,257,o),
(1164,528,cs),
(1164,822,o),
(929,948,o),
(740,948,cs),
(566,948,o),
(405,867,o),
(306,709,c),
(329,692,l),
(381,912,o),
(476,1317,o),
(804,1317,cs),
(997,1317,o),
(1078,1172,o),
(1084,1032,c),
(1273,1081,l),
(1263,1259,o),
(1079,1464,o),
(804,1464,cs),
(308,1464,o),
(141,850,o),
(141,499,cs),
(141,166,o),
(311,-24,o),
(606,-24,cs)
);
},
{
closed = 1;
nodes = (
(452,123,o),
(314,218,o),
(314,416,cs),
(314,614,o),
(459,801,o),
(693,801,cs),
(850,801,o),
(976,716,o),
(976,532,cs),
(976,370,o),
(877,123,o),
(614,123,cs)
);
}
);
userData = {
RMXScaler = {
monoWidth = 1300;
useSpacing = 70;
};
};
width = 1299;
},
{
layerId = "F6FF57EF-12AD-4CA4-84B8-F83D8C5A96DF";
shapes = (
{
closed = 1;
nodes = (
(982,-28,o),
(1232,240,o),
(1232,535,cs),
(1232,799,o),
(1033,931,o),
(810,931,cs),
(642,931,o),
(538,857,o),
(437,737,c),
(507,716,l),
(545,894,o),
(605,1171,o),
(807,1171,cs),
(916,1171,o),
(959,1090,o),
(957,994,c),
(1328,1092,l),
(1302,1312,o),
(1092,1468,o),
(823,1468,cs),
(294,1468,o),
(88,863,o),
(88,515,cs),
(88,142,o),
(325,-28,o),
(617,-28,cs)
);
},
{
closed = 1;
nodes = (
(528,269,o),
(471,333,o),
(471,423,cs),
(471,506,o),
(519,641,o),
(668,641,cs),
(757,641,o),
(818,593,o),
(818,500,cs),
(818,417,o),
(767,269,o),
(623,269,cs)
);
}
);
userData = {
RMXScaler = {
keepStroke = 80;
monoWidth = 1300;
useSpacing = 90;
};
};
width = 1300;
}
);
metricWidth = "=plus";
userData = {
KernOnSpecialSpacing = {
L = NoKerning;
R = NoKerning;
};
RMXScaler = {
source = six;
};
};
},
{
glyphname = seven.tf;
layers = (
{
layerId = "F3C0A8D3-A3E8-4ECE-8090-B83518D65089";
shapes = (
{
closed = 1;
nodes = (
(427,0,l),
(628,504,o),
(959,879,o),
(1336,1250,c),
(1375,1440,l),
(304,1440,l),
(272,1283,l),
(1192,1283,l),
(747,898,o),
(448,526,o),
(200,0,c)
);
}
);
userData = {
RMXScaler = {
monoWidth = 1300;
useSpacing = 70;
};
};
width = 1299;
},
{
layerId = "F6FF57EF-12AD-4CA4-84B8-F83D8C5A96DF";
shapes = (
{
closed = 1;
nodes = (
(556,0,l),
(760,497,o),
(944,741,o),
(1350,1113,c),
(1417,1440,l),
(261,1440,l),
(195,1124,l),
(1018,1124,l),
(657,897,o),
(353,536,o),
(137,0,c)
);
}
);
userData = {
RMXScaler = {
keepStroke = 80;
monoWidth = 1300;
useSpacing = 90;
};
};
width = 1300;
}
);
metricWidth = "=plus";
userData = {
KernOnSpecialSpacing = {
L = NoKerning;
R = NoKerning;
};
RMXScaler = {
source = seven;
};
};
},
{
glyphname = eight.tf;
layers = (
{
layerId = "F3C0A8D3-A3E8-4ECE-8090-B83518D65089";
shapes = (
{
closed = 1;
nodes = (
(945,-24,o),
(1137,199,o),
(1137,437,cs),
(1137,604,o),
(1046,722,o),
(884,767,c),
(1078,794,o),
(1229,925,o),
(1230,1112,cs),
(1231,1343,o),
(1006,1464,o),
(787,1464,cs),
(532,1464,o),
(294,1301,o),
(294,1065,cs),
(294,924,o),
(378,828,o),
(513,794,c),
(267,760,o),
(97,553,o),
(97,342,cs),
(97,119,o),
(286,-24,o),
(580,-24,cs)
);
},
{
closed = 1;
nodes = (
(390,137,o),
(281,238,o),
(281,385,cs),
(281,543,o),
(410,708,o),
(646,708,cs),
(834,708,o),
(953,603,o),
(953,437,cs),
(953,267,o),
(824,137,o),
(593,137,cs)
);
},
{
closed = 1;
nodes = (
(559,858,o),
(468,950,o),
(468,1072,cs),
(468,1214,o),
(599,1317,o),
(776,1317,cs),
(926,1317,o),
(1045,1242,o),
(1045,1091,cs),
(1045,967,o),
(960,858,o),
(753,858,cs)
);
}
);
userData = {
RMXScaler = {
monoWidth = 1300;
useSpacing = 70;
};
};
width = 1299;
},
{
layerId = "F6FF57EF-12AD-4CA4-84B8-F83D8C5A96DF";
shapes = (
{
closed = 1;
nodes = (
(1070,-28,o),
(1222,224,o),
(1222,426,cs),
(1222,577,o),
(1135,706,o),
(939,732,c),
(1190,750,o),
(1326,923,o),
(1326,1105,cs),
(1326,1360,o),
(1062,1468,o),
(787,1468,cs),
(433,1468,o),
(187,1287,o),
(187,1027,cs),
(187,878,o),
(268,776,o),
(450,762,c),
(216,737,o),
(19,577,o),
(19,349,cs),
(19,97,o),
(262,-28,o),
(596,-28,cs)
);
},
{
closed = 1;
nodes = (
(516,279,o),
(453,336,o),
(453,432,cs),
(453,520,o),
(506,630,o),
(649,630,cs),
(753,630,o),
(816,572,o),
(816,477,cs),
(816,393,o),
(766,279,o),
(620,279,cs)
);
},
{
closed = 1;
nodes = (
(667,877,o),
(595,916,o),
(595,1017,cs),
(595,1100,o),
(644,1206,o),
(774,1206,cs),
(866,1206,o),
(920,1154,o),
(920,1065,cs),
(920,975,o),
(864,877,o),
(744,877,cs)
);
}
);
userData = {
RMXScaler = {
keepStroke = 80;
monoWidth = 1300;
useSpacing = 90;
};
};
width = 1300;
}
);
metricWidth = "=plus";
userData = {
KernOnSpecialSpacing = {
L = NoKerning;
R = NoKerning;
};
RMXScaler = {
source = eight;
};
};
},
{
glyphname = nine.tf;
layers = (
{
layerId = "F3C0A8D3-A3E8-4ECE-8090-B83518D65089";
shapes = (
{
closed = 1;
nodes = (
(1091,-24,o),
(1224,604,o),
(1224,951,cs),
(1224,1280,o),
(1063,1464,o),
(778,1464,cs),
(430,1464,o),
(218,1188,o),
(218,905,cs),
(218,626,o),
(423,480,o),
(636,480,cs),
(823,480,o),
(967,585,o),
(1044,731,c),
(1034,758,l),
(982,537,o),
(923,128,o),
(578,128,cs),
(400,128,o),
(272,248,o),
(290,407,c),
(105,362,l),
(110,179,o),
(304,-24,o),
(577,-24,cs)
);
},
{
closed = 1;
nodes = (
(535,627,o),
(405,715,o),
(405,898,cs),
(405,1060,o),
(505,1317,o),
(769,1317,cs),
(926,1317,o),
(1050,1226,o),
(1050,1038,cs),
(1050,853,o),
(927,627,o),
(685,627,cs)
);
}
);
userData = {
RMXScaler = {
monoWidth = 1300;
useSpacing = 70;
};
};
width = 1299;
},
{
layerId = "F6FF57EF-12AD-4CA4-84B8-F83D8C5A96DF";
shapes = (
{
closed = 1;
nodes = (
(1083,-28,o),
(1289,555,o),
(1289,920,cs),
(1289,1299,o),
(1065,1468,o),
(758,1468,cs),
(370,1468,o),
(147,1198,o),
(147,905,cs),
(147,638,o),
(333,489,o),
(566,489,cs),
(744,489,o),
(851,576,o),
(975,761,c),
(878,734,l),
(840,537,o),
(787,270,o),
(562,269,cs),
(453,268,o),
(402,332,o),
(394,426,c),
(25,331,l),
(59,151,o),
(256,-28,o),
(550,-28,cs)
);
},
{
closed = 1;
nodes = (
(612,784,o),
(557,839,o),
(557,933,cs),
(557,1024,o),
(609,1174,o),
(751,1174,cs),
(845,1174,o),
(903,1108,o),
(903,1012,cs),
(903,923,o),
(853,784,o),
(705,784,cs)
);
}
);
userData = {
RMXScaler = {
keepStroke = 80;
monoWidth = 1300;
useSpacing = 90;
};
};
width = 1300;
}
);
metricWidth = "=plus";
userData = {
KernOnSpecialSpacing = {
L = NoKerning;
R = NoKerning;
};
RMXScaler = {
source = nine;
};
};
},
{
glyphname = zero.numr;
kernLeft = zero.numr;
kernRight = zero.numr;
layers = (
{
layerId = "F3C0A8D3-A3E8-4ECE-8090-B83518D65089";
shapes = (
{
closed = 1;
nodes = (
(716,561,o),
(819,925,o),
(819,1127,cs),
(819,1335,o),
(709,1455,o),
(537,1455,cs),
(239,1455,o),
(139,1092,o),
(139,890,cs),
(139,681,o),
(247,561,o),
(418,561,cs)
);
},
{
closed = 1;
nodes = (
(333,676,o),
(285,753,o),
(285,875,cs),
(285,1009,o),
(344,1340,o),
(530,1340,cs),
(620,1340,o),
(674,1263,o),
(674,1141,cs),
(674,1009,o),
(611,676,o),
(423,676,cs)
);
}
);
userData = {
RMXScaler = {
height = 60;
verticalShift = 576;
weight = -80;
width = 60;
};
};
width = 758;
},
{
layerId = "F6FF57EF-12AD-4CA4-84B8-F83D8C5A96DF";
shapes = (
{
closed = 1;
nodes = (
(804,558,o),
(917,899,o),
(917,1112,cs),
(917,1352,o),
(774,1458,o),
(590,1458,cs),
(260,1458,o),
(142,1121,o),
(142,904,cs),
(142,663,o),
(287,558,o),
(472,558,cs)
);
},
{
closed = 1;
nodes = (
(453,785,o),
(432,815,o),
(432,876,cs),
(432,969,o),
(482,1230,o),
(577,1230,cs),
(608,1230,o),
(627,1198,o),
(627,1139,cs),
(627,1043,o),
(577,785,o),
(483,785,cs)
);
}
);
userData = {
RMXScaler = {
adjustSpace = 30;
height = 60;
verticalShift = 576;
weight = -250;
width = 60;
};
};
width = 860;
}
);
userData = {
KernOnName = zero.numr;
KernOnSpecialSpacing = {
L = fraction;
R = fraction;
};
RMXScaler = {
source = zero;
};
};
},
{
glyphname = one.numr;
kernLeft = one.numr;
kernRight = one.numr;
layers = (
{
layerId = "F3C0A8D3-A3E8-4ECE-8090-B83518D65089";
shapes = (
{
closed = 1;
nodes = (
(407,576,l),
(589,1440,l),
(491,1440,l),
(363,1315,o),
(290,1285,o),
(225,1265,c),
(195,1124,l),
(264,1141,o),
(321,1168,o),
(403,1226,c),
(266,576,l)
);
}
);
userData = {
RMXScaler = {
adjustSpace = 20;
height = 60;
verticalShift = 576;
weight = -80;
width = 60;
};
};
width = 483;
},
{
layerId = "F6FF57EF-12AD-4CA4-84B8-F83D8C5A96DF";
shapes = (
{
closed = 1;
nodes = (
(532,576,l),
(712,1440,l),
(505,1440,l),
(398,1331,o),
(286,1290,o),
(180,1266,c),
(118,973,l),
(203,991,o),
(272,1025,o),
(360,1094,c),
(252,576,l)
);
}
);
userData = {
RMXScaler = {
adjustSpace = 20;
height = 60;
verticalShift = 576;
weight = -250;
width = 60;
};
};
width = 615;
}
);
userData = {
KernOnName = one.numr;
KernOnSpecialSpacing = {
L = fraction;
R = fraction;
};
RMXScaler = {
source = one;
};
};
},
{
glyphname = two.numr;
kernLeft = two.numr;
kernRight = two.numr;
layers = (
{
layerId = "F3C0A8D3-A3E8-4ECE-8090-B83518D65089";
shapes = (
{
closed = 1;
nodes = (
(693,576,l),
(718,696,l),
(218,696,l),
(239,672,l),
(516,835,ls),
(671,926,o),
(811,1048,o),
(811,1213,cs),
(811,1379,o),
(664,1455,o),
(533,1455,cs),
(377,1455,o),
(241,1351,o),
(197,1209,c),
(336,1165,l),
(368,1275,o),
(423,1339,o),
(524,1339,cs),
(595,1339,o),
(662,1310,o),
(662,1211,cs),
(662,1094,o),
(577,1005,o),
(450,922,cs),
(97,691,l),
(72,576,l)
);
}
);
userData = {
RMXScaler = {
adjustSpace = 20;
height = 60;
verticalShift = 576;
weight = -80;
width = 60;
};
};
width = 748;
},
{
layerId = "F6FF57EF-12AD-4CA4-84B8-F83D8C5A96DF";
shapes = (
{
closed = 1;
nodes = (
(740,576,l),
(787,801,l),
(305,801,l),
(294,740,l),
(532,828,ls),
(705,893,o),
(892,1013,o),
(892,1197,cs),
(892,1364,o),
(701,1458,o),
(541,1458,cs),
(376,1458,o),
(236,1372,o),
(167,1199,c),
(441,1119,l),
(446,1142,o),
(461,1229,o),
(528,1229,cs),
(563,1229,o),
(591,1211,o),
(591,1169,cs),
(591,1087,o),
(542,1029,o),
(464,986,cs),
(119,790,l),
(75,576,l)
);
}
);
userData = {
RMXScaler = {
adjustSpace = 20;
height = 60;
verticalShift = 576;
weight = -250;
width = 60;
};
};
width = 798;
}
);
userData = {
KernOnName = two.numr;
KernOnSpecialSpacing = {
L = fraction;
R = fraction;
};
RMXScaler = {
source = two;
};
};
},
{
glyphname = three.numr;
kernLeft = three.numr;
kernRight = three.numr;
layers = (
{
layerId = "F3C0A8D3-A3E8-4ECE-8090-B83518D65089";
shapes = (
{
closed = 1;
nodes = (
(638,561,o),
(743,705,o),
(743,831,cs),
(743,917,o),
(694,1002,o),
(592,1031,c),
(715,1040,o),
(796,1129,o),
(796,1238,cs),
(796,1364,o),
(684,1455,o),
(531,1455,cs),
(380,1455,o),
(269,1366,o),
(222,1256,c),
(352,1206,l),
(382,1285,o),
(425,1340,o),
(514,1340,cs),
(595,1340,o),
(651,1296,o),
(651,1224,cs),
(651,1149,o),
(592,1095,o),
(504,1095,cs),
(394,1095,l),
(372,986,l),
(434,986,ls),
(556,986,o),
(597,919,o),
(597,848,cs),
(597,769,o),
(545,676,o),
(422,676,cs),
(309,676,o),
(256,756,o),
(264,878,c),
(114,834,l),
(118,664,o),
(241,561,o),
(424,561,cs)
);
}
);
userData = {
RMXScaler = {
adjustSpace = 20;
height = 60;
verticalShift = 576;
weight = -80;
width = 60;
};
};
width = 741;
},
{
layerId = "F6FF57EF-12AD-4CA4-84B8-F83D8C5A96DF";
shapes = (
{
closed = 1;
nodes = (
(628,558,o),
(819,651,o),
(819,838,cs),
(819,929,o),
(774,979,o),
(658,1009,c),
(820,999,o),
(879,1135,o),
(879,1231,cs),
(879,1401,o),
(690,1458,o),
(551,1458,cs),
(354,1458,o),
(208,1339,o),
(190,1211,c),
(446,1146,l),
(459,1226,o),
(492,1232,o),
(520,1232,cs),
(572,1232,o),
(585,1200,o),
(585,1178,cs),
(585,1153,o),
(566,1111,o),
(510,1111,cs),
(447,1111,l),
(409,934,l),
(414,934,ls),
(511,934,o),
(535,904,o),
(535,868,cs),
(535,833,o),
(512,785,o),
(446,785,cs),
(352,785,o),
(353,878,o),
(376,931,c),
(89,851,l),
(70,680,o),
(251,558,o),
(451,558,cs)
);
}
);
userData = {
RMXScaler = {
adjustSpace = 20;
height = 60;
verticalShift = 576;
weight = -250;
width = 60;
};
};
width = 798;
}
);
userData = {
KernOnName = three.numr;
KernOnSpecialSpacing = {
L = fraction;
R = fraction;
};
RMXScaler = {
source = three;
};
};
},
{
glyphname = four.numr;
kernLeft = four.numr;
kernRight = four.numr;
layers = (
{
layerId = "F3C0A8D3-A3E8-4ECE-8090-B83518D65089";
shapes = (
{
closed = 1;
nodes = (
(613,576,l),
(795,1440,l),
(669,1440,l),
(130,920,l),
(101,785,l),
(766,785,l),
(791,905,l),
(194,905,l),
(219,860,l),
(663,1296,l),
(640,1346,l),
(537,862,l),
(526,829,l),
(472,576,l)
);
}
);
userData = {
RMXScaler = {
adjustSpace = 20;
height = 60;
verticalShift = 576;
weight = -80;
width = 60;
};
};
width = 762;
},
{
layerId = "F6FF57EF-12AD-4CA4-84B8-F83D8C5A96DF";
shapes = (
{
closed = 1;
nodes = (
(720,576,l),
(901,1440,l),
(628,1440,l),
(129,986,l),
(77,733,l),
(869,733,l),
(916,958,l),
(273,958,l),
(271,859,l),
(698,1270,l),
(603,1243,l),
(524,862,l),
(493,829,l),
(440,576,l)
);
}
);
userData = {
RMXScaler = {
adjustSpace = 20;
height = 60;
verticalShift = 576;
weight = -250;
width = 60;
};
};
width = 858;
}
);
userData = {
KernOnName = four.numr;
KernOnSpecialSpacing = {
L = fraction;
R = fraction;
};
RMXScaler = {
source = four;
};
};
},
{
glyphname = five.numr;
kernLeft = five.numr;
kernRight = five.numr;
layers = (
{
layerId = "F3C0A8D3-A3E8-4ECE-8090-B83518D65089";
shapes = (
{
closed = 1;
nodes = (
(619,561,o),
(758,724,o),
(758,905,cs),
(758,1067,o),
(648,1157,o),
(514,1157,cs),
(421,1157,o),
(338,1111,o),
(295,1034,c),
(318,1026,l),
(406,1320,l),
(788,1320,l),
(814,1440,l),
(313,1440,l),
(183,995,l),
(318,960,l),
(349,1010,o),
(394,1046,o),
(462,1046,cs),
(539,1046,o),
(611,1002,o),
(611,894,cs),
(611,793,o),
(548,676,o),
(415,676,cs),
(306,676,o),
(255,756,o),
(273,869,c),
(121,832,l),
(109,679,o),
(241,561,o),
(415,561,cs)
);
}
);
userData = {
RMXScaler = {
adjustSpace = 20;
height = 60;
verticalShift = 576;
weight = -80;
width = 60;
};
};
width = 746;
},
{
layerId = "F6FF57EF-12AD-4CA4-84B8-F83D8C5A96DF";
shapes = (
{
closed = 1;
nodes = (
(714,558,o),
(861,738,o),
(861,928,cs),
(861,1096,o),
(746,1168,o),
(599,1168,cs),
(541,1168,o),
(436,1164,o),
(401,1076,c),
(414,1044,l),
(476,1215,l),
(867,1215,l),
(913,1440,l),
(289,1440,l),
(152,1035,l),
(431,944,l),
(451,960,o),
(474,969,o),
(496,969,cs),
(529,969,o),
(564,953,o),
(564,904,cs),
(564,869,o),
(547,786,o),
(470,786,cs),
(415,786,o),
(393,830,o),
(409,890,c),
(105,843,l),
(111,663,o),
(262,558,o),
(459,558,cs)
);
}
);
userData = {
RMXScaler = {
adjustSpace = 20;
height = 60;
verticalShift = 576;
weight = -250;
width = 60;
};
};
width = 819;
}
);
userData = {
KernOnName = five.numr;
KernOnSpecialSpacing = {
L = fraction;
R = fraction;
};
RMXScaler = {
source = five;
};
};
},
{
glyphname = six.numr;
kernLeft = six.numr;
kernRight = six.numr;
layers = (
{
layerId = "F3C0A8D3-A3E8-4ECE-8090-B83518D65089";
shapes = (
{
closed = 1;
nodes = (
(640,561,o),
(767,729,o),
(767,897,cs),
(767,1066,o),
(639,1142,o),
(524,1142,cs),
(425,1142,o),
(341,1095,o),
(283,1006,c),
(304,995,l),
(333,1120,o),
(384,1343,o),
(551,1343,cs),
(647,1343,o),
(687,1266,o),
(688,1189,c),
(829,1226,l,{
name = "";
}),
(822,1340,o),
(711,1455,o),
(554,1455,cs),
(259,1455,o),
(153,1081,o),
(153,873,cs),
(153,672,o),
(262,561,o),
(431,561,cs)
);
},
{
closed = 1;
nodes = (
(355,673,o),
(289,723,o),
(289,818,cs),
(289,927,o),
(361,1030,o),
(477,1030,cs),
(561,1030,o),
(623,985,o),
(623,891,cs),
(623,797,o),
(569,673,o),
(442,673,cs)
);
}
);
userData = {
RMXScaler = {
adjustSpace = 20;
height = 60;
verticalShift = 576;
weight = -80;
width = 60;
};
};
width = 761;
},
{
layerId = "F6FF57EF-12AD-4CA4-84B8-F83D8C5A96DF";
shapes = (
{
closed = 1;
nodes = (
(683,558,o),
(845,715,o),
(845,898,cs),
(845,1050,o),
(732,1131,o),
(590,1131,cs),
(490,1131,o),
(438,1088,o),
(377,1024,c),
(430,1011,l),
(450,1114,o),
(479,1246,o),
(573,1246,cs),
(618,1246,o),
(640,1217,o),
(637,1164,c),
(899,1234,l),
(880,1375,o),
(747,1458,o),
(586,1458,cs),
(261,1458,o),
(128,1099,o),
(128,890,cs),
(128,656,o),
(286,558,o),
(461,558,cs)
);
},
{
closed = 1;
nodes = (
(425,771,o),
(407,799,o),
(407,833,cs),
(407,877,o),
(434,924,o),
(485,924,cs),
(532,924,o),
(552,895,o),
(552,862,cs),
(552,814,o),
(519,771,o),
(471,771,cs)
);
}
);
userData = {
RMXScaler = {
adjustSpace = 20;
height = 60;
verticalShift = 576;
weight = -250;
width = 60;
};
};
width = 806;
}
);
userData = {
KernOnName = six.numr;
KernOnSpecialSpacing = {
L = fraction;
R = fraction;
};
RMXScaler = {
source = six;
};
};
},
{
glyphname = seven.numr;
kernLeft = seven.numr;
kernRight = seven.numr;
layers = (
{
layerId = "F3C0A8D3-A3E8-4ECE-8090-B83518D65089";
shapes = (
{
closed = 1;
nodes = (
(321,576,l),
(432,862,o),
(583,1092,o),
(818,1338,c),
(839,1440,l),
(235,1440,l),
(210,1320,l),
(678,1320,l),
(453,1117,o),
(296,900,o),
(158,576,c)
);
}
);
userData = {
RMXScaler = {
adjustSpace = 20;
height = 60;
verticalShift = 576;
weight = -80;
width = 60;
};
};
width = 692;
},
{
layerId = "F6FF57EF-12AD-4CA4-84B8-F83D8C5A96DF";
shapes = (
{
closed = 1;
nodes = (
(436,576,l),
(562,880,o),
(647,1003,o),
(904,1251,c),
(942,1440,l),
(218,1440,l),
(171,1215,l),
(646,1215,l),
(458,1113,o),
(266,900,o),
(142,576,c)
);
}
);
userData = {
RMXScaler = {
adjustSpace = 20;
height = 60;
verticalShift = 576;
weight = -250;
width = 60;
};
};
width = 778;
}
);
userData = {
KernOnName = seven.numr;
KernOnSpecialSpacing = {
L = fraction;
R = fraction;
};
RMXScaler = {
source = seven;
};
};
},
{
glyphname = eight.numr;
kernLeft = eight.numr;
kernRight = three.numr;
layers = (
{
layerId = "F3C0A8D3-A3E8-4ECE-8090-B83518D65089";
shapes = (
{
closed = 1;
nodes = (
(644,561,o),
(749,701,o),
(749,839,cs),
(749,937,o),
(696,1007,o),
(599,1031,c),
(721,1045,o),
(807,1131,o),
(808,1244,cs),
(809,1386,o),
(668,1455,o),
(536,1455,cs),
(370,1455,o),
(230,1353,o),
(230,1207,cs),
(230,1124,o),
(276,1065,o),
(363,1047,c),
(222,1028,o),
(118,911,o),
(118,781,cs),
(118,644,o),
(235,561,o),
(412,561,cs)
);
},
{
closed = 1;
nodes = (
(322,681,o),
(269,734,o),
(269,812,cs),
(269,897,o),
(331,988,o),
(452,988,cs),
(545,988,o),
(603,933,o),
(603,847,cs),
(603,758,o),
(542,681,o),
(422,681,cs)
);
},
{
closed = 1;
nodes = (
(420,1094,o),
(372,1141,o),
(372,1209,cs),
(372,1285,o),
(434,1348,o),
(529,1348,cs),
(605,1348,o),
(661,1307,o),
(661,1228,cs),
(661,1159,o),
(617,1094,o),
(512,1094,cs)
);
}
);
userData = {
RMXScaler = {
adjustSpace = 20;
height = 60;
verticalShift = 576;
weight = -80;
width = 60;
};
};
width = 753;
},
{
layerId = "F6FF57EF-12AD-4CA4-84B8-F83D8C5A96DF";
shapes = (
{
closed = 1;
nodes = (
(776,558,o),
(862,715,o),
(862,828,cs),
(862,920,o),
(805,997,o),
(683,1008,c),
(846,1016,o),
(926,1128,o),
(926,1236,cs),
(926,1396,o),
(756,1458,o),
(578,1458,cs),
(344,1458,o),
(192,1346,o),
(192,1185,cs),
(192,1093,o),
(241,1030,o),
(362,1026,c),
(222,1013,o),
(97,928,o),
(97,788,cs),
(97,630,o),
(256,558,o),
(467,558,cs)
);
},
{
closed = 1;
nodes = (
(442,775,o),
(412,799,o),
(412,847,cs),
(412,883,o),
(428,937,o),
(496,937,cs),
(542,937,o),
(569,912,o),
(569,870,cs),
(569,840,o),
(556,775,o),
(484,775,cs)
);
},
{
closed = 1;
nodes = (
(529,1106,o),
(488,1118,o),
(488,1175,cs),
(488,1212,o),
(501,1275,o),
(570,1275,cs),
(614,1275,o),
(634,1248,o),
(634,1208,cs),
(634,1163,o),
(606,1106,o),
(551,1106,cs)
);
}
);
userData = {
RMXScaler = {
adjustSpace = 20;
height = 60;
verticalShift = 576;
weight = -250;
width = 60;
};
};
width = 841;
}
);
userData = {
KernOnName = eight.numr;
KernOnSpecialSpacing = {
L = fraction;
R = fraction;
};
RMXScaler = {
source = eight;
};
};
},
{
glyphname = nine.numr;
kernLeft = nine.numr;
kernRight = nine.numr;
layers = (
{
layerId = "F3C0A8D3-A3E8-4ECE-8090-B83518D65089";
shapes = (
{
closed = 1;
nodes = (
(718,561,o),
(809,936,o),
(809,1145,cs),
(809,1347,o),
(705,1455,o),
(534,1455,cs),
(322,1455,o),
(195,1289,o),
(195,1118,cs),
(195,953,o),
(312,865,o),
(439,865,cs),
(549,865,o),
(628,928,o),
(679,1019,c),
(660,1027,l),
(631,898,o),
(595,675,o),
(413,675,cs),
(322,675,o),
(259,738,o),
(266,823,c),
(126,788,l),
(133,680,o),
(247,561,o),
(411,561,cs)
);
},
{
closed = 1;
nodes = (
(402,984,o),
(341,1029,o),
(341,1123,cs),
(341,1217,o),
(394,1340,o),
(519,1340,cs),
(604,1340,o),
(670,1291,o),
(670,1196,cs),
(670,1087,o),
(599,984,o),
(485,984,cs)
);
}
);
userData = {
RMXScaler = {
adjustSpace = 20;
height = 60;
verticalShift = 576;
weight = -80;
width = 60;
};
};
width = 766;
},
{
layerId = "F6FF57EF-12AD-4CA4-84B8-F83D8C5A96DF";
shapes = (
{
closed = 1;
nodes = (
(739,558,o),
(879,897,o),
(879,1120,cs),
(879,1359,o),
(731,1458,o),
(542,1458,cs),
(300,1458,o),
(164,1297,o),
(164,1119,cs),
(164,962,o),
(271,871,o),
(416,871,cs),
(519,871,o),
(576,918,o),
(661,1039,c),
(584,1011,l),
(564,897,o),
(533,769,o),
(425,768,cs),
(381,768,o),
(362,787,o),
(350,836,c),
(89,768,l),
(116,660,o),
(234,558,o),
(415,558,cs)
);
},
{
closed = 1;
nodes = (
(471,1088,o),
(451,1118,o),
(451,1150,cs),
(451,1198,o),
(484,1241,o),
(533,1241,cs),
(580,1241,o),
(599,1214,o),
(599,1180,cs),
(599,1135,o),
(571,1088,o),
(520,1088,cs)
);
}
);
userData = {
RMXScaler = {
adjustSpace = 20;
height = 60;
verticalShift = 576;
weight = -250;
width = 60;
};
};
width = 808;
}
);
userData = {
KernOnName = nine.numr;
KernOnSpecialSpacing = {
L = fraction;
R = fraction;
};
RMXScaler = {
source = nine;
};
};
},
{
glyphname = fraction;
layers = (
{
background = {
shapes = (
{
closed = 1;
nodes = (
(967,1395,l),
(884,1479,l),
(-568,39,l),
(-485,-45,l)
);
}
);
};
layerId = "F3C0A8D3-A3E8-4ECE-8090-B83518D65089";
shapes = (
{
closed = 1;
nodes = (
(819.694,1400.321,l),
(726.306,1475.679,l),
(-435.694,35.679,l),
(-342.306,-39.679,l)
);
}
);
width = 298;
},
{
background = {
shapes = (
{
closed = 1;
nodes = (
(-363,0,l),
(759,1440,l),
(546,1440,l),
(-576,0,l)
);
}
);
};
layerId = "F6FF57EF-12AD-4CA4-84B8-F83D8C5A96DF";
shapes = (
{
closed = 1;
nodes = (
(776.957,1389.943,l),
(649.043,1486.057,l),
(-432.957,46.057,l),
(-305.043,-50.057,l)
);
}
);
width = 266;
}
);
unicode = 8260;
userData = {
KernOnName = fraction;
KernOnSpecialSpacing = {
L = fraction;
R = fraction;
};
};
},
{
glyphname = .notdef;
layers = (
{
layerId = "F3C0A8D3-A3E8-4ECE-8090-B83518D65089";
shapes = (
{
closed = 1;
nodes = (
(909,0,l),
(1211,1440,l),
(191,1440,l),
(-111,0,l)
);
},
{
closed = 1;
nodes = (
(269,1342,l),
(1093,1342,l),
(831,98,l),
(7,98,l)
);
}
);
width = 1024;
},
{
background = {
shapes = (
{
pos = (300,0);
ref = H;
}
);
};
layerId = "F6FF57EF-12AD-4CA4-84B8-F83D8C5A96DF";
shapes = (
{
closed = 1;
nodes = (
(909,0,l),
(1211,1440,l),
(191,1440,l),
(-111,0,l)
);
},
{
closed = 1;
nodes = (
(269,1342,l),
(1093,1342,l),
(831,98,l),
(7,98,l)
);
}
);
width = 1024;
}
);
metricWidth = "=1024";
},
{
glyphname = period;
kernLeft = period;
kernRight = period;
layers = (
{
background = {
shapes = (
{
pos = (69,0);
ref = comma;
}
);
};
layerId = "F3C0A8D3-A3E8-4ECE-8090-B83518D65089";
shapes = (
{
closed = 1;
nodes = (
(272,-24,o),
(337,42,o),
(337,125,cs),
(337,210,o),
(272,276,o),
(188,276,cs),
(104,276,o),
(39,210,o),
(39,125,cs),
(39,42,o),
(104,-24,o),
(188,-24,cs)
);
}
);
width = 554;
},
{
background = {
shapes = (
{
pos = (-105,0);
ref = comma;
}
);
};
layerId = "F6FF57EF-12AD-4CA4-84B8-F83D8C5A96DF";
shapes = (
{
closed = 1;
nodes = (
(339,-28,o),
(429,62,o),
(429,204,cs),
(429,346,o),
(339,436,o),
(197,436,cs),
(55,436,o),
(-35,346,o),
(-35,204,cs),
(-35,62,o),
(55,-28,o),
(197,-28,cs)
);
}
);
width = 537;
}
);
unicode = 46;
userData = {
KernOnName = period;
KernOnSpecialSpacing = {
L = period;
R = period;
};
};
},
{
glyphname = comma;
kernLeft = comma;
kernRight = comma;
layers = (
{
background = {
shapes = (
{
closed = 1;
nodes = (
(64,-286,ls),
(209,-204,o),
(316,-64,o),
(316,89,cs),
(316,218,o),
(228,263,o),
(160,263,cs),
(80,263,o),
(11,198,o),
(11,109,cs),
(11,33,o),
(68,-29,o),
(145,-36,c),
(125,2,l),
(120,-45,ls),
(112,-114,o),
(71,-160,o),
(-8,-206,cs),
(-43,-227,l),
(7,-319,l)
);
}
);
};
layerId = "F3C0A8D3-A3E8-4ECE-8090-B83518D65089";
name = "400 Italic";
shapes = (
{
closed = 1;
nodes = (
(67,-286,ls),
(213,-201,o),
(319,-60,o),
(319,90,cs),
(319,219,o),
(231,263,o),
(163,263,cs),
(84,263,o),
(14,198,o),
(14,109,cs),
(14,41,o),
(65,-28,o),
(148,-36,c),
(128,2,l),
(123,-45,ls),
(116,-114,o),
(74,-159,o),
(-5,-206,cs),
(-40,-227,l),
(10,-319,l)
);
}
);
width = 525;
},
{
background = {
shapes = (
{
closed = 1;
nodes = (
(110,-294,ls),
(317,-201,o),
(443,-37,o),
(443,177,cs),
(443,360,o),
(327,436,o),
(189,436,cs),
(34,436,o),
(-36,326,o),
(-36,189,cs),
(-36,64,o),
(39,-17,o),
(173,-31,c),
(125,26,l),
(122,-5,ls),
(116,-65,o),
(90,-94,o),
(-20,-151,cs),
(-48,-166,l),
(36,-328,l)
);
}
);
};
layerId = "F6FF57EF-12AD-4CA4-84B8-F83D8C5A96DF";
metricLeft = "=period";
shapes = (
{
closed = 1;
nodes = (
(110,-294,ls),
(316,-199,o),
(443,-37,o),
(443,177,cs),
(443,360,o),
(327,436,o),
(189,436,cs),
(33,436,o),
(-36,326,o),
(-36,189,cs),
(-36,64,o),
(39,-17,o),
(173,-31,c),
(125,26,l),
(122,-5,ls),
(116,-65,o),
(89,-92,o),
(-20,-151,cs),
(-48,-166,l),
(36,-328,l)
);
}
);
width = 590;
}
);
unicode = 44;
userData = {
KernOnSpecialSpacing = {
L = period;
R = period;
};
};
},
{
glyphname = exclam;
kernLeft = exclam;
layers = (
{
layerId = "F3C0A8D3-A3E8-4ECE-8090-B83518D65089";
shapes = (
{
closed = 1;
nodes = (
(180,400,o),
(221,399,o),
(261,399,c),
(516,1440,l),
(328,1440,l),
(139,399,l)
);
},
{
closed = 1;
nodes = (
(220,-22,o),
(291,51,o),
(291,134,cs),
(291,205,o),
(237,262,o),
(162,262,cs),
(75,262,o),
(3,186,o),
(3,105,cs),
(3,33,o),
(58,-22,o),
(133,-22,cs)
);
}
);
width = 473;
},
{
background = {
shapes = (
{
closed = 1;
nodes = (
(266,577,o),
(376,566,o),
(475,522,c),
(722,1405,l),
(279,1451,l),
(148,556,l)
);
},
{
closed = 1;
nodes = (
(346,-32,o),
(460,52,o),
(492,202,cs),
(524,353,o),
(449,456,o),
(297,472,cs),
(145,488,o),
(31,404,o),
(-1,254,cs),
(-33,103,o),
(41,0,o),
(194,-16,cs)
);
}
);
};
layerId = "F6FF57EF-12AD-4CA4-84B8-F83D8C5A96DF";
shapes = (
{
closed = 1;
nodes = (
(266,577,o),
(376,566,o),
(475,522,c),
(734,1440,l),
(278,1440,l),
(148,556,l)
);
},
{
closed = 1;
nodes = (
(400,-28,o),
(504,104,o),
(504,256,cs),
(504,397,o),
(395,464,o),
(266,464,cs),
(100,464,o),
(-4,332,o),
(-4,180,cs),
(-4,39,o),
(105,-28,o),
(234,-28,cs)
);
}
);
width = 632;
}
);
unicode = 33;
userData = {
KernOnSpecialSpacing = {
L = "spaced-off";
};
};
},
{
glyphname = exclamdown;
layers = (
{
layerId = "F3C0A8D3-A3E8-4ECE-8090-B83518D65089";
shapes = (
{
alignment = 1;
angle = 180;
pos = (473,1080);
ref = exclam;
}
);
width = 473;
},
{
background = {
shapes = (
{
closed = 1;
nodes = (
(47,-360,l),
(493,-360,l),
(434,544,l),
(328,510,o),
(217,511,o),
(106,544,c)
);
},
{
closed = 1;
nodes = (
(117,1108,o),
(22,1013,o),
(22,860,cs),
(22,707,o),
(117,612,o),
(270,612,cs),
(423,612,o),
(518,707,o),
(518,860,cs),
(518,1013,o),
(423,1108,o),
(270,1108,cs)
);
}
);
};
layerId = "F6FF57EF-12AD-4CA4-84B8-F83D8C5A96DF";
shapes = (
{
alignment = 1;
angle = 180;
pos = (632,1080);
ref = exclam;
}
);
width = 632;
}
);
unicode = 161;
userData = {
KernOnSpecialSpacing = {
R = "spaced-off";
};
};
},
{
glyphname = question;
kernLeft = question;
kernRight = question;
layers = (
{
background = {
shapes = (
{
closed = 1;
nodes = (
(505,399,o),
(547,399,o),
(589,399,c),
(614,500,ls),
(663,694,o),
(1143,687,o),
(1143,1066,cs),
(1143,1327,o),
(917,1464,o),
(693,1464,cs),
(432,1464,o),
(213,1277,o),
(157,1042,c),
(345,977,l),
(411,1201,o),
(501,1313,o),
(685,1313,cs),
(815,1313,o),
(950,1257,o),
(950,1078,cs),
(950,773,o),
(556,870,o),
(484,501,cs),
(464,399,l)
);
},
{
closed = 1;
nodes = (
(559,-22,o),
(631,51,o),
(631,133,cs),
(631,205,o),
(576,262,o),
(501,262,cs),
(414,262,o),
(342,186,o),
(342,105,cs),
(342,33,o),
(397,-22,o),
(472,-22,cs)
);
}
);
};
layerId = "F3C0A8D3-A3E8-4ECE-8090-B83518D65089";
name = "400 Italic";
shapes = (
{
closed = 1;
nodes = (
(509,399,o),
(551,399,o),
(593,399,c),
(618,500,ls),
(666,694,o),
(1147,687,o),
(1147,1066,cs),
(1147,1327,o),
(931,1464,o),
(707,1464,cs),
(446,1464,o),
(217,1277,o),
(161,1042,c),
(349,977,l),
(415,1201,o),
(505,1313,o),
(689,1313,cs),
(829,1313,o),
(954,1262,o),
(954,1083,cs),
(954,748,o),
(560,870,o),
(488,501,cs),
(468,399,l)
);
},
{
closed = 1;
nodes = (
(563,-22,o),
(635,51,o),
(635,133,cs),
(635,205,o),
(580,262,o),
(505,262,cs),
(418,262,o),
(346,186,o),
(346,105,cs),
(346,33,o),
(401,-22,o),
(476,-22,cs)
);
}
);
width = 1099;
},
{
background = {
shapes = (
{
closed = 1;
nodes = (
(548,569,o),
(668,566,o),
(763,523,c),
(779,570,ls),
(832,726,o),
(1307,649,o),
(1307,1026,cs),
(1307,1314,o),
(1031,1468,o),
(752,1468,cs),
(466,1468,o),
(197,1307,o),
(116,1047,c),
(508,930,l),
(540,1040,o),
(577,1149,o),
(727,1149,cs),
(804,1149,o),
(876,1120,o),
(876,1001,cs),
(876,746,o),
(545,920,o),
(472,601,cs),
(461,553,l)
);
},
{
closed = 1;
nodes = (
(705,-28,o),
(804,109,o),
(804,250,cs),
(804,398,o),
(694,464,o),
(571,464,cs),
(395,464,o),
(296,327,o),
(296,186,cs),
(296,38,o),
(406,-28,o),
(529,-28,cs)
);
}
);
};
layerId = "F6FF57EF-12AD-4CA4-84B8-F83D8C5A96DF";
name = "900 Italic";
shapes = (
{
closed = 1;
nodes = (
(548,569,o),
(668,566,o),
(763,523,c),
(779,570,ls),
(832,726,o),
(1307,649,o),
(1307,1026,cs),
(1307,1314,o),
(1031,1468,o),
(752,1468,cs),
(466,1468,o),
(197,1307,o),
(116,1047,c),
(508,930,l),
(540,1040,o),
(577,1149,o),
(727,1149,cs),
(804,1149,o),
(876,1120,o),
(876,1001,cs),
(876,746,o),
(545,920,o),
(472,601,cs),
(461,553,l)
);
},
{
closed = 1;
nodes = (
(705,-28,o),
(804,109,o),
(804,250,cs),
(804,398,o),
(694,464,o),
(571,464,cs),
(395,464,o),
(296,327,o),
(296,186,cs),
(296,38,o),
(406,-28,o),
(529,-28,cs)
);
}
);
width = 1231;
}
);
tags = (
overshot
);
unicode = 63;
userData = {
KernOnName = question;
KernOnSpecialSpacing = {
L = "spaced-off";
};
};
},
{
glyphname = questiondown;
kernRight = questiondown;
layers = (
{
layerId = "F3C0A8D3-A3E8-4ECE-8090-B83518D65089";
shapes = (
{
alignment = 1;
angle = 180;
pos = (1099,1080);
ref = question;
}
);
width = 1099;
},
{
background = {
shapes = (
{
closed = 1;
nodes = (
(555,519,o),
(445,518,o),
(359,548,c),
(342,499,ls),
(288,334,o),
(-106,388,o),
(-177,53,cs),
(-238,-240,o),
(41,-388,o),
(307,-388,cs),
(610,-388,o),
(899,-196,o),
(990,42,c),
(609,150,l),
(585,64,o),
(539,-69,o),
(378,-69,cs),
(299,-69,o),
(226,-36,o),
(251,84,cs),
(302,327,o),
(594,196,o),
(651,500,cs),
(661,549,l)
);
},
{
closed = 1;
nodes = (
(660,1108,o),
(556,976,o),
(556,824,cs),
(556,683,o),
(665,616,o),
(794,616,cs),
(960,616,o),
(1064,748,o),
(1064,900,cs),
(1064,1041,o),
(955,1108,o),
(826,1108,cs)
);
}
);
};
layerId = "F6FF57EF-12AD-4CA4-84B8-F83D8C5A96DF";
shapes = (
{
alignment = 1;
angle = 180;
pos = (1231,1080);
ref = question;
}
);
width = 1231;
}
);
tags = (
overshot
);
unicode = 191;
userData = {
KernOnSpecialSpacing = {
R = "spaced-off";
};
};
},
{
glyphname = asterisk;
kernLeft = asterisk;
kernRight = asterisk;
layers = (
{
layerId = "F3C0A8D3-A3E8-4ECE-8090-B83518D65089";
shapes = (
{
closed = 1;
nodes = (
(573,976,l),
(733,730,l),
(851,816,l),
(670,1036,l),
(953,1111,l),
(908,1252,l),
(627,1143,l),
(645,1440,l),
(499,1440,l),
(517,1143,l),
(237,1252,l),
(192,1111,l),
(475,1036,l),
(294,816,l),
(413,730,l)
);
}
);
width = 903;
},
{
background = {
shapes = (
{
closed = 1;
nodes = (
(960,807,l),
(709,1098,l),
(618,1030,l),
(815,703,l)
);
},
{
closed = 1;
nodes = (
(701,1030,l),
(610,1098,l),
(359,807,l),
(504,703,l)
);
},
{
closed = 1;
nodes = (
(678,1112,l),
(324,1261,l),
(269,1092,l),
(643,1004,l)
);
},
{
closed = 1;
nodes = (
(715,1058,l),
(748,1440,l),
(570,1440,l),
(603,1058,l)
);
},
{
closed = 1;
nodes = (
(1050,1092,l),
(995,1261,l),
(641,1112,l),
(676,1004,l)
);
}
);
};
layerId = "F6FF57EF-12AD-4CA4-84B8-F83D8C5A96DF";
shapes = (
{
closed = 1;
nodes = (
(543,990,l),
(650,730,l),
(881,898,l),
(704,1055,l),
(921,1074,l),
(833,1343,l),
(635,1219,l),
(687,1440,l),
(403,1440,l),
(454,1219,l),
(257,1343,l),
(168,1074,l),
(383,1055,l),
(205,898,l),
(437,730,l)
);
}
);
width = 849;
}
);
unicode = 42;
userData = {
KernOnName = asterisk;
KernOnSpecialSpacing = {
L = quotes;
R = quotes;
};
};
},
{
glyphname = numbersign;
layers = (
{
layerId = "F3C0A8D3-A3E8-4ECE-8090-B83518D65089";
shapes = (
{
closed = 1;
nodes = (
(702,0,l),
(1254,1440,l),
(1104,1440,l),
(552,0,l)
);
},
{
closed = 1;
nodes = (
(1129,428,l),
(1159,571,l),
(65,571,l),
(34,428,l)
);
},
{
closed = 1;
nodes = (
(251,0,l),
(804,1440,l),
(653,1440,l),
(100,0,l)
);
},
{
closed = 1;
nodes = (
(1293,862,l),
(1323,1005,l),
(223,1005,l),
(192,862,l)
);
}
);
width = 1284;
},
{
background = {
shapes = (
{
closed = 1;
nodes = (
(883,0,l),
(1059,0,l),
(1319,1440,l),
(1143,1440,l)
);
},
{
closed = 1;
nodes = (
(314,854,l),
(1482,854,l),
(1482,1030,l),
(314,1030,l)
);
},
{
closed = 1;
nodes = (
(241,404,l),
(1404,404,l),
(1404,580,l),
(241,580,l)
);
},
{
closed = 1;
nodes = (
(403,0,l),
(579,0,l),
(839,1440,l),
(663,1440,l)
);
}
);
};
layerId = "F6FF57EF-12AD-4CA4-84B8-F83D8C5A96DF";
shapes = (
{
closed = 1;
nodes = (
(1008,0,l),
(1570,1440,l),
(1224,1440,l),
(662,0,l)
);
},
{
closed = 1;
nodes = (
(1377,308,l),
(1443,618,l),
(50,618,l),
(-16,308,l)
);
},
{
closed = 1;
nodes = (
(425,0,l),
(987,1440,l),
(641,1440,l),
(79,0,l)
);
},
{
closed = 1;
nodes = (
(1597,837,l),
(1662,1147,l),
(264,1147,l),
(199,837,l)
);
}
);
width = 1565;
}
);
unicode = 35;
},
{
glyphname = numbersign.tf;
layers = (
{
layerId = "F3C0A8D3-A3E8-4ECE-8090-B83518D65089";
shapes = (
{
closed = 1;
nodes = (
(712,0,l),
(1278,1440,l),
(1126,1440,l),
(560,0,l)
);
},
{
closed = 1;
nodes = (
(1155,430,l),
(1185,570,l),
(51,570,l),
(21,430,l)
);
},
{
closed = 1;
nodes = (
(245,0,l),
(811,1440,l),
(658,1440,l),
(92,0,l)
);
},
{
closed = 1;
nodes = (
(1322,862,l),
(1352,1002,l),
(212,1002,l),
(182,862,l)
);
}
);
width = 1299;
},
{
layerId = "F6FF57EF-12AD-4CA4-84B8-F83D8C5A96DF";
shapes = (
{
closed = 1;
nodes = (
(779,0,l),
(1345,1440,l),
(1039,1440,l),
(473,0,l)
);
},
{
closed = 1;
nodes = (
(1215,313,l),
(1279,613,l),
(36,613,l),
(-28,313,l)
);
},
{
closed = 1;
nodes = (
(316,0,l),
(882,1440,l),
(576,1440,l),
(10,0,l)
);
},
{
closed = 1;
nodes = (
(1346,842,l),
(1410,1142,l),
(162,1142,l),
(98,842,l)
);
}
);
width = 1300;
}
);
metricWidth = "=plus";
userData = {
KernOnSpecialSpacing = {
L = NoKerning;
R = NoKerning;
};
};
},
{
glyphname = slash;
kernLeft = slash;
kernRight = slash;
layers = (
{
layerId = "F3C0A8D3-A3E8-4ECE-8090-B83518D65089";
shapes = (
{
closed = 1;
nodes = (
(41,-261,l),
(1080,1587,l),
(908,1587,l),
(-131,-261,l)
);
}
);
width = 896;
},
{
background = {
shapes = (
{
pos = (-300,0);
ref = V;
}
);
};
layerId = "F6FF57EF-12AD-4CA4-84B8-F83D8C5A96DF";
shapes = (
{
closed = 1;
nodes = (
(201,-261,l),
(1240,1587,l),
(869,1587,l),
(-170,-261,l)
);
}
);
width = 1017;
}
);
unicode = 47;
userData = {
KernOnName = slash;
KernOnSpecialSpacing = {
L = slash;
R = slash;
};
};
},
{
glyphname = backslash;
kernRight = backslash;
layers = (
{
layerId = "F3C0A8D3-A3E8-4ECE-8090-B83518D65089";
shapes = (
{
closed = 1;
nodes = (
(650,-261,l),
(414,1587,l),
(263,1587,l),
(499,-261,l)
);
}
);
width = 860;
},
{
layerId = "F6FF57EF-12AD-4CA4-84B8-F83D8C5A96DF";
shapes = (
{
closed = 1;
nodes = (
(786,-261,l),
(550,1587,l),
(224,1587,l),
(460,-261,l)
);
}
);
width = 957;
}
);
unicode = 92;
userData = {
KernOnSpecialSpacing = {
L = "spaced-off";
R = "spaced-off";
};
};
},
{
glyphname = hyphen;
kernLeft = hyphen;
kernRight = hyphen;
layers = (
{
background = {
shapes = (
{
closed = 1;
nodes = (
(831,550,l),
(864,710,l),
(191,710,l),
(158,550,l)
);
}
);
};
layerId = "F3C0A8D3-A3E8-4ECE-8090-B83518D65089";
shapes = (
{
closed = 1;
nodes = (
(832,552,l),
(863,708,l),
(190,708,l),
(159,552,l)
);
}
);
width = 984;
},
{
layerId = "F6FF57EF-12AD-4CA4-84B8-F83D8C5A96DF";
shapes = (
{
closed = 1;
nodes = (
(808,460,l),
(880,800,l),
(92,800,l),
(20,460,l)
);
}
);
width = 862;
}
);
unicode = 45;
userData = {
KernOnName = hyphen;
KernOnSpecialSpacing = {
L = hyphen;
R = hyphen;
};
};
},
{
glyphname = endash;
kernLeft = endash;
kernRight = endash;
layers = (
{
layerId = "F3C0A8D3-A3E8-4ECE-8090-B83518D65089";
shapes = (
{
closed = 1;
nodes = (
(896,550,l),
(930,710,l),
(146,710,l),
(114,550,l)
);
}
);
width = 1024;
},
{
layerId = "F6FF57EF-12AD-4CA4-84B8-F83D8C5A96DF";
shapes = (
{
closed = 1;
nodes = (
(877,460,l),
(949,800,l),
(165,800,l),
(93,460,l)
);
}
);
width = 1024;
}
);
metricWidth = "=1024";
unicode = 8211;
userData = {
KernOnSpecialSpacing = {
L = dashes;
R = dashes;
};
};
},
{
glyphname = emdash;
kernLeft = endash;
kernRight = endash;
layers = (
{
layerId = "F3C0A8D3-A3E8-4ECE-8090-B83518D65089";
shapes = (
{
closed = 1;
nodes = (
(1930,550,l),
(1962,710,l),
(156,710,l),
(124,550,l)
);
}
);
width = 2048;
},
{
layerId = "F6FF57EF-12AD-4CA4-84B8-F83D8C5A96DF";
shapes = (
{
closed = 1;
nodes = (
(1901,460,l),
(1973,800,l),
(165,800,l),
(93,460,l)
);
}
);
width = 2048;
}
);
metricWidth = "=2048";
unicode = 8212;
userData = {
KernOnSpecialSpacing = {
L = dashes;
R = dashes;
};
};
},
{
glyphname = underscore;
kernLeft = underscore;
kernRight = underscore;
layers = (
{
layerId = "F3C0A8D3-A3E8-4ECE-8090-B83518D65089";
shapes = (
{
closed = 1;
nodes = (
(755,-160,l),
(789,0,l),
(5,0,l),
(-27,-160,l)
);
}
);
width = 1024;
},
{
layerId = "F6FF57EF-12AD-4CA4-84B8-F83D8C5A96DF";
shapes = (
{
closed = 1;
nodes = (
(717,-340,l),
(789,0,l),
(5,0,l),
(-67,-340,l)
);
}
);
width = 1024;
}
);
metricWidth = "=1024";
unicode = 95;
userData = {
KernOnSpecialSpacing = {
L = underscore;
R = underscore;
};
};
},
{
glyphname = parenleft;
kernLeft = parenleft;
kernRight = parenleft;
layers = (
{
background = {
shapes = (
{
closed = 1;
nodes = (
(392,-369,l),
(223,-28,o),
(184,265,o),
(257,598,cs),
(328,926,o),
(485,1178,o),
(774,1429,c),
(600,1466,l),
(344,1247,o),
(171,960,o),
(100,631,cs),
(29,302,o),
(70,-31,o),
(217,-332,c)
);
}
);
};
layerId = "F3C0A8D3-A3E8-4ECE-8090-B83518D65089";
name = "400 Italic";
shapes = (
{
closed = 1;
nodes = (
(366,-338,l),
(248,-125,o),
(191,74,o),
(191,298,cs),
(191,705,o),
(380,1134,o),
(764,1500,c),
(581,1500,l),
(232,1171,o),
(44,731,o),
(44,300,cs),
(44,80,o),
(95,-132,o),
(201,-338,c)
);
}
);
width = 621;
},
{
background = {
shapes = (
{
closed = 1;
nodes = (
(555,-354,l),
(425,-114,o),
(363,98,o),
(363,315,cs),
(363,727,o),
(572,1109,o),
(939,1453,c),
(567,1492,l),
(217,1147,o),
(27,743,o),
(27,322,cs),
(27,108,o),
(79,-101,o),
(182,-315,c)
);
}
);
};
layerId = "F6FF57EF-12AD-4CA4-84B8-F83D8C5A96DF";
shapes = (
{
closed = 1;
nodes = (
(547,-338,l),
(426,-114,o),
(363,96,o),
(363,321,cs),
(363,725,o),
(562,1109,o),
(988,1500,c),
(576,1500,l),
(217,1147,o),
(27,744,o),
(27,323,cs),
(27,109,o),
(75,-97,o),
(194,-338,c)
);
}
);
width = 780;
}
);
unicode = 40;
userData = {
KernOnSpecialSpacing = {
R = parenthesis;
};
};
},
{
glyphname = parenright;
kernLeft = parenright;
kernRight = parenright;
layers = (
{
background = {
shapes = (
{
closed = 1;
nodes = (
(47,-338,l),
(410,-9,o),
(606,431,o),
(606,862,cs),
(606,1082,o),
(553,1294,o),
(443,1500,c),
(272,1500,l),
(387,1287,o),
(443,1087,o),
(443,867,cs),
(443,456,o),
(247,29,o),
(-152,-338,c)
);
}
);
};
layerId = "F3C0A8D3-A3E8-4ECE-8090-B83518D65089";
shapes = (
{
closed = 1;
nodes = (
(71,-338,l),
(434,-9,o),
(630,431,o),
(630,862,cs),
(630,1082,o),
(577,1294,o),
(467,1500,c),
(296,1500,l),
(411,1287,o),
(467,1087,o),
(467,867,cs),
(467,456,o),
(271,29,o),
(-128,-338,c)
);
}
);
width = 653;
},
{
background = {
shapes = (
{
alignment = 1;
pos = (601,0);
ref = parenleft;
scale = (-1,1);
}
);
};
layerId = "F6FF57EF-12AD-4CA4-84B8-F83D8C5A96DF";
shapes = (
{
closed = 1;
nodes = (
(220,-338,l),
(579,15,o),
(769,418,o),
(769,839,cs),
(769,1053,o),
(721,1259,o),
(602,1500,c),
(249,1500,l),
(370,1276,o),
(433,1066,o),
(433,841,cs),
(433,437,o),
(234,53,o),
(-192,-338,c)
);
}
);
width = 779;
}
);
unicode = 41;
userData = {
KernOnSpecialSpacing = {
L = parenthesis;
};
};
},
{
glyphname = braceleft;
kernRight = braceleft;
layers = (
{
layerId = "F3C0A8D3-A3E8-4ECE-8090-B83518D65089";
shapes = (
{
closed = 1;
nodes = (
(400,-338,l),
(429,-195,l),
(232,-195,ls),
(192,-195,o),
(187,-184,o),
(196,-140,cs),
(316,428,ls),
(330,498,o),
(302,549,o),
(232,581,c),
(316,613,o),
(365,664,o),
(380,734,cs),
(499,1302,ls),
(509,1346,o),
(519,1357,o),
(559,1357,cs),
(756,1357,l),
(786,1500,l),
(548,1500,ls),
(463,1500,o),
(378,1436,o),
(359,1347,cs),
(223,702,ls),
(217,669,o),
(200,653,o),
(173,653,cs),
(73,653,l),
(42,509,l),
(142,509,ls),
(169,509,o),
(179,493,o),
(172,460,cs),
(37,-185,ls),
(18,-274,o),
(77,-338,o),
(162,-338,cs)
);
}
);
width = 637;
},
{
background = {
shapes = (
{
pos = (156,-338);
ref = _part.angular;
}
);
};
guides = (
{
angle = 180;
pos = (475,581);
}
);
layerId = "F6FF57EF-12AD-4CA4-84B8-F83D8C5A96DF";
shapes = (
{
closed = 1;
nodes = (
(523,-338,l),
(582,-58,l),
(424,-58,ls),
(384,-58,o),
(378,-47,o),
(388,-2,cs),
(445,270,ls),
(482,445,o),
(409,549,o),
(287,581,c),
(423,613,o),
(539,717,o),
(576,892,cs),
(633,1164,ls),
(642,1209,o),
(652,1220,o),
(693,1220,cs),
(851,1220,l),
(910,1500,l),
(664,1500,ls),
(453,1500,o),
(338,1406,o),
(297,1213,cs),
(204,770,ls),
(197,737,o),
(181,721,o),
(154,721,cs),
(54,721,l),
(-5,441,l),
(95,441,ls),
(122,441,o),
(132,425,o),
(125,392,cs),
(32,-51,ls),
(-9,-244,o),
(66,-338,o),
(278,-338,cs)
);
}
);
width = 745;
}
);
unicode = 123;
userData = {
KernOnSpecialSpacing = {
R = parenthesis;
};
};
},
{
glyphname = bracketleft;
kernRight = bracketleft;
layers = (
{
layerId = "F3C0A8D3-A3E8-4ECE-8090-B83518D65089";
shapes = (
{
closed = 1;
nodes = (
(319,-338,l),
(348,-195,l),
(102,-195,l),
(428,1357,l),
(675,1357,l),
(705,1500,l),
(308,1500,l),
(-78,-338,l)
);
}
);
width = 610;
},
{
background = {
shapes = (
{
closed = 1;
nodes = (
(563,-338,l),
(622,-58,l),
(337,-58,l),
(606,1220,l),
(890,1220,l),
(949,1500,l),
(319,1500,l),
(-67,-338,l)
);
}
);
};
guides = (
{
angle = 180;
pos = (488,581);
}
);
layerId = "F6FF57EF-12AD-4CA4-84B8-F83D8C5A96DF";
shapes = (
{
closed = 1;
nodes = (
(563,-338,l),
(622,-58,l),
(337,-58,l),
(606,1220,l),
(891,1220,l),
(949,1500,l),
(319,1500,l),
(-67,-338,l)
);
}
);
width = 785;
}
);
unicode = 91;
userData = {
KernOnSpecialSpacing = {
L = NoKerning;
R = parenthesis;
};
};
},
{
glyphname = guilsinglleft;
kernLeft = guilsinglleft;
layers = (
{
anchors = (
{
name = "#entry";
pos = (-138,0);
},
{
name = "#exit";
pos = (229,0);
}
);
layerId = "F3C0A8D3-A3E8-4ECE-8090-B83518D65089";
name = "400 Italic";
shapes = (
{
closed = 1;
nodes = (
(486,225,l),
(243,614,l),
(666,1035,l),
(478,1035,l),
(71,629,l),
(323,225,l)
);
}
);
width = 613;
},
{
anchors = (
{
name = "#entry";
pos = (-115,0);
},
{
name = "#exit";
pos = (342,0);
}
);
layerId = "F6FF57EF-12AD-4CA4-84B8-F83D8C5A96DF";
shapes = (
{
closed = 1;
nodes = (
(572,225,l),
(399,609,l),
(742,1035,l),
(378,1035,l),
(39,629,l),
(218,225,l)
);
}
);
width = 659;
}
);
unicode = 8249;
userData = {
KernOnSpecialSpacing = {
L = quotes;
R = quotes;
};
};
},
{
glyphname = guilsinglright;
kernRight = guilsinglright;
layers = (
{
anchors = (
{
name = "#entry";
pos = (-122,0);
},
{
name = "#exit";
pos = (245,0);
}
);
layerId = "F3C0A8D3-A3E8-4ECE-8090-B83518D65089";
shapes = (
{
closed = 1;
nodes = (
(174,225,l),
(580,631,l),
(328,1035,l),
(165,1035,l),
(409,646,l),
(-15,225,l)
);
}
);
width = 613;
},
{
anchors = (
{
name = "#entry";
pos = (-107,0);
},
{
name = "#exit";
pos = (350,0);
}
);
layerId = "F6FF57EF-12AD-4CA4-84B8-F83D8C5A96DF";
shapes = (
{
closed = 1;
nodes = (
(319,225,l),
(658,631,l),
(479,1035,l),
(125,1035,l),
(298,651,l),
(-45,225,l)
);
}
);
width = 659;
}
);
metricLeft = "=|guilsinglleft";
metricRight = "=|guilsinglleft";
unicode = 8250;
userData = {
KernOnSpecialSpacing = {
L = quotes;
R = quotes;
};
};
},
{
glyphname = quotesingle;
kernLeft = quotesingle;
kernRight = quotesingle;
layers = (
{
anchors = (
{
name = "#entry";
pos = (-65,0);
},
{
name = "#exit";
pos = (232,0);
}
);
layerId = "F3C0A8D3-A3E8-4ECE-8090-B83518D65089";
shapes = (
{
closed = 1;
nodes = (
(322,902,l),
(491,1440,l),
(293,1440,l),
(179,902,l)
);
}
);
width = 402;
},
{
anchors = (
{
name = "#entry";
pos = (-141,0);
},
{
name = "#exit";
pos = (275,0);
}
);
layerId = "F6FF57EF-12AD-4CA4-84B8-F83D8C5A96DF";
shapes = (
{
closed = 1;
nodes = (
(338,839,l),
(642,1440,l),
(283,1440,l),
(94,839,l)
);
}
);
width = 481;
}
);
metricLeft = "=quotesinglbase";
metricRight = "=|";
unicode = 39;
userData = {
KernOnName = quotesingle;
KernOnSpecialSpacing = {
L = quotes;
R = quotes;
};
};
},
{
glyphname = florin;
layers = (
{
layerId = "F3C0A8D3-A3E8-4ECE-8090-B83518D65089";
shapes = (
{
closed = 1;
nodes = (
(223,0,ls),
(351,0,o),
(426,61,o),
(485,202,cs),
(924,1247,ls),
(939,1282,o),
(956,1297,o),
(984,1297,cs),
(1306,1297,l),
(1337,1440,l),
(1015,1440,ls),
(887,1440,o),
(812,1381,o),
(752,1238,cs),
(313,193,ls),
(298,158,o),
(281,143,o),
(252,143,cs),
(-38,143,l),
(-69,0,l)
);
},
{
closed = 1;
nodes = (
(1072,686,l),
(1098,806,l),
(253,806,l),
(228,686,l)
);
}
);
width = 1192;
},
{
layerId = "F6FF57EF-12AD-4CA4-84B8-F83D8C5A96DF";
shapes = (
{
closed = 1;
nodes = (
(282,0,ls),
(445,0,o),
(555,83,o),
(624,253,cs),
(975,1109,ls),
(991,1147,o),
(1002,1160,o),
(1030,1160,cs),
(1300,1160,l),
(1359,1440,l),
(980,1440,ls),
(817,1440,o),
(707,1356,o),
(638,1187,cs),
(287,331,ls),
(272,293,o),
(260,280,o),
(232,280,cs),
(-37,280,l),
(-96,0,l)
);
},
{
closed = 1;
nodes = (
(1046,653,l),
(1069,763,l),
(252,763,l),
(229,653,l)
);
}
);
width = 1186;
}
);
unicode = 402;
userData = {
KernOnSpecialSpacing = {
L = NoKerning;
R = NoKerning;
};
};
},
{
glyphname = baht;
kernLeft = baht;
layers = (
{
layerId = "F3C0A8D3-A3E8-4ECE-8090-B83518D65089";
shapes = (
{
closed = 1;
nodes = (
(520,57,ls),
(805,57,o),
(1031,210,o),
(1032,475,cs),
(1033,650,o),
(934,749,o),
(781,779,c),
(778,775,l),
(983,797,o),
(1120,952,o),
(1120,1117,cs),
(1121,1290,o),
(986,1382,o),
(767,1382,cs),
(280,1382,l),
(-1,57,l)
);
},
{
closed = 1;
nodes = (
(300,706,l),
(599,706,ls),
(769,706,o),
(871,633,o),
(871,483,cs),
(871,362,o),
(787,197,o),
(546,197,cs),
(193,197,l)
);
},
{
closed = 1;
nodes = (
(434,-140,l),
(799,1580,l),
(686,1580,l),
(319,-140,l)
);
},
{
closed = 1;
nodes = (
(412,1242,l),
(736,1242,ls),
(882,1242,o),
(941,1175,o),
(941,1075,cs),
(941,930,o),
(812,846,o),
(644,846,cs),
(329,846,l)
);
}
);
width = 1157;
},
{
layerId = "F6FF57EF-12AD-4CA4-84B8-F83D8C5A96DF";
shapes = (
{
closed = 1;
nodes = (
(661,57,ls),
(910,57,o),
(1149,144,o),
(1209,429,cs),
(1249,620,o),
(1173,728,o),
(998,757,c),
(995,753,l),
(1106,773,o),
(1261,834,o),
(1306,1051,cs),
(1351,1265,o),
(1241,1382,o),
(911,1382,cs),
(274,1382,l),
(-5,57,l)
);
},
{
closed = 1;
nodes = (
(493,611,l),
(687,611,ls),
(847,611,o),
(850,545,o),
(837,485,cs),
(821,408,o),
(778,358,o),
(629,358,cs),
(440,358,l)
);
},
{
closed = 1;
nodes = (
(554,-140,l),
(906,1580,l),
(802,1580,l),
(450,-140,l)
);
},
{
closed = 1;
nodes = (
(592,1081,l,{
name = "";
}),
(815,1081,ls,{
name = "";
}),
(912,1081,o),
(929,1043,o),
(917,985,cs),
(903,920,o),
(866,890,o),
(776,890,cs),
(552,890,l)
);
}
);
width = 1270;
}
);
unicode = 3647;
},
